G04 MADE WITH FRITZING*
G04 WWW.FRITZING.ORG*
G04 DOUBLE SIDED*
G04 HOLES PLATED*
G04 CONTOUR ON CENTER OF CONTOUR VECTOR*
%ASAXBY*%
%FSLAX23Y23*%
%MOIN*%
%OFA0B0*%
%SFA1.0B1.0*%
%ADD10R,0.001000X0.001000*%
%LNSILK0*%
G90*
G70*
G54D10*
X0Y1575D02*
X2558Y1575D01*
X0Y1574D02*
X2558Y1574D01*
X0Y1573D02*
X2558Y1573D01*
X0Y1572D02*
X2558Y1572D01*
X0Y1571D02*
X2558Y1571D01*
X0Y1570D02*
X1963Y1570D01*
X1975Y1570D02*
X2219Y1570D01*
X2231Y1570D02*
X2558Y1570D01*
X0Y1569D02*
X1959Y1569D01*
X1980Y1569D02*
X2214Y1569D01*
X2236Y1569D02*
X2558Y1569D01*
X0Y1568D02*
X1956Y1568D01*
X1983Y1568D02*
X2212Y1568D01*
X2238Y1568D02*
X2558Y1568D01*
X0Y1567D02*
X7Y1567D01*
X2551Y1567D02*
X2558Y1567D01*
X0Y1566D02*
X7Y1566D01*
X2551Y1566D02*
X2558Y1566D01*
X0Y1565D02*
X7Y1565D01*
X2551Y1565D02*
X2558Y1565D01*
X0Y1564D02*
X7Y1564D01*
X2551Y1564D02*
X2558Y1564D01*
X0Y1563D02*
X7Y1563D01*
X2551Y1563D02*
X2558Y1563D01*
X0Y1562D02*
X7Y1562D01*
X2551Y1562D02*
X2558Y1562D01*
X0Y1561D02*
X7Y1561D01*
X2551Y1561D02*
X2558Y1561D01*
X0Y1560D02*
X7Y1560D01*
X2551Y1560D02*
X2558Y1560D01*
X0Y1559D02*
X7Y1559D01*
X2551Y1559D02*
X2558Y1559D01*
X0Y1558D02*
X7Y1558D01*
X2551Y1558D02*
X2558Y1558D01*
X0Y1557D02*
X7Y1557D01*
X2551Y1557D02*
X2558Y1557D01*
X0Y1556D02*
X7Y1556D01*
X2551Y1556D02*
X2558Y1556D01*
X0Y1555D02*
X7Y1555D01*
X2551Y1555D02*
X2558Y1555D01*
X0Y1554D02*
X7Y1554D01*
X2551Y1554D02*
X2558Y1554D01*
X0Y1553D02*
X7Y1553D01*
X2551Y1553D02*
X2558Y1553D01*
X0Y1552D02*
X7Y1552D01*
X2551Y1552D02*
X2558Y1552D01*
X0Y1551D02*
X7Y1551D01*
X2551Y1551D02*
X2558Y1551D01*
X0Y1550D02*
X7Y1550D01*
X2551Y1550D02*
X2558Y1550D01*
X0Y1549D02*
X7Y1549D01*
X2551Y1549D02*
X2558Y1549D01*
X0Y1548D02*
X7Y1548D01*
X2551Y1548D02*
X2558Y1548D01*
X0Y1547D02*
X7Y1547D01*
X2551Y1547D02*
X2558Y1547D01*
X0Y1546D02*
X7Y1546D01*
X2551Y1546D02*
X2558Y1546D01*
X0Y1545D02*
X7Y1545D01*
X2551Y1545D02*
X2558Y1545D01*
X0Y1544D02*
X7Y1544D01*
X2551Y1544D02*
X2558Y1544D01*
X0Y1543D02*
X7Y1543D01*
X2551Y1543D02*
X2558Y1543D01*
X0Y1542D02*
X7Y1542D01*
X2551Y1542D02*
X2558Y1542D01*
X0Y1541D02*
X7Y1541D01*
X2551Y1541D02*
X2558Y1541D01*
X0Y1540D02*
X7Y1540D01*
X2551Y1540D02*
X2558Y1540D01*
X0Y1539D02*
X7Y1539D01*
X2551Y1539D02*
X2558Y1539D01*
X0Y1538D02*
X7Y1538D01*
X2551Y1538D02*
X2558Y1538D01*
X0Y1537D02*
X7Y1537D01*
X2551Y1537D02*
X2558Y1537D01*
X0Y1536D02*
X7Y1536D01*
X2551Y1536D02*
X2558Y1536D01*
X0Y1535D02*
X7Y1535D01*
X2551Y1535D02*
X2558Y1535D01*
X0Y1534D02*
X7Y1534D01*
X2551Y1534D02*
X2558Y1534D01*
X0Y1533D02*
X7Y1533D01*
X2551Y1533D02*
X2558Y1533D01*
X0Y1532D02*
X7Y1532D01*
X2551Y1532D02*
X2558Y1532D01*
X0Y1531D02*
X7Y1531D01*
X2551Y1531D02*
X2558Y1531D01*
X0Y1530D02*
X7Y1530D01*
X2551Y1530D02*
X2558Y1530D01*
X0Y1529D02*
X7Y1529D01*
X2551Y1529D02*
X2558Y1529D01*
X0Y1528D02*
X7Y1528D01*
X2551Y1528D02*
X2558Y1528D01*
X0Y1527D02*
X7Y1527D01*
X2551Y1527D02*
X2558Y1527D01*
X0Y1526D02*
X7Y1526D01*
X2551Y1526D02*
X2558Y1526D01*
X0Y1525D02*
X7Y1525D01*
X2551Y1525D02*
X2558Y1525D01*
X0Y1524D02*
X7Y1524D01*
X2551Y1524D02*
X2558Y1524D01*
X0Y1523D02*
X7Y1523D01*
X2551Y1523D02*
X2558Y1523D01*
X0Y1522D02*
X7Y1522D01*
X2551Y1522D02*
X2558Y1522D01*
X0Y1521D02*
X7Y1521D01*
X2551Y1521D02*
X2558Y1521D01*
X0Y1520D02*
X7Y1520D01*
X2551Y1520D02*
X2558Y1520D01*
X0Y1519D02*
X7Y1519D01*
X2551Y1519D02*
X2558Y1519D01*
X0Y1518D02*
X7Y1518D01*
X2551Y1518D02*
X2558Y1518D01*
X0Y1517D02*
X7Y1517D01*
X2551Y1517D02*
X2558Y1517D01*
X0Y1516D02*
X7Y1516D01*
X2551Y1516D02*
X2558Y1516D01*
X0Y1515D02*
X7Y1515D01*
X2551Y1515D02*
X2558Y1515D01*
X0Y1514D02*
X7Y1514D01*
X2551Y1514D02*
X2558Y1514D01*
X0Y1513D02*
X7Y1513D01*
X2551Y1513D02*
X2558Y1513D01*
X0Y1512D02*
X7Y1512D01*
X2551Y1512D02*
X2558Y1512D01*
X0Y1511D02*
X7Y1511D01*
X2551Y1511D02*
X2558Y1511D01*
X0Y1510D02*
X7Y1510D01*
X2551Y1510D02*
X2558Y1510D01*
X0Y1509D02*
X7Y1509D01*
X2551Y1509D02*
X2558Y1509D01*
X0Y1508D02*
X7Y1508D01*
X2551Y1508D02*
X2558Y1508D01*
X0Y1507D02*
X7Y1507D01*
X2551Y1507D02*
X2558Y1507D01*
X0Y1506D02*
X7Y1506D01*
X2551Y1506D02*
X2558Y1506D01*
X0Y1505D02*
X7Y1505D01*
X2551Y1505D02*
X2558Y1505D01*
X0Y1504D02*
X7Y1504D01*
X2551Y1504D02*
X2558Y1504D01*
X0Y1503D02*
X7Y1503D01*
X2551Y1503D02*
X2558Y1503D01*
X0Y1502D02*
X7Y1502D01*
X2551Y1502D02*
X2558Y1502D01*
X0Y1501D02*
X7Y1501D01*
X2551Y1501D02*
X2558Y1501D01*
X0Y1500D02*
X7Y1500D01*
X2551Y1500D02*
X2558Y1500D01*
X0Y1499D02*
X7Y1499D01*
X2551Y1499D02*
X2558Y1499D01*
X0Y1498D02*
X7Y1498D01*
X2551Y1498D02*
X2558Y1498D01*
X0Y1497D02*
X7Y1497D01*
X2551Y1497D02*
X2558Y1497D01*
X0Y1496D02*
X7Y1496D01*
X2551Y1496D02*
X2558Y1496D01*
X0Y1495D02*
X7Y1495D01*
X2551Y1495D02*
X2558Y1495D01*
X0Y1494D02*
X7Y1494D01*
X2551Y1494D02*
X2558Y1494D01*
X0Y1493D02*
X7Y1493D01*
X2551Y1493D02*
X2558Y1493D01*
X0Y1492D02*
X7Y1492D01*
X2551Y1492D02*
X2558Y1492D01*
X0Y1491D02*
X7Y1491D01*
X2551Y1491D02*
X2558Y1491D01*
X0Y1490D02*
X7Y1490D01*
X2551Y1490D02*
X2558Y1490D01*
X0Y1489D02*
X7Y1489D01*
X2551Y1489D02*
X2558Y1489D01*
X0Y1488D02*
X7Y1488D01*
X2551Y1488D02*
X2558Y1488D01*
X0Y1487D02*
X7Y1487D01*
X2551Y1487D02*
X2558Y1487D01*
X0Y1486D02*
X7Y1486D01*
X2551Y1486D02*
X2558Y1486D01*
X0Y1485D02*
X7Y1485D01*
X2551Y1485D02*
X2558Y1485D01*
X0Y1484D02*
X7Y1484D01*
X2551Y1484D02*
X2558Y1484D01*
X0Y1483D02*
X7Y1483D01*
X2551Y1483D02*
X2558Y1483D01*
X0Y1482D02*
X7Y1482D01*
X2551Y1482D02*
X2558Y1482D01*
X0Y1481D02*
X7Y1481D01*
X2551Y1481D02*
X2558Y1481D01*
X0Y1480D02*
X7Y1480D01*
X2551Y1480D02*
X2558Y1480D01*
X0Y1479D02*
X7Y1479D01*
X2551Y1479D02*
X2558Y1479D01*
X0Y1478D02*
X7Y1478D01*
X2551Y1478D02*
X2558Y1478D01*
X0Y1477D02*
X7Y1477D01*
X2551Y1477D02*
X2558Y1477D01*
X0Y1476D02*
X7Y1476D01*
X2551Y1476D02*
X2558Y1476D01*
X0Y1475D02*
X7Y1475D01*
X2551Y1475D02*
X2558Y1475D01*
X0Y1474D02*
X7Y1474D01*
X2551Y1474D02*
X2558Y1474D01*
X0Y1473D02*
X7Y1473D01*
X2551Y1473D02*
X2558Y1473D01*
X0Y1472D02*
X7Y1472D01*
X2551Y1472D02*
X2558Y1472D01*
X0Y1471D02*
X7Y1471D01*
X2551Y1471D02*
X2558Y1471D01*
X0Y1470D02*
X7Y1470D01*
X2551Y1470D02*
X2558Y1470D01*
X0Y1469D02*
X7Y1469D01*
X2551Y1469D02*
X2558Y1469D01*
X0Y1468D02*
X7Y1468D01*
X2551Y1468D02*
X2558Y1468D01*
X0Y1467D02*
X7Y1467D01*
X2551Y1467D02*
X2558Y1467D01*
X0Y1466D02*
X7Y1466D01*
X2551Y1466D02*
X2558Y1466D01*
X0Y1465D02*
X7Y1465D01*
X2551Y1465D02*
X2558Y1465D01*
X0Y1464D02*
X7Y1464D01*
X2551Y1464D02*
X2558Y1464D01*
X0Y1463D02*
X7Y1463D01*
X2551Y1463D02*
X2558Y1463D01*
X0Y1462D02*
X7Y1462D01*
X2551Y1462D02*
X2558Y1462D01*
X0Y1461D02*
X7Y1461D01*
X2551Y1461D02*
X2558Y1461D01*
X0Y1460D02*
X7Y1460D01*
X2551Y1460D02*
X2558Y1460D01*
X0Y1459D02*
X7Y1459D01*
X2551Y1459D02*
X2558Y1459D01*
X0Y1458D02*
X7Y1458D01*
X2551Y1458D02*
X2558Y1458D01*
X0Y1457D02*
X7Y1457D01*
X2551Y1457D02*
X2558Y1457D01*
X0Y1456D02*
X7Y1456D01*
X2551Y1456D02*
X2558Y1456D01*
X0Y1455D02*
X7Y1455D01*
X2551Y1455D02*
X2558Y1455D01*
X0Y1454D02*
X7Y1454D01*
X2551Y1454D02*
X2558Y1454D01*
X0Y1453D02*
X7Y1453D01*
X2551Y1453D02*
X2558Y1453D01*
X0Y1452D02*
X7Y1452D01*
X2551Y1452D02*
X2558Y1452D01*
X0Y1451D02*
X7Y1451D01*
X2551Y1451D02*
X2558Y1451D01*
X0Y1450D02*
X7Y1450D01*
X2551Y1450D02*
X2558Y1450D01*
X0Y1449D02*
X7Y1449D01*
X2551Y1449D02*
X2558Y1449D01*
X0Y1448D02*
X7Y1448D01*
X2551Y1448D02*
X2558Y1448D01*
X0Y1447D02*
X7Y1447D01*
X2551Y1447D02*
X2558Y1447D01*
X0Y1446D02*
X7Y1446D01*
X2551Y1446D02*
X2558Y1446D01*
X0Y1445D02*
X7Y1445D01*
X2551Y1445D02*
X2558Y1445D01*
X0Y1444D02*
X7Y1444D01*
X2551Y1444D02*
X2558Y1444D01*
X0Y1443D02*
X7Y1443D01*
X2551Y1443D02*
X2558Y1443D01*
X0Y1442D02*
X7Y1442D01*
X2551Y1442D02*
X2558Y1442D01*
X0Y1441D02*
X7Y1441D01*
X2551Y1441D02*
X2558Y1441D01*
X0Y1440D02*
X7Y1440D01*
X2551Y1440D02*
X2558Y1440D01*
X0Y1439D02*
X7Y1439D01*
X2551Y1439D02*
X2558Y1439D01*
X0Y1438D02*
X7Y1438D01*
X2551Y1438D02*
X2558Y1438D01*
X0Y1437D02*
X7Y1437D01*
X2551Y1437D02*
X2558Y1437D01*
X0Y1436D02*
X7Y1436D01*
X2551Y1436D02*
X2558Y1436D01*
X0Y1435D02*
X7Y1435D01*
X2551Y1435D02*
X2558Y1435D01*
X0Y1434D02*
X7Y1434D01*
X2551Y1434D02*
X2558Y1434D01*
X0Y1433D02*
X7Y1433D01*
X2551Y1433D02*
X2558Y1433D01*
X0Y1432D02*
X7Y1432D01*
X2551Y1432D02*
X2558Y1432D01*
X0Y1431D02*
X7Y1431D01*
X2551Y1431D02*
X2558Y1431D01*
X0Y1430D02*
X7Y1430D01*
X2551Y1430D02*
X2558Y1430D01*
X0Y1429D02*
X7Y1429D01*
X2551Y1429D02*
X2558Y1429D01*
X0Y1428D02*
X7Y1428D01*
X2551Y1428D02*
X2558Y1428D01*
X0Y1427D02*
X7Y1427D01*
X2551Y1427D02*
X2558Y1427D01*
X0Y1426D02*
X7Y1426D01*
X2551Y1426D02*
X2558Y1426D01*
X0Y1425D02*
X7Y1425D01*
X2551Y1425D02*
X2558Y1425D01*
X0Y1424D02*
X7Y1424D01*
X2551Y1424D02*
X2558Y1424D01*
X0Y1423D02*
X7Y1423D01*
X2551Y1423D02*
X2558Y1423D01*
X0Y1422D02*
X7Y1422D01*
X2551Y1422D02*
X2558Y1422D01*
X0Y1421D02*
X7Y1421D01*
X2551Y1421D02*
X2558Y1421D01*
X0Y1420D02*
X7Y1420D01*
X2551Y1420D02*
X2558Y1420D01*
X0Y1419D02*
X7Y1419D01*
X2551Y1419D02*
X2558Y1419D01*
X0Y1418D02*
X7Y1418D01*
X2551Y1418D02*
X2558Y1418D01*
X0Y1417D02*
X7Y1417D01*
X2551Y1417D02*
X2558Y1417D01*
X0Y1416D02*
X7Y1416D01*
X2551Y1416D02*
X2558Y1416D01*
X0Y1415D02*
X7Y1415D01*
X2551Y1415D02*
X2558Y1415D01*
X0Y1414D02*
X7Y1414D01*
X2551Y1414D02*
X2558Y1414D01*
X0Y1413D02*
X7Y1413D01*
X2551Y1413D02*
X2558Y1413D01*
X0Y1412D02*
X7Y1412D01*
X2551Y1412D02*
X2558Y1412D01*
X0Y1411D02*
X7Y1411D01*
X2551Y1411D02*
X2558Y1411D01*
X0Y1410D02*
X7Y1410D01*
X2551Y1410D02*
X2558Y1410D01*
X0Y1409D02*
X7Y1409D01*
X2551Y1409D02*
X2558Y1409D01*
X0Y1408D02*
X7Y1408D01*
X2551Y1408D02*
X2558Y1408D01*
X0Y1407D02*
X7Y1407D01*
X2551Y1407D02*
X2558Y1407D01*
X0Y1406D02*
X7Y1406D01*
X2551Y1406D02*
X2558Y1406D01*
X0Y1405D02*
X7Y1405D01*
X2551Y1405D02*
X2558Y1405D01*
X0Y1404D02*
X7Y1404D01*
X2551Y1404D02*
X2558Y1404D01*
X0Y1403D02*
X7Y1403D01*
X2551Y1403D02*
X2558Y1403D01*
X0Y1402D02*
X7Y1402D01*
X2551Y1402D02*
X2558Y1402D01*
X0Y1401D02*
X7Y1401D01*
X2551Y1401D02*
X2558Y1401D01*
X0Y1400D02*
X7Y1400D01*
X2551Y1400D02*
X2558Y1400D01*
X0Y1399D02*
X7Y1399D01*
X2551Y1399D02*
X2558Y1399D01*
X0Y1398D02*
X7Y1398D01*
X2551Y1398D02*
X2558Y1398D01*
X0Y1397D02*
X7Y1397D01*
X2551Y1397D02*
X2558Y1397D01*
X0Y1396D02*
X7Y1396D01*
X2551Y1396D02*
X2558Y1396D01*
X0Y1395D02*
X7Y1395D01*
X2551Y1395D02*
X2558Y1395D01*
X0Y1394D02*
X7Y1394D01*
X2551Y1394D02*
X2558Y1394D01*
X0Y1393D02*
X7Y1393D01*
X2551Y1393D02*
X2558Y1393D01*
X0Y1392D02*
X7Y1392D01*
X2551Y1392D02*
X2558Y1392D01*
X0Y1391D02*
X7Y1391D01*
X2551Y1391D02*
X2558Y1391D01*
X0Y1390D02*
X7Y1390D01*
X2551Y1390D02*
X2558Y1390D01*
X0Y1389D02*
X7Y1389D01*
X2551Y1389D02*
X2558Y1389D01*
X0Y1388D02*
X7Y1388D01*
X2551Y1388D02*
X2558Y1388D01*
X0Y1387D02*
X7Y1387D01*
X2551Y1387D02*
X2558Y1387D01*
X0Y1386D02*
X7Y1386D01*
X2551Y1386D02*
X2558Y1386D01*
X0Y1385D02*
X7Y1385D01*
X2551Y1385D02*
X2558Y1385D01*
X0Y1384D02*
X7Y1384D01*
X2551Y1384D02*
X2558Y1384D01*
X0Y1383D02*
X7Y1383D01*
X2551Y1383D02*
X2558Y1383D01*
X0Y1382D02*
X7Y1382D01*
X2551Y1382D02*
X2558Y1382D01*
X0Y1381D02*
X7Y1381D01*
X2551Y1381D02*
X2558Y1381D01*
X0Y1380D02*
X7Y1380D01*
X2551Y1380D02*
X2558Y1380D01*
X0Y1379D02*
X7Y1379D01*
X2551Y1379D02*
X2558Y1379D01*
X0Y1378D02*
X7Y1378D01*
X2551Y1378D02*
X2558Y1378D01*
X0Y1377D02*
X7Y1377D01*
X2551Y1377D02*
X2558Y1377D01*
X0Y1376D02*
X7Y1376D01*
X2551Y1376D02*
X2558Y1376D01*
X0Y1375D02*
X7Y1375D01*
X2551Y1375D02*
X2558Y1375D01*
X0Y1374D02*
X7Y1374D01*
X2551Y1374D02*
X2558Y1374D01*
X0Y1373D02*
X7Y1373D01*
X2551Y1373D02*
X2558Y1373D01*
X0Y1372D02*
X7Y1372D01*
X2551Y1372D02*
X2558Y1372D01*
X0Y1371D02*
X7Y1371D01*
X2551Y1371D02*
X2558Y1371D01*
X0Y1370D02*
X7Y1370D01*
X2551Y1370D02*
X2558Y1370D01*
X0Y1369D02*
X7Y1369D01*
X2551Y1369D02*
X2558Y1369D01*
X0Y1368D02*
X7Y1368D01*
X2551Y1368D02*
X2558Y1368D01*
X0Y1367D02*
X7Y1367D01*
X2551Y1367D02*
X2558Y1367D01*
X0Y1366D02*
X7Y1366D01*
X2551Y1366D02*
X2558Y1366D01*
X0Y1365D02*
X7Y1365D01*
X2551Y1365D02*
X2558Y1365D01*
X0Y1364D02*
X7Y1364D01*
X2551Y1364D02*
X2558Y1364D01*
X0Y1363D02*
X7Y1363D01*
X2551Y1363D02*
X2558Y1363D01*
X0Y1362D02*
X7Y1362D01*
X2551Y1362D02*
X2558Y1362D01*
X0Y1361D02*
X7Y1361D01*
X2551Y1361D02*
X2558Y1361D01*
X0Y1360D02*
X7Y1360D01*
X2551Y1360D02*
X2558Y1360D01*
X0Y1359D02*
X7Y1359D01*
X2551Y1359D02*
X2558Y1359D01*
X0Y1358D02*
X7Y1358D01*
X2551Y1358D02*
X2558Y1358D01*
X0Y1357D02*
X7Y1357D01*
X2551Y1357D02*
X2558Y1357D01*
X0Y1356D02*
X7Y1356D01*
X2551Y1356D02*
X2558Y1356D01*
X0Y1355D02*
X7Y1355D01*
X2551Y1355D02*
X2558Y1355D01*
X0Y1354D02*
X7Y1354D01*
X2551Y1354D02*
X2558Y1354D01*
X0Y1353D02*
X7Y1353D01*
X2551Y1353D02*
X2558Y1353D01*
X0Y1352D02*
X7Y1352D01*
X2551Y1352D02*
X2558Y1352D01*
X0Y1351D02*
X7Y1351D01*
X2551Y1351D02*
X2558Y1351D01*
X0Y1350D02*
X7Y1350D01*
X2551Y1350D02*
X2558Y1350D01*
X0Y1349D02*
X7Y1349D01*
X2551Y1349D02*
X2558Y1349D01*
X0Y1348D02*
X7Y1348D01*
X2551Y1348D02*
X2558Y1348D01*
X0Y1347D02*
X7Y1347D01*
X2551Y1347D02*
X2558Y1347D01*
X0Y1346D02*
X7Y1346D01*
X2551Y1346D02*
X2558Y1346D01*
X0Y1345D02*
X7Y1345D01*
X2551Y1345D02*
X2558Y1345D01*
X0Y1344D02*
X7Y1344D01*
X2551Y1344D02*
X2558Y1344D01*
X0Y1343D02*
X7Y1343D01*
X2551Y1343D02*
X2558Y1343D01*
X0Y1342D02*
X7Y1342D01*
X2551Y1342D02*
X2558Y1342D01*
X0Y1341D02*
X7Y1341D01*
X2551Y1341D02*
X2558Y1341D01*
X0Y1340D02*
X7Y1340D01*
X2551Y1340D02*
X2558Y1340D01*
X0Y1339D02*
X7Y1339D01*
X2551Y1339D02*
X2558Y1339D01*
X0Y1338D02*
X7Y1338D01*
X2551Y1338D02*
X2558Y1338D01*
X0Y1337D02*
X7Y1337D01*
X2551Y1337D02*
X2558Y1337D01*
X0Y1336D02*
X7Y1336D01*
X2551Y1336D02*
X2558Y1336D01*
X0Y1335D02*
X7Y1335D01*
X2551Y1335D02*
X2558Y1335D01*
X0Y1334D02*
X7Y1334D01*
X2551Y1334D02*
X2558Y1334D01*
X0Y1333D02*
X7Y1333D01*
X2551Y1333D02*
X2558Y1333D01*
X0Y1332D02*
X7Y1332D01*
X2551Y1332D02*
X2558Y1332D01*
X0Y1331D02*
X7Y1331D01*
X2551Y1331D02*
X2558Y1331D01*
X0Y1330D02*
X7Y1330D01*
X2551Y1330D02*
X2558Y1330D01*
X0Y1329D02*
X7Y1329D01*
X2551Y1329D02*
X2558Y1329D01*
X0Y1328D02*
X7Y1328D01*
X2551Y1328D02*
X2558Y1328D01*
X0Y1327D02*
X7Y1327D01*
X2551Y1327D02*
X2558Y1327D01*
X0Y1326D02*
X7Y1326D01*
X2551Y1326D02*
X2558Y1326D01*
X0Y1325D02*
X7Y1325D01*
X2551Y1325D02*
X2558Y1325D01*
X0Y1324D02*
X7Y1324D01*
X2551Y1324D02*
X2558Y1324D01*
X0Y1323D02*
X7Y1323D01*
X2551Y1323D02*
X2558Y1323D01*
X0Y1322D02*
X7Y1322D01*
X2551Y1322D02*
X2558Y1322D01*
X0Y1321D02*
X7Y1321D01*
X2551Y1321D02*
X2558Y1321D01*
X0Y1320D02*
X7Y1320D01*
X2551Y1320D02*
X2558Y1320D01*
X0Y1319D02*
X7Y1319D01*
X2551Y1319D02*
X2558Y1319D01*
X0Y1318D02*
X7Y1318D01*
X2551Y1318D02*
X2558Y1318D01*
X0Y1317D02*
X7Y1317D01*
X2551Y1317D02*
X2558Y1317D01*
X0Y1316D02*
X7Y1316D01*
X2551Y1316D02*
X2558Y1316D01*
X0Y1315D02*
X7Y1315D01*
X2551Y1315D02*
X2558Y1315D01*
X0Y1314D02*
X7Y1314D01*
X2551Y1314D02*
X2558Y1314D01*
X0Y1313D02*
X7Y1313D01*
X2551Y1313D02*
X2558Y1313D01*
X0Y1312D02*
X7Y1312D01*
X2551Y1312D02*
X2558Y1312D01*
X0Y1311D02*
X7Y1311D01*
X2551Y1311D02*
X2558Y1311D01*
X0Y1310D02*
X7Y1310D01*
X2551Y1310D02*
X2558Y1310D01*
X0Y1309D02*
X7Y1309D01*
X2551Y1309D02*
X2558Y1309D01*
X0Y1308D02*
X7Y1308D01*
X2551Y1308D02*
X2558Y1308D01*
X0Y1307D02*
X7Y1307D01*
X2551Y1307D02*
X2558Y1307D01*
X0Y1306D02*
X7Y1306D01*
X2551Y1306D02*
X2558Y1306D01*
X0Y1305D02*
X7Y1305D01*
X2551Y1305D02*
X2558Y1305D01*
X0Y1304D02*
X7Y1304D01*
X2551Y1304D02*
X2558Y1304D01*
X0Y1303D02*
X7Y1303D01*
X2551Y1303D02*
X2558Y1303D01*
X0Y1302D02*
X7Y1302D01*
X2551Y1302D02*
X2558Y1302D01*
X0Y1301D02*
X7Y1301D01*
X2551Y1301D02*
X2558Y1301D01*
X0Y1300D02*
X7Y1300D01*
X2551Y1300D02*
X2558Y1300D01*
X0Y1299D02*
X7Y1299D01*
X2551Y1299D02*
X2558Y1299D01*
X0Y1298D02*
X7Y1298D01*
X2551Y1298D02*
X2558Y1298D01*
X0Y1297D02*
X7Y1297D01*
X2551Y1297D02*
X2558Y1297D01*
X0Y1296D02*
X7Y1296D01*
X2551Y1296D02*
X2558Y1296D01*
X0Y1295D02*
X7Y1295D01*
X2551Y1295D02*
X2558Y1295D01*
X0Y1294D02*
X7Y1294D01*
X2551Y1294D02*
X2558Y1294D01*
X0Y1293D02*
X7Y1293D01*
X2551Y1293D02*
X2558Y1293D01*
X0Y1292D02*
X7Y1292D01*
X2551Y1292D02*
X2558Y1292D01*
X0Y1291D02*
X7Y1291D01*
X2551Y1291D02*
X2558Y1291D01*
X0Y1290D02*
X7Y1290D01*
X2551Y1290D02*
X2558Y1290D01*
X0Y1289D02*
X7Y1289D01*
X2551Y1289D02*
X2558Y1289D01*
X0Y1288D02*
X7Y1288D01*
X2551Y1288D02*
X2558Y1288D01*
X0Y1287D02*
X7Y1287D01*
X2551Y1287D02*
X2558Y1287D01*
X0Y1286D02*
X7Y1286D01*
X2551Y1286D02*
X2558Y1286D01*
X0Y1285D02*
X7Y1285D01*
X2551Y1285D02*
X2558Y1285D01*
X0Y1284D02*
X7Y1284D01*
X2551Y1284D02*
X2558Y1284D01*
X0Y1283D02*
X7Y1283D01*
X2551Y1283D02*
X2558Y1283D01*
X0Y1282D02*
X7Y1282D01*
X2551Y1282D02*
X2558Y1282D01*
X0Y1281D02*
X7Y1281D01*
X2551Y1281D02*
X2558Y1281D01*
X0Y1280D02*
X7Y1280D01*
X2551Y1280D02*
X2558Y1280D01*
X0Y1279D02*
X7Y1279D01*
X2551Y1279D02*
X2558Y1279D01*
X0Y1278D02*
X7Y1278D01*
X2551Y1278D02*
X2558Y1278D01*
X0Y1277D02*
X7Y1277D01*
X2551Y1277D02*
X2558Y1277D01*
X0Y1276D02*
X7Y1276D01*
X2551Y1276D02*
X2558Y1276D01*
X0Y1275D02*
X7Y1275D01*
X2551Y1275D02*
X2558Y1275D01*
X0Y1274D02*
X7Y1274D01*
X2551Y1274D02*
X2558Y1274D01*
X0Y1273D02*
X7Y1273D01*
X2551Y1273D02*
X2558Y1273D01*
X0Y1272D02*
X7Y1272D01*
X2551Y1272D02*
X2558Y1272D01*
X0Y1271D02*
X7Y1271D01*
X2551Y1271D02*
X2558Y1271D01*
X0Y1270D02*
X7Y1270D01*
X2551Y1270D02*
X2558Y1270D01*
X0Y1269D02*
X7Y1269D01*
X2551Y1269D02*
X2558Y1269D01*
X0Y1268D02*
X7Y1268D01*
X2551Y1268D02*
X2558Y1268D01*
X0Y1267D02*
X7Y1267D01*
X2551Y1267D02*
X2558Y1267D01*
X0Y1266D02*
X7Y1266D01*
X2551Y1266D02*
X2558Y1266D01*
X0Y1265D02*
X7Y1265D01*
X2551Y1265D02*
X2558Y1265D01*
X0Y1264D02*
X7Y1264D01*
X2551Y1264D02*
X2558Y1264D01*
X0Y1263D02*
X7Y1263D01*
X2551Y1263D02*
X2558Y1263D01*
X0Y1262D02*
X7Y1262D01*
X2551Y1262D02*
X2558Y1262D01*
X0Y1261D02*
X7Y1261D01*
X2551Y1261D02*
X2558Y1261D01*
X0Y1260D02*
X7Y1260D01*
X2551Y1260D02*
X2558Y1260D01*
X0Y1259D02*
X7Y1259D01*
X2551Y1259D02*
X2558Y1259D01*
X0Y1258D02*
X7Y1258D01*
X2551Y1258D02*
X2558Y1258D01*
X0Y1257D02*
X7Y1257D01*
X2551Y1257D02*
X2558Y1257D01*
X0Y1256D02*
X7Y1256D01*
X2551Y1256D02*
X2558Y1256D01*
X0Y1255D02*
X7Y1255D01*
X2551Y1255D02*
X2558Y1255D01*
X0Y1254D02*
X7Y1254D01*
X2551Y1254D02*
X2558Y1254D01*
X0Y1253D02*
X7Y1253D01*
X2551Y1253D02*
X2558Y1253D01*
X0Y1252D02*
X7Y1252D01*
X2551Y1252D02*
X2558Y1252D01*
X0Y1251D02*
X7Y1251D01*
X2551Y1251D02*
X2558Y1251D01*
X0Y1250D02*
X7Y1250D01*
X2551Y1250D02*
X2558Y1250D01*
X0Y1249D02*
X7Y1249D01*
X2551Y1249D02*
X2558Y1249D01*
X0Y1248D02*
X7Y1248D01*
X2551Y1248D02*
X2558Y1248D01*
X0Y1247D02*
X7Y1247D01*
X2551Y1247D02*
X2558Y1247D01*
X0Y1246D02*
X7Y1246D01*
X2551Y1246D02*
X2558Y1246D01*
X0Y1245D02*
X7Y1245D01*
X2551Y1245D02*
X2558Y1245D01*
X0Y1244D02*
X7Y1244D01*
X2551Y1244D02*
X2558Y1244D01*
X0Y1243D02*
X7Y1243D01*
X2551Y1243D02*
X2558Y1243D01*
X0Y1242D02*
X7Y1242D01*
X2551Y1242D02*
X2558Y1242D01*
X0Y1241D02*
X7Y1241D01*
X2551Y1241D02*
X2558Y1241D01*
X0Y1240D02*
X7Y1240D01*
X2551Y1240D02*
X2558Y1240D01*
X0Y1239D02*
X7Y1239D01*
X2551Y1239D02*
X2558Y1239D01*
X0Y1238D02*
X7Y1238D01*
X2551Y1238D02*
X2558Y1238D01*
X0Y1237D02*
X7Y1237D01*
X2551Y1237D02*
X2558Y1237D01*
X0Y1236D02*
X7Y1236D01*
X2551Y1236D02*
X2558Y1236D01*
X0Y1235D02*
X7Y1235D01*
X2551Y1235D02*
X2558Y1235D01*
X0Y1234D02*
X7Y1234D01*
X2551Y1234D02*
X2558Y1234D01*
X0Y1233D02*
X7Y1233D01*
X2551Y1233D02*
X2558Y1233D01*
X0Y1232D02*
X7Y1232D01*
X2551Y1232D02*
X2558Y1232D01*
X0Y1231D02*
X7Y1231D01*
X2551Y1231D02*
X2558Y1231D01*
X0Y1230D02*
X7Y1230D01*
X2551Y1230D02*
X2558Y1230D01*
X0Y1229D02*
X7Y1229D01*
X2551Y1229D02*
X2558Y1229D01*
X0Y1228D02*
X7Y1228D01*
X2551Y1228D02*
X2558Y1228D01*
X0Y1227D02*
X7Y1227D01*
X2551Y1227D02*
X2558Y1227D01*
X0Y1226D02*
X7Y1226D01*
X2551Y1226D02*
X2558Y1226D01*
X0Y1225D02*
X7Y1225D01*
X2551Y1225D02*
X2558Y1225D01*
X0Y1224D02*
X7Y1224D01*
X2551Y1224D02*
X2558Y1224D01*
X0Y1223D02*
X7Y1223D01*
X2551Y1223D02*
X2558Y1223D01*
X0Y1222D02*
X7Y1222D01*
X2551Y1222D02*
X2558Y1222D01*
X0Y1221D02*
X7Y1221D01*
X2551Y1221D02*
X2558Y1221D01*
X0Y1220D02*
X7Y1220D01*
X2551Y1220D02*
X2558Y1220D01*
X0Y1219D02*
X7Y1219D01*
X2551Y1219D02*
X2558Y1219D01*
X0Y1218D02*
X7Y1218D01*
X2551Y1218D02*
X2558Y1218D01*
X0Y1217D02*
X7Y1217D01*
X2551Y1217D02*
X2558Y1217D01*
X0Y1216D02*
X7Y1216D01*
X2551Y1216D02*
X2558Y1216D01*
X0Y1215D02*
X7Y1215D01*
X2551Y1215D02*
X2558Y1215D01*
X0Y1214D02*
X7Y1214D01*
X2551Y1214D02*
X2558Y1214D01*
X0Y1213D02*
X7Y1213D01*
X2551Y1213D02*
X2558Y1213D01*
X0Y1212D02*
X7Y1212D01*
X2551Y1212D02*
X2558Y1212D01*
X0Y1211D02*
X7Y1211D01*
X2551Y1211D02*
X2558Y1211D01*
X0Y1210D02*
X7Y1210D01*
X2551Y1210D02*
X2558Y1210D01*
X0Y1209D02*
X7Y1209D01*
X2551Y1209D02*
X2558Y1209D01*
X0Y1208D02*
X7Y1208D01*
X2551Y1208D02*
X2558Y1208D01*
X0Y1207D02*
X7Y1207D01*
X2551Y1207D02*
X2558Y1207D01*
X0Y1206D02*
X7Y1206D01*
X2551Y1206D02*
X2558Y1206D01*
X0Y1205D02*
X7Y1205D01*
X2551Y1205D02*
X2558Y1205D01*
X0Y1204D02*
X7Y1204D01*
X2551Y1204D02*
X2558Y1204D01*
X0Y1203D02*
X7Y1203D01*
X2551Y1203D02*
X2558Y1203D01*
X0Y1202D02*
X7Y1202D01*
X2551Y1202D02*
X2558Y1202D01*
X0Y1201D02*
X7Y1201D01*
X2551Y1201D02*
X2558Y1201D01*
X0Y1200D02*
X7Y1200D01*
X2551Y1200D02*
X2558Y1200D01*
X0Y1199D02*
X7Y1199D01*
X2551Y1199D02*
X2558Y1199D01*
X0Y1198D02*
X7Y1198D01*
X2551Y1198D02*
X2558Y1198D01*
X0Y1197D02*
X7Y1197D01*
X2551Y1197D02*
X2558Y1197D01*
X0Y1196D02*
X7Y1196D01*
X2551Y1196D02*
X2558Y1196D01*
X0Y1195D02*
X7Y1195D01*
X2551Y1195D02*
X2558Y1195D01*
X0Y1194D02*
X7Y1194D01*
X2551Y1194D02*
X2558Y1194D01*
X0Y1193D02*
X7Y1193D01*
X2551Y1193D02*
X2558Y1193D01*
X0Y1192D02*
X7Y1192D01*
X2551Y1192D02*
X2558Y1192D01*
X0Y1191D02*
X7Y1191D01*
X2551Y1191D02*
X2558Y1191D01*
X0Y1190D02*
X7Y1190D01*
X2551Y1190D02*
X2558Y1190D01*
X0Y1189D02*
X7Y1189D01*
X2551Y1189D02*
X2558Y1189D01*
X0Y1188D02*
X7Y1188D01*
X2551Y1188D02*
X2558Y1188D01*
X0Y1187D02*
X7Y1187D01*
X2551Y1187D02*
X2558Y1187D01*
X0Y1186D02*
X7Y1186D01*
X2551Y1186D02*
X2558Y1186D01*
X0Y1185D02*
X7Y1185D01*
X2551Y1185D02*
X2558Y1185D01*
X0Y1184D02*
X7Y1184D01*
X2551Y1184D02*
X2558Y1184D01*
X0Y1183D02*
X7Y1183D01*
X2551Y1183D02*
X2558Y1183D01*
X0Y1182D02*
X7Y1182D01*
X2551Y1182D02*
X2558Y1182D01*
X0Y1181D02*
X7Y1181D01*
X2551Y1181D02*
X2558Y1181D01*
X0Y1180D02*
X7Y1180D01*
X2551Y1180D02*
X2558Y1180D01*
X0Y1179D02*
X7Y1179D01*
X2551Y1179D02*
X2558Y1179D01*
X0Y1178D02*
X7Y1178D01*
X2551Y1178D02*
X2558Y1178D01*
X0Y1177D02*
X7Y1177D01*
X2551Y1177D02*
X2558Y1177D01*
X0Y1176D02*
X7Y1176D01*
X2551Y1176D02*
X2558Y1176D01*
X0Y1175D02*
X7Y1175D01*
X2551Y1175D02*
X2558Y1175D01*
X0Y1174D02*
X7Y1174D01*
X2551Y1174D02*
X2558Y1174D01*
X0Y1173D02*
X7Y1173D01*
X2551Y1173D02*
X2558Y1173D01*
X0Y1172D02*
X7Y1172D01*
X2551Y1172D02*
X2558Y1172D01*
X0Y1171D02*
X7Y1171D01*
X2551Y1171D02*
X2558Y1171D01*
X0Y1170D02*
X7Y1170D01*
X2551Y1170D02*
X2558Y1170D01*
X0Y1169D02*
X7Y1169D01*
X2551Y1169D02*
X2558Y1169D01*
X0Y1168D02*
X7Y1168D01*
X2551Y1168D02*
X2558Y1168D01*
X0Y1167D02*
X7Y1167D01*
X2551Y1167D02*
X2558Y1167D01*
X0Y1166D02*
X7Y1166D01*
X2551Y1166D02*
X2558Y1166D01*
X0Y1165D02*
X7Y1165D01*
X2551Y1165D02*
X2558Y1165D01*
X0Y1164D02*
X7Y1164D01*
X2551Y1164D02*
X2558Y1164D01*
X0Y1163D02*
X7Y1163D01*
X2551Y1163D02*
X2558Y1163D01*
X0Y1162D02*
X7Y1162D01*
X2551Y1162D02*
X2558Y1162D01*
X0Y1161D02*
X7Y1161D01*
X2551Y1161D02*
X2558Y1161D01*
X0Y1160D02*
X7Y1160D01*
X2551Y1160D02*
X2558Y1160D01*
X0Y1159D02*
X7Y1159D01*
X2551Y1159D02*
X2558Y1159D01*
X0Y1158D02*
X7Y1158D01*
X2551Y1158D02*
X2558Y1158D01*
X0Y1157D02*
X7Y1157D01*
X2551Y1157D02*
X2558Y1157D01*
X0Y1156D02*
X7Y1156D01*
X2551Y1156D02*
X2558Y1156D01*
X0Y1155D02*
X7Y1155D01*
X2551Y1155D02*
X2558Y1155D01*
X0Y1154D02*
X7Y1154D01*
X2551Y1154D02*
X2558Y1154D01*
X0Y1153D02*
X7Y1153D01*
X2551Y1153D02*
X2558Y1153D01*
X0Y1152D02*
X7Y1152D01*
X2551Y1152D02*
X2558Y1152D01*
X0Y1151D02*
X7Y1151D01*
X2551Y1151D02*
X2558Y1151D01*
X0Y1150D02*
X7Y1150D01*
X2551Y1150D02*
X2558Y1150D01*
X0Y1149D02*
X7Y1149D01*
X2551Y1149D02*
X2558Y1149D01*
X0Y1148D02*
X7Y1148D01*
X2551Y1148D02*
X2558Y1148D01*
X0Y1147D02*
X7Y1147D01*
X2551Y1147D02*
X2558Y1147D01*
X0Y1146D02*
X7Y1146D01*
X2551Y1146D02*
X2558Y1146D01*
X0Y1145D02*
X7Y1145D01*
X2551Y1145D02*
X2558Y1145D01*
X0Y1144D02*
X7Y1144D01*
X2551Y1144D02*
X2558Y1144D01*
X0Y1143D02*
X7Y1143D01*
X2551Y1143D02*
X2558Y1143D01*
X0Y1142D02*
X7Y1142D01*
X2551Y1142D02*
X2558Y1142D01*
X0Y1141D02*
X7Y1141D01*
X2551Y1141D02*
X2558Y1141D01*
X0Y1140D02*
X7Y1140D01*
X2551Y1140D02*
X2558Y1140D01*
X0Y1139D02*
X7Y1139D01*
X2551Y1139D02*
X2558Y1139D01*
X0Y1138D02*
X7Y1138D01*
X2551Y1138D02*
X2558Y1138D01*
X0Y1137D02*
X7Y1137D01*
X2551Y1137D02*
X2558Y1137D01*
X0Y1136D02*
X7Y1136D01*
X2551Y1136D02*
X2558Y1136D01*
X0Y1135D02*
X7Y1135D01*
X2551Y1135D02*
X2558Y1135D01*
X0Y1134D02*
X7Y1134D01*
X2551Y1134D02*
X2558Y1134D01*
X0Y1133D02*
X7Y1133D01*
X2551Y1133D02*
X2558Y1133D01*
X0Y1132D02*
X7Y1132D01*
X2551Y1132D02*
X2558Y1132D01*
X0Y1131D02*
X7Y1131D01*
X2551Y1131D02*
X2558Y1131D01*
X0Y1130D02*
X7Y1130D01*
X2551Y1130D02*
X2558Y1130D01*
X0Y1129D02*
X7Y1129D01*
X2551Y1129D02*
X2558Y1129D01*
X0Y1128D02*
X7Y1128D01*
X2551Y1128D02*
X2558Y1128D01*
X0Y1127D02*
X7Y1127D01*
X2551Y1127D02*
X2558Y1127D01*
X0Y1126D02*
X7Y1126D01*
X2551Y1126D02*
X2558Y1126D01*
X0Y1125D02*
X7Y1125D01*
X2551Y1125D02*
X2558Y1125D01*
X0Y1124D02*
X7Y1124D01*
X2551Y1124D02*
X2558Y1124D01*
X0Y1123D02*
X7Y1123D01*
X2551Y1123D02*
X2558Y1123D01*
X0Y1122D02*
X7Y1122D01*
X2551Y1122D02*
X2558Y1122D01*
X0Y1121D02*
X7Y1121D01*
X2551Y1121D02*
X2558Y1121D01*
X0Y1120D02*
X7Y1120D01*
X2551Y1120D02*
X2558Y1120D01*
X0Y1119D02*
X7Y1119D01*
X2551Y1119D02*
X2558Y1119D01*
X0Y1118D02*
X7Y1118D01*
X2551Y1118D02*
X2558Y1118D01*
X0Y1117D02*
X7Y1117D01*
X2551Y1117D02*
X2558Y1117D01*
X0Y1116D02*
X7Y1116D01*
X2551Y1116D02*
X2558Y1116D01*
X0Y1115D02*
X7Y1115D01*
X2551Y1115D02*
X2558Y1115D01*
X0Y1114D02*
X7Y1114D01*
X2551Y1114D02*
X2558Y1114D01*
X0Y1113D02*
X7Y1113D01*
X2551Y1113D02*
X2558Y1113D01*
X0Y1112D02*
X7Y1112D01*
X2551Y1112D02*
X2558Y1112D01*
X0Y1111D02*
X7Y1111D01*
X2551Y1111D02*
X2558Y1111D01*
X0Y1110D02*
X7Y1110D01*
X2551Y1110D02*
X2558Y1110D01*
X0Y1109D02*
X7Y1109D01*
X2551Y1109D02*
X2558Y1109D01*
X0Y1108D02*
X7Y1108D01*
X2551Y1108D02*
X2558Y1108D01*
X0Y1107D02*
X7Y1107D01*
X2551Y1107D02*
X2558Y1107D01*
X0Y1106D02*
X7Y1106D01*
X2551Y1106D02*
X2558Y1106D01*
X0Y1105D02*
X7Y1105D01*
X2551Y1105D02*
X2558Y1105D01*
X0Y1104D02*
X7Y1104D01*
X2551Y1104D02*
X2558Y1104D01*
X0Y1103D02*
X7Y1103D01*
X2551Y1103D02*
X2558Y1103D01*
X0Y1102D02*
X7Y1102D01*
X2551Y1102D02*
X2558Y1102D01*
X0Y1101D02*
X7Y1101D01*
X2551Y1101D02*
X2558Y1101D01*
X0Y1100D02*
X7Y1100D01*
X2551Y1100D02*
X2558Y1100D01*
X0Y1099D02*
X7Y1099D01*
X2551Y1099D02*
X2558Y1099D01*
X0Y1098D02*
X7Y1098D01*
X2551Y1098D02*
X2558Y1098D01*
X0Y1097D02*
X7Y1097D01*
X2551Y1097D02*
X2558Y1097D01*
X0Y1096D02*
X7Y1096D01*
X2551Y1096D02*
X2558Y1096D01*
X0Y1095D02*
X7Y1095D01*
X2551Y1095D02*
X2558Y1095D01*
X0Y1094D02*
X7Y1094D01*
X2551Y1094D02*
X2558Y1094D01*
X0Y1093D02*
X7Y1093D01*
X2551Y1093D02*
X2558Y1093D01*
X0Y1092D02*
X7Y1092D01*
X2551Y1092D02*
X2558Y1092D01*
X0Y1091D02*
X7Y1091D01*
X2551Y1091D02*
X2558Y1091D01*
X0Y1090D02*
X7Y1090D01*
X2551Y1090D02*
X2558Y1090D01*
X0Y1089D02*
X7Y1089D01*
X2551Y1089D02*
X2558Y1089D01*
X0Y1088D02*
X7Y1088D01*
X2551Y1088D02*
X2558Y1088D01*
X0Y1087D02*
X7Y1087D01*
X2551Y1087D02*
X2558Y1087D01*
X0Y1086D02*
X7Y1086D01*
X2551Y1086D02*
X2558Y1086D01*
X0Y1085D02*
X7Y1085D01*
X2551Y1085D02*
X2558Y1085D01*
X0Y1084D02*
X7Y1084D01*
X2551Y1084D02*
X2558Y1084D01*
X0Y1083D02*
X7Y1083D01*
X2551Y1083D02*
X2558Y1083D01*
X0Y1082D02*
X7Y1082D01*
X2551Y1082D02*
X2558Y1082D01*
X0Y1081D02*
X7Y1081D01*
X2551Y1081D02*
X2558Y1081D01*
X0Y1080D02*
X7Y1080D01*
X2551Y1080D02*
X2558Y1080D01*
X0Y1079D02*
X7Y1079D01*
X2551Y1079D02*
X2558Y1079D01*
X0Y1078D02*
X7Y1078D01*
X2551Y1078D02*
X2558Y1078D01*
X0Y1077D02*
X7Y1077D01*
X2551Y1077D02*
X2558Y1077D01*
X0Y1076D02*
X7Y1076D01*
X2551Y1076D02*
X2558Y1076D01*
X0Y1075D02*
X7Y1075D01*
X2551Y1075D02*
X2558Y1075D01*
X0Y1074D02*
X7Y1074D01*
X2551Y1074D02*
X2558Y1074D01*
X0Y1073D02*
X7Y1073D01*
X2551Y1073D02*
X2558Y1073D01*
X0Y1072D02*
X7Y1072D01*
X2551Y1072D02*
X2558Y1072D01*
X0Y1071D02*
X7Y1071D01*
X2551Y1071D02*
X2558Y1071D01*
X0Y1070D02*
X7Y1070D01*
X2551Y1070D02*
X2558Y1070D01*
X0Y1069D02*
X7Y1069D01*
X2551Y1069D02*
X2558Y1069D01*
X0Y1068D02*
X7Y1068D01*
X2551Y1068D02*
X2558Y1068D01*
X0Y1067D02*
X7Y1067D01*
X2551Y1067D02*
X2558Y1067D01*
X0Y1066D02*
X7Y1066D01*
X2551Y1066D02*
X2558Y1066D01*
X0Y1065D02*
X7Y1065D01*
X2551Y1065D02*
X2558Y1065D01*
X0Y1064D02*
X7Y1064D01*
X2551Y1064D02*
X2558Y1064D01*
X0Y1063D02*
X7Y1063D01*
X2551Y1063D02*
X2558Y1063D01*
X0Y1062D02*
X7Y1062D01*
X2551Y1062D02*
X2558Y1062D01*
X0Y1061D02*
X7Y1061D01*
X2551Y1061D02*
X2558Y1061D01*
X0Y1060D02*
X7Y1060D01*
X2551Y1060D02*
X2558Y1060D01*
X0Y1059D02*
X7Y1059D01*
X2551Y1059D02*
X2558Y1059D01*
X0Y1058D02*
X7Y1058D01*
X2551Y1058D02*
X2558Y1058D01*
X0Y1057D02*
X7Y1057D01*
X2551Y1057D02*
X2558Y1057D01*
X0Y1056D02*
X7Y1056D01*
X2551Y1056D02*
X2558Y1056D01*
X0Y1055D02*
X7Y1055D01*
X2551Y1055D02*
X2558Y1055D01*
X0Y1054D02*
X7Y1054D01*
X2551Y1054D02*
X2558Y1054D01*
X0Y1053D02*
X7Y1053D01*
X2551Y1053D02*
X2558Y1053D01*
X0Y1052D02*
X7Y1052D01*
X2551Y1052D02*
X2558Y1052D01*
X0Y1051D02*
X7Y1051D01*
X2551Y1051D02*
X2558Y1051D01*
X0Y1050D02*
X7Y1050D01*
X2551Y1050D02*
X2558Y1050D01*
X0Y1049D02*
X7Y1049D01*
X2551Y1049D02*
X2558Y1049D01*
X0Y1048D02*
X7Y1048D01*
X2551Y1048D02*
X2558Y1048D01*
X0Y1047D02*
X7Y1047D01*
X2551Y1047D02*
X2558Y1047D01*
X0Y1046D02*
X7Y1046D01*
X2551Y1046D02*
X2558Y1046D01*
X0Y1045D02*
X7Y1045D01*
X2551Y1045D02*
X2558Y1045D01*
X0Y1044D02*
X7Y1044D01*
X2551Y1044D02*
X2558Y1044D01*
X0Y1043D02*
X7Y1043D01*
X2551Y1043D02*
X2558Y1043D01*
X0Y1042D02*
X7Y1042D01*
X2551Y1042D02*
X2558Y1042D01*
X0Y1041D02*
X7Y1041D01*
X2551Y1041D02*
X2558Y1041D01*
X0Y1040D02*
X7Y1040D01*
X2551Y1040D02*
X2558Y1040D01*
X0Y1039D02*
X7Y1039D01*
X2551Y1039D02*
X2558Y1039D01*
X0Y1038D02*
X7Y1038D01*
X2551Y1038D02*
X2558Y1038D01*
X0Y1037D02*
X7Y1037D01*
X2551Y1037D02*
X2558Y1037D01*
X0Y1036D02*
X7Y1036D01*
X2551Y1036D02*
X2558Y1036D01*
X0Y1035D02*
X7Y1035D01*
X2551Y1035D02*
X2558Y1035D01*
X0Y1034D02*
X7Y1034D01*
X2551Y1034D02*
X2558Y1034D01*
X0Y1033D02*
X7Y1033D01*
X2551Y1033D02*
X2558Y1033D01*
X0Y1032D02*
X7Y1032D01*
X2551Y1032D02*
X2558Y1032D01*
X0Y1031D02*
X7Y1031D01*
X2551Y1031D02*
X2558Y1031D01*
X0Y1030D02*
X7Y1030D01*
X2551Y1030D02*
X2558Y1030D01*
X0Y1029D02*
X7Y1029D01*
X2551Y1029D02*
X2558Y1029D01*
X0Y1028D02*
X7Y1028D01*
X2551Y1028D02*
X2558Y1028D01*
X0Y1027D02*
X7Y1027D01*
X2551Y1027D02*
X2558Y1027D01*
X0Y1026D02*
X7Y1026D01*
X2551Y1026D02*
X2558Y1026D01*
X0Y1025D02*
X7Y1025D01*
X2551Y1025D02*
X2558Y1025D01*
X0Y1024D02*
X7Y1024D01*
X2551Y1024D02*
X2558Y1024D01*
X0Y1023D02*
X7Y1023D01*
X2551Y1023D02*
X2558Y1023D01*
X0Y1022D02*
X7Y1022D01*
X2551Y1022D02*
X2558Y1022D01*
X0Y1021D02*
X7Y1021D01*
X2551Y1021D02*
X2558Y1021D01*
X0Y1020D02*
X7Y1020D01*
X2551Y1020D02*
X2558Y1020D01*
X0Y1019D02*
X7Y1019D01*
X2551Y1019D02*
X2558Y1019D01*
X0Y1018D02*
X7Y1018D01*
X2551Y1018D02*
X2558Y1018D01*
X0Y1017D02*
X7Y1017D01*
X2551Y1017D02*
X2558Y1017D01*
X0Y1016D02*
X7Y1016D01*
X2551Y1016D02*
X2558Y1016D01*
X0Y1015D02*
X7Y1015D01*
X2551Y1015D02*
X2558Y1015D01*
X0Y1014D02*
X7Y1014D01*
X2551Y1014D02*
X2558Y1014D01*
X0Y1013D02*
X7Y1013D01*
X2551Y1013D02*
X2558Y1013D01*
X0Y1012D02*
X7Y1012D01*
X2551Y1012D02*
X2558Y1012D01*
X0Y1011D02*
X7Y1011D01*
X2551Y1011D02*
X2558Y1011D01*
X0Y1010D02*
X7Y1010D01*
X2551Y1010D02*
X2558Y1010D01*
X0Y1009D02*
X7Y1009D01*
X2551Y1009D02*
X2558Y1009D01*
X0Y1008D02*
X7Y1008D01*
X2551Y1008D02*
X2558Y1008D01*
X0Y1007D02*
X7Y1007D01*
X2551Y1007D02*
X2558Y1007D01*
X0Y1006D02*
X7Y1006D01*
X2551Y1006D02*
X2558Y1006D01*
X0Y1005D02*
X7Y1005D01*
X2551Y1005D02*
X2558Y1005D01*
X0Y1004D02*
X7Y1004D01*
X2551Y1004D02*
X2558Y1004D01*
X0Y1003D02*
X7Y1003D01*
X2551Y1003D02*
X2558Y1003D01*
X0Y1002D02*
X7Y1002D01*
X2551Y1002D02*
X2558Y1002D01*
X0Y1001D02*
X7Y1001D01*
X2551Y1001D02*
X2558Y1001D01*
X0Y1000D02*
X7Y1000D01*
X2551Y1000D02*
X2558Y1000D01*
X0Y999D02*
X7Y999D01*
X2551Y999D02*
X2558Y999D01*
X0Y998D02*
X7Y998D01*
X2551Y998D02*
X2558Y998D01*
X0Y997D02*
X7Y997D01*
X2551Y997D02*
X2558Y997D01*
X0Y996D02*
X7Y996D01*
X2551Y996D02*
X2558Y996D01*
X0Y995D02*
X7Y995D01*
X2551Y995D02*
X2558Y995D01*
X0Y994D02*
X7Y994D01*
X2551Y994D02*
X2558Y994D01*
X0Y993D02*
X7Y993D01*
X2551Y993D02*
X2558Y993D01*
X0Y992D02*
X7Y992D01*
X2551Y992D02*
X2558Y992D01*
X0Y991D02*
X7Y991D01*
X2551Y991D02*
X2558Y991D01*
X0Y990D02*
X7Y990D01*
X2551Y990D02*
X2558Y990D01*
X0Y989D02*
X7Y989D01*
X2551Y989D02*
X2558Y989D01*
X0Y988D02*
X7Y988D01*
X2551Y988D02*
X2558Y988D01*
X0Y987D02*
X7Y987D01*
X2551Y987D02*
X2558Y987D01*
X0Y986D02*
X7Y986D01*
X2551Y986D02*
X2558Y986D01*
X0Y985D02*
X7Y985D01*
X2551Y985D02*
X2558Y985D01*
X0Y984D02*
X7Y984D01*
X2551Y984D02*
X2558Y984D01*
X0Y983D02*
X7Y983D01*
X2551Y983D02*
X2558Y983D01*
X0Y982D02*
X7Y982D01*
X2551Y982D02*
X2558Y982D01*
X0Y981D02*
X7Y981D01*
X2551Y981D02*
X2558Y981D01*
X0Y980D02*
X7Y980D01*
X2551Y980D02*
X2558Y980D01*
X0Y979D02*
X7Y979D01*
X2551Y979D02*
X2558Y979D01*
X0Y978D02*
X7Y978D01*
X2551Y978D02*
X2558Y978D01*
X0Y977D02*
X7Y977D01*
X2551Y977D02*
X2558Y977D01*
X0Y976D02*
X7Y976D01*
X2551Y976D02*
X2558Y976D01*
X0Y975D02*
X7Y975D01*
X2551Y975D02*
X2558Y975D01*
X0Y974D02*
X7Y974D01*
X2551Y974D02*
X2558Y974D01*
X0Y973D02*
X7Y973D01*
X2551Y973D02*
X2558Y973D01*
X0Y972D02*
X7Y972D01*
X2551Y972D02*
X2558Y972D01*
X0Y971D02*
X7Y971D01*
X2551Y971D02*
X2558Y971D01*
X0Y970D02*
X7Y970D01*
X2551Y970D02*
X2558Y970D01*
X0Y969D02*
X7Y969D01*
X2551Y969D02*
X2558Y969D01*
X0Y968D02*
X7Y968D01*
X2551Y968D02*
X2558Y968D01*
X0Y967D02*
X7Y967D01*
X2551Y967D02*
X2558Y967D01*
X0Y966D02*
X7Y966D01*
X2551Y966D02*
X2558Y966D01*
X0Y965D02*
X7Y965D01*
X2551Y965D02*
X2558Y965D01*
X0Y964D02*
X7Y964D01*
X2551Y964D02*
X2558Y964D01*
X0Y963D02*
X7Y963D01*
X2551Y963D02*
X2558Y963D01*
X0Y962D02*
X7Y962D01*
X2551Y962D02*
X2558Y962D01*
X0Y961D02*
X7Y961D01*
X2551Y961D02*
X2558Y961D01*
X0Y960D02*
X7Y960D01*
X2551Y960D02*
X2558Y960D01*
X0Y959D02*
X7Y959D01*
X2551Y959D02*
X2558Y959D01*
X0Y958D02*
X7Y958D01*
X2551Y958D02*
X2558Y958D01*
X0Y957D02*
X7Y957D01*
X2551Y957D02*
X2558Y957D01*
X0Y956D02*
X7Y956D01*
X2551Y956D02*
X2558Y956D01*
X0Y955D02*
X7Y955D01*
X2551Y955D02*
X2558Y955D01*
X0Y954D02*
X7Y954D01*
X2551Y954D02*
X2558Y954D01*
X0Y953D02*
X7Y953D01*
X2551Y953D02*
X2558Y953D01*
X0Y952D02*
X7Y952D01*
X2551Y952D02*
X2558Y952D01*
X0Y951D02*
X7Y951D01*
X2551Y951D02*
X2558Y951D01*
X0Y950D02*
X7Y950D01*
X2551Y950D02*
X2558Y950D01*
X0Y949D02*
X7Y949D01*
X2551Y949D02*
X2558Y949D01*
X0Y948D02*
X7Y948D01*
X2551Y948D02*
X2558Y948D01*
X0Y947D02*
X7Y947D01*
X2551Y947D02*
X2558Y947D01*
X0Y946D02*
X7Y946D01*
X2551Y946D02*
X2558Y946D01*
X0Y945D02*
X7Y945D01*
X2551Y945D02*
X2558Y945D01*
X0Y944D02*
X7Y944D01*
X2551Y944D02*
X2558Y944D01*
X0Y943D02*
X7Y943D01*
X2551Y943D02*
X2558Y943D01*
X0Y942D02*
X7Y942D01*
X2551Y942D02*
X2558Y942D01*
X0Y941D02*
X7Y941D01*
X2551Y941D02*
X2558Y941D01*
X0Y940D02*
X7Y940D01*
X2551Y940D02*
X2558Y940D01*
X0Y939D02*
X7Y939D01*
X2551Y939D02*
X2558Y939D01*
X0Y938D02*
X7Y938D01*
X2551Y938D02*
X2558Y938D01*
X0Y937D02*
X7Y937D01*
X2551Y937D02*
X2558Y937D01*
X0Y936D02*
X7Y936D01*
X2551Y936D02*
X2558Y936D01*
X0Y935D02*
X7Y935D01*
X2551Y935D02*
X2558Y935D01*
X0Y934D02*
X7Y934D01*
X2551Y934D02*
X2558Y934D01*
X0Y933D02*
X7Y933D01*
X2551Y933D02*
X2558Y933D01*
X0Y932D02*
X7Y932D01*
X2551Y932D02*
X2558Y932D01*
X0Y931D02*
X7Y931D01*
X2551Y931D02*
X2558Y931D01*
X0Y930D02*
X7Y930D01*
X2551Y930D02*
X2558Y930D01*
X0Y929D02*
X7Y929D01*
X2551Y929D02*
X2558Y929D01*
X0Y928D02*
X7Y928D01*
X2551Y928D02*
X2558Y928D01*
X0Y927D02*
X7Y927D01*
X2551Y927D02*
X2558Y927D01*
X0Y926D02*
X7Y926D01*
X2551Y926D02*
X2558Y926D01*
X0Y925D02*
X7Y925D01*
X2551Y925D02*
X2558Y925D01*
X0Y924D02*
X7Y924D01*
X2551Y924D02*
X2558Y924D01*
X0Y923D02*
X7Y923D01*
X2551Y923D02*
X2558Y923D01*
X0Y922D02*
X7Y922D01*
X2551Y922D02*
X2558Y922D01*
X0Y921D02*
X7Y921D01*
X2551Y921D02*
X2558Y921D01*
X0Y920D02*
X7Y920D01*
X2551Y920D02*
X2558Y920D01*
X0Y919D02*
X7Y919D01*
X2551Y919D02*
X2558Y919D01*
X0Y918D02*
X7Y918D01*
X2551Y918D02*
X2558Y918D01*
X0Y917D02*
X7Y917D01*
X2551Y917D02*
X2558Y917D01*
X0Y916D02*
X7Y916D01*
X2551Y916D02*
X2558Y916D01*
X0Y915D02*
X7Y915D01*
X2551Y915D02*
X2558Y915D01*
X0Y914D02*
X7Y914D01*
X2551Y914D02*
X2558Y914D01*
X0Y913D02*
X7Y913D01*
X2551Y913D02*
X2558Y913D01*
X0Y912D02*
X7Y912D01*
X2551Y912D02*
X2558Y912D01*
X0Y911D02*
X7Y911D01*
X2551Y911D02*
X2558Y911D01*
X0Y910D02*
X7Y910D01*
X2551Y910D02*
X2558Y910D01*
X0Y909D02*
X7Y909D01*
X2551Y909D02*
X2558Y909D01*
X0Y908D02*
X7Y908D01*
X2551Y908D02*
X2558Y908D01*
X0Y907D02*
X7Y907D01*
X2551Y907D02*
X2558Y907D01*
X0Y906D02*
X7Y906D01*
X2551Y906D02*
X2558Y906D01*
X0Y905D02*
X7Y905D01*
X2551Y905D02*
X2558Y905D01*
X0Y904D02*
X7Y904D01*
X2551Y904D02*
X2558Y904D01*
X0Y903D02*
X7Y903D01*
X2551Y903D02*
X2558Y903D01*
X0Y902D02*
X7Y902D01*
X2551Y902D02*
X2558Y902D01*
X0Y901D02*
X7Y901D01*
X2551Y901D02*
X2558Y901D01*
X0Y900D02*
X7Y900D01*
X2551Y900D02*
X2558Y900D01*
X0Y899D02*
X7Y899D01*
X2551Y899D02*
X2558Y899D01*
X0Y898D02*
X7Y898D01*
X2551Y898D02*
X2558Y898D01*
X0Y897D02*
X7Y897D01*
X2551Y897D02*
X2558Y897D01*
X0Y896D02*
X7Y896D01*
X2551Y896D02*
X2558Y896D01*
X0Y895D02*
X7Y895D01*
X2551Y895D02*
X2558Y895D01*
X0Y894D02*
X7Y894D01*
X2551Y894D02*
X2558Y894D01*
X0Y893D02*
X7Y893D01*
X2551Y893D02*
X2558Y893D01*
X0Y892D02*
X7Y892D01*
X2551Y892D02*
X2558Y892D01*
X0Y891D02*
X7Y891D01*
X2551Y891D02*
X2558Y891D01*
X0Y890D02*
X7Y890D01*
X2551Y890D02*
X2558Y890D01*
X0Y889D02*
X7Y889D01*
X2551Y889D02*
X2558Y889D01*
X0Y888D02*
X7Y888D01*
X2551Y888D02*
X2558Y888D01*
X0Y887D02*
X7Y887D01*
X2551Y887D02*
X2558Y887D01*
X0Y886D02*
X7Y886D01*
X2551Y886D02*
X2558Y886D01*
X0Y885D02*
X7Y885D01*
X2551Y885D02*
X2558Y885D01*
X0Y884D02*
X7Y884D01*
X2551Y884D02*
X2558Y884D01*
X0Y883D02*
X7Y883D01*
X2551Y883D02*
X2558Y883D01*
X0Y882D02*
X7Y882D01*
X2551Y882D02*
X2558Y882D01*
X0Y881D02*
X7Y881D01*
X2551Y881D02*
X2558Y881D01*
X0Y880D02*
X7Y880D01*
X2551Y880D02*
X2558Y880D01*
X0Y879D02*
X7Y879D01*
X2551Y879D02*
X2558Y879D01*
X0Y878D02*
X7Y878D01*
X2551Y878D02*
X2558Y878D01*
X0Y877D02*
X7Y877D01*
X2551Y877D02*
X2558Y877D01*
X0Y876D02*
X7Y876D01*
X2551Y876D02*
X2558Y876D01*
X0Y875D02*
X7Y875D01*
X2551Y875D02*
X2558Y875D01*
X0Y874D02*
X7Y874D01*
X2551Y874D02*
X2558Y874D01*
X0Y873D02*
X7Y873D01*
X2551Y873D02*
X2558Y873D01*
X0Y872D02*
X7Y872D01*
X2551Y872D02*
X2558Y872D01*
X0Y871D02*
X7Y871D01*
X2551Y871D02*
X2558Y871D01*
X0Y870D02*
X7Y870D01*
X2551Y870D02*
X2558Y870D01*
X0Y869D02*
X7Y869D01*
X2551Y869D02*
X2558Y869D01*
X0Y868D02*
X7Y868D01*
X2551Y868D02*
X2558Y868D01*
X0Y867D02*
X7Y867D01*
X2551Y867D02*
X2558Y867D01*
X0Y866D02*
X7Y866D01*
X2551Y866D02*
X2558Y866D01*
X0Y865D02*
X7Y865D01*
X2551Y865D02*
X2558Y865D01*
X0Y864D02*
X7Y864D01*
X2551Y864D02*
X2558Y864D01*
X0Y863D02*
X7Y863D01*
X2551Y863D02*
X2558Y863D01*
X0Y862D02*
X7Y862D01*
X2551Y862D02*
X2558Y862D01*
X0Y861D02*
X7Y861D01*
X2551Y861D02*
X2558Y861D01*
X0Y860D02*
X7Y860D01*
X2551Y860D02*
X2558Y860D01*
X0Y859D02*
X7Y859D01*
X2551Y859D02*
X2558Y859D01*
X0Y858D02*
X7Y858D01*
X2551Y858D02*
X2558Y858D01*
X0Y857D02*
X7Y857D01*
X2551Y857D02*
X2558Y857D01*
X0Y856D02*
X7Y856D01*
X2551Y856D02*
X2558Y856D01*
X0Y855D02*
X7Y855D01*
X2551Y855D02*
X2558Y855D01*
X0Y854D02*
X7Y854D01*
X2551Y854D02*
X2558Y854D01*
X0Y853D02*
X7Y853D01*
X2551Y853D02*
X2558Y853D01*
X0Y852D02*
X7Y852D01*
X2551Y852D02*
X2558Y852D01*
X0Y851D02*
X7Y851D01*
X2551Y851D02*
X2558Y851D01*
X0Y850D02*
X7Y850D01*
X2551Y850D02*
X2558Y850D01*
X0Y849D02*
X7Y849D01*
X2551Y849D02*
X2558Y849D01*
X0Y848D02*
X7Y848D01*
X2551Y848D02*
X2558Y848D01*
X0Y847D02*
X7Y847D01*
X2551Y847D02*
X2558Y847D01*
X0Y846D02*
X7Y846D01*
X2551Y846D02*
X2558Y846D01*
X0Y845D02*
X7Y845D01*
X2551Y845D02*
X2558Y845D01*
X0Y844D02*
X7Y844D01*
X2551Y844D02*
X2558Y844D01*
X0Y843D02*
X7Y843D01*
X2551Y843D02*
X2558Y843D01*
X0Y842D02*
X7Y842D01*
X2551Y842D02*
X2558Y842D01*
X0Y841D02*
X7Y841D01*
X2551Y841D02*
X2558Y841D01*
X0Y840D02*
X7Y840D01*
X2551Y840D02*
X2558Y840D01*
X0Y839D02*
X7Y839D01*
X2551Y839D02*
X2558Y839D01*
X0Y838D02*
X7Y838D01*
X2551Y838D02*
X2558Y838D01*
X0Y837D02*
X7Y837D01*
X2551Y837D02*
X2558Y837D01*
X0Y836D02*
X7Y836D01*
X2551Y836D02*
X2558Y836D01*
X0Y835D02*
X7Y835D01*
X2551Y835D02*
X2558Y835D01*
X0Y834D02*
X7Y834D01*
X2551Y834D02*
X2558Y834D01*
X0Y833D02*
X7Y833D01*
X2551Y833D02*
X2558Y833D01*
X0Y832D02*
X7Y832D01*
X2551Y832D02*
X2558Y832D01*
X0Y831D02*
X7Y831D01*
X2551Y831D02*
X2558Y831D01*
X0Y830D02*
X7Y830D01*
X2551Y830D02*
X2558Y830D01*
X0Y829D02*
X7Y829D01*
X2551Y829D02*
X2558Y829D01*
X0Y828D02*
X7Y828D01*
X2551Y828D02*
X2558Y828D01*
X0Y827D02*
X7Y827D01*
X2551Y827D02*
X2558Y827D01*
X0Y826D02*
X7Y826D01*
X2551Y826D02*
X2558Y826D01*
X0Y825D02*
X7Y825D01*
X2551Y825D02*
X2558Y825D01*
X0Y824D02*
X7Y824D01*
X2551Y824D02*
X2558Y824D01*
X0Y823D02*
X7Y823D01*
X2551Y823D02*
X2558Y823D01*
X0Y822D02*
X7Y822D01*
X2551Y822D02*
X2558Y822D01*
X0Y821D02*
X7Y821D01*
X2551Y821D02*
X2558Y821D01*
X0Y820D02*
X7Y820D01*
X2551Y820D02*
X2558Y820D01*
X0Y819D02*
X7Y819D01*
X2551Y819D02*
X2558Y819D01*
X0Y818D02*
X7Y818D01*
X2551Y818D02*
X2558Y818D01*
X0Y817D02*
X7Y817D01*
X2551Y817D02*
X2558Y817D01*
X0Y816D02*
X7Y816D01*
X2551Y816D02*
X2558Y816D01*
X0Y815D02*
X7Y815D01*
X2551Y815D02*
X2558Y815D01*
X0Y814D02*
X7Y814D01*
X2551Y814D02*
X2558Y814D01*
X0Y813D02*
X7Y813D01*
X2551Y813D02*
X2558Y813D01*
X0Y812D02*
X7Y812D01*
X2551Y812D02*
X2558Y812D01*
X0Y811D02*
X7Y811D01*
X2551Y811D02*
X2558Y811D01*
X0Y810D02*
X7Y810D01*
X2551Y810D02*
X2558Y810D01*
X0Y809D02*
X7Y809D01*
X2551Y809D02*
X2558Y809D01*
X0Y808D02*
X7Y808D01*
X2551Y808D02*
X2558Y808D01*
X0Y807D02*
X7Y807D01*
X2551Y807D02*
X2558Y807D01*
X0Y806D02*
X7Y806D01*
X2551Y806D02*
X2558Y806D01*
X0Y805D02*
X7Y805D01*
X2551Y805D02*
X2558Y805D01*
X0Y804D02*
X7Y804D01*
X2551Y804D02*
X2558Y804D01*
X0Y803D02*
X7Y803D01*
X2551Y803D02*
X2558Y803D01*
X0Y802D02*
X7Y802D01*
X2551Y802D02*
X2558Y802D01*
X0Y801D02*
X7Y801D01*
X2551Y801D02*
X2558Y801D01*
X0Y800D02*
X7Y800D01*
X2551Y800D02*
X2558Y800D01*
X0Y799D02*
X7Y799D01*
X2551Y799D02*
X2558Y799D01*
X0Y798D02*
X7Y798D01*
X2551Y798D02*
X2558Y798D01*
X0Y797D02*
X7Y797D01*
X2551Y797D02*
X2558Y797D01*
X0Y796D02*
X7Y796D01*
X2551Y796D02*
X2558Y796D01*
X0Y795D02*
X7Y795D01*
X2551Y795D02*
X2558Y795D01*
X0Y794D02*
X7Y794D01*
X2551Y794D02*
X2558Y794D01*
X0Y793D02*
X7Y793D01*
X2551Y793D02*
X2558Y793D01*
X0Y792D02*
X7Y792D01*
X2551Y792D02*
X2558Y792D01*
X0Y791D02*
X7Y791D01*
X2551Y791D02*
X2558Y791D01*
X0Y790D02*
X7Y790D01*
X2551Y790D02*
X2558Y790D01*
X0Y789D02*
X7Y789D01*
X2551Y789D02*
X2558Y789D01*
X0Y788D02*
X7Y788D01*
X2551Y788D02*
X2558Y788D01*
X0Y787D02*
X7Y787D01*
X2551Y787D02*
X2558Y787D01*
X0Y786D02*
X7Y786D01*
X2551Y786D02*
X2558Y786D01*
X0Y785D02*
X7Y785D01*
X2551Y785D02*
X2558Y785D01*
X0Y784D02*
X7Y784D01*
X2551Y784D02*
X2558Y784D01*
X0Y783D02*
X7Y783D01*
X2551Y783D02*
X2558Y783D01*
X0Y782D02*
X7Y782D01*
X2551Y782D02*
X2558Y782D01*
X0Y781D02*
X7Y781D01*
X2551Y781D02*
X2558Y781D01*
X0Y780D02*
X7Y780D01*
X2551Y780D02*
X2558Y780D01*
X0Y779D02*
X7Y779D01*
X2551Y779D02*
X2558Y779D01*
X0Y778D02*
X7Y778D01*
X2551Y778D02*
X2558Y778D01*
X0Y777D02*
X7Y777D01*
X2551Y777D02*
X2558Y777D01*
X0Y776D02*
X7Y776D01*
X2551Y776D02*
X2558Y776D01*
X0Y775D02*
X7Y775D01*
X2551Y775D02*
X2558Y775D01*
X0Y774D02*
X7Y774D01*
X2551Y774D02*
X2558Y774D01*
X0Y773D02*
X7Y773D01*
X2551Y773D02*
X2558Y773D01*
X0Y772D02*
X7Y772D01*
X2551Y772D02*
X2558Y772D01*
X0Y771D02*
X7Y771D01*
X2551Y771D02*
X2558Y771D01*
X0Y770D02*
X7Y770D01*
X2551Y770D02*
X2558Y770D01*
X0Y769D02*
X7Y769D01*
X2551Y769D02*
X2558Y769D01*
X0Y768D02*
X7Y768D01*
X2551Y768D02*
X2558Y768D01*
X0Y767D02*
X7Y767D01*
X2551Y767D02*
X2558Y767D01*
X0Y766D02*
X7Y766D01*
X2551Y766D02*
X2558Y766D01*
X0Y765D02*
X7Y765D01*
X2551Y765D02*
X2558Y765D01*
X0Y764D02*
X7Y764D01*
X2551Y764D02*
X2558Y764D01*
X0Y763D02*
X7Y763D01*
X2551Y763D02*
X2558Y763D01*
X0Y762D02*
X7Y762D01*
X2551Y762D02*
X2558Y762D01*
X0Y761D02*
X7Y761D01*
X2551Y761D02*
X2558Y761D01*
X0Y760D02*
X7Y760D01*
X2551Y760D02*
X2558Y760D01*
X0Y759D02*
X7Y759D01*
X2551Y759D02*
X2558Y759D01*
X0Y758D02*
X7Y758D01*
X2551Y758D02*
X2558Y758D01*
X0Y757D02*
X7Y757D01*
X2551Y757D02*
X2558Y757D01*
X0Y756D02*
X7Y756D01*
X2551Y756D02*
X2558Y756D01*
X0Y755D02*
X7Y755D01*
X2551Y755D02*
X2558Y755D01*
X0Y754D02*
X7Y754D01*
X2551Y754D02*
X2558Y754D01*
X0Y753D02*
X7Y753D01*
X2551Y753D02*
X2558Y753D01*
X0Y752D02*
X7Y752D01*
X2551Y752D02*
X2558Y752D01*
X0Y751D02*
X7Y751D01*
X2551Y751D02*
X2558Y751D01*
X0Y750D02*
X7Y750D01*
X2551Y750D02*
X2558Y750D01*
X0Y749D02*
X7Y749D01*
X2551Y749D02*
X2558Y749D01*
X0Y748D02*
X7Y748D01*
X2551Y748D02*
X2558Y748D01*
X0Y747D02*
X7Y747D01*
X2551Y747D02*
X2558Y747D01*
X0Y746D02*
X7Y746D01*
X2551Y746D02*
X2558Y746D01*
X0Y745D02*
X7Y745D01*
X2551Y745D02*
X2558Y745D01*
X0Y744D02*
X7Y744D01*
X2551Y744D02*
X2558Y744D01*
X0Y743D02*
X7Y743D01*
X2551Y743D02*
X2558Y743D01*
X0Y742D02*
X7Y742D01*
X2551Y742D02*
X2558Y742D01*
X0Y741D02*
X7Y741D01*
X2551Y741D02*
X2558Y741D01*
X0Y740D02*
X7Y740D01*
X2551Y740D02*
X2558Y740D01*
X0Y739D02*
X7Y739D01*
X2551Y739D02*
X2558Y739D01*
X0Y738D02*
X7Y738D01*
X2551Y738D02*
X2558Y738D01*
X0Y737D02*
X7Y737D01*
X2551Y737D02*
X2558Y737D01*
X0Y736D02*
X7Y736D01*
X2551Y736D02*
X2558Y736D01*
X0Y735D02*
X7Y735D01*
X2551Y735D02*
X2558Y735D01*
X0Y734D02*
X7Y734D01*
X2551Y734D02*
X2558Y734D01*
X0Y733D02*
X7Y733D01*
X2551Y733D02*
X2558Y733D01*
X0Y732D02*
X7Y732D01*
X2551Y732D02*
X2558Y732D01*
X0Y731D02*
X7Y731D01*
X2551Y731D02*
X2558Y731D01*
X0Y730D02*
X7Y730D01*
X2551Y730D02*
X2558Y730D01*
X0Y729D02*
X7Y729D01*
X2551Y729D02*
X2558Y729D01*
X0Y728D02*
X7Y728D01*
X2551Y728D02*
X2558Y728D01*
X0Y727D02*
X7Y727D01*
X2551Y727D02*
X2558Y727D01*
X0Y726D02*
X7Y726D01*
X2551Y726D02*
X2558Y726D01*
X0Y725D02*
X7Y725D01*
X2551Y725D02*
X2558Y725D01*
X0Y724D02*
X7Y724D01*
X2551Y724D02*
X2558Y724D01*
X0Y723D02*
X7Y723D01*
X2551Y723D02*
X2558Y723D01*
X0Y722D02*
X7Y722D01*
X2551Y722D02*
X2558Y722D01*
X0Y721D02*
X7Y721D01*
X2551Y721D02*
X2558Y721D01*
X0Y720D02*
X7Y720D01*
X2551Y720D02*
X2558Y720D01*
X0Y719D02*
X7Y719D01*
X2551Y719D02*
X2558Y719D01*
X0Y718D02*
X7Y718D01*
X2551Y718D02*
X2558Y718D01*
X0Y717D02*
X7Y717D01*
X2551Y717D02*
X2558Y717D01*
X0Y716D02*
X7Y716D01*
X2551Y716D02*
X2558Y716D01*
X0Y715D02*
X7Y715D01*
X2551Y715D02*
X2558Y715D01*
X0Y714D02*
X7Y714D01*
X2551Y714D02*
X2558Y714D01*
X0Y713D02*
X7Y713D01*
X2551Y713D02*
X2558Y713D01*
X0Y712D02*
X7Y712D01*
X2551Y712D02*
X2558Y712D01*
X0Y711D02*
X7Y711D01*
X2551Y711D02*
X2558Y711D01*
X0Y710D02*
X7Y710D01*
X2551Y710D02*
X2558Y710D01*
X0Y709D02*
X7Y709D01*
X2551Y709D02*
X2558Y709D01*
X0Y708D02*
X7Y708D01*
X2551Y708D02*
X2558Y708D01*
X0Y707D02*
X7Y707D01*
X2551Y707D02*
X2558Y707D01*
X0Y706D02*
X7Y706D01*
X2551Y706D02*
X2558Y706D01*
X0Y705D02*
X7Y705D01*
X2551Y705D02*
X2558Y705D01*
X0Y704D02*
X7Y704D01*
X2551Y704D02*
X2558Y704D01*
X0Y703D02*
X7Y703D01*
X2551Y703D02*
X2558Y703D01*
X0Y702D02*
X7Y702D01*
X2551Y702D02*
X2558Y702D01*
X0Y701D02*
X7Y701D01*
X2551Y701D02*
X2558Y701D01*
X0Y700D02*
X7Y700D01*
X2551Y700D02*
X2558Y700D01*
X0Y699D02*
X7Y699D01*
X2551Y699D02*
X2558Y699D01*
X0Y698D02*
X7Y698D01*
X2551Y698D02*
X2558Y698D01*
X0Y697D02*
X7Y697D01*
X2551Y697D02*
X2558Y697D01*
X0Y696D02*
X7Y696D01*
X2551Y696D02*
X2558Y696D01*
X0Y695D02*
X7Y695D01*
X2551Y695D02*
X2558Y695D01*
X0Y694D02*
X7Y694D01*
X2551Y694D02*
X2558Y694D01*
X0Y693D02*
X7Y693D01*
X2551Y693D02*
X2558Y693D01*
X0Y692D02*
X7Y692D01*
X2551Y692D02*
X2558Y692D01*
X0Y691D02*
X7Y691D01*
X2551Y691D02*
X2558Y691D01*
X0Y690D02*
X7Y690D01*
X2551Y690D02*
X2558Y690D01*
X0Y689D02*
X7Y689D01*
X2551Y689D02*
X2558Y689D01*
X0Y688D02*
X7Y688D01*
X2551Y688D02*
X2558Y688D01*
X0Y687D02*
X7Y687D01*
X2551Y687D02*
X2558Y687D01*
X0Y686D02*
X7Y686D01*
X2551Y686D02*
X2558Y686D01*
X0Y685D02*
X7Y685D01*
X2551Y685D02*
X2558Y685D01*
X0Y684D02*
X7Y684D01*
X2551Y684D02*
X2558Y684D01*
X0Y683D02*
X7Y683D01*
X2551Y683D02*
X2558Y683D01*
X0Y682D02*
X7Y682D01*
X2551Y682D02*
X2558Y682D01*
X0Y681D02*
X7Y681D01*
X2551Y681D02*
X2558Y681D01*
X0Y680D02*
X7Y680D01*
X2551Y680D02*
X2558Y680D01*
X0Y679D02*
X7Y679D01*
X2551Y679D02*
X2558Y679D01*
X0Y678D02*
X7Y678D01*
X2551Y678D02*
X2558Y678D01*
X0Y677D02*
X7Y677D01*
X2551Y677D02*
X2558Y677D01*
X0Y676D02*
X7Y676D01*
X2551Y676D02*
X2558Y676D01*
X0Y675D02*
X7Y675D01*
X2551Y675D02*
X2558Y675D01*
X0Y674D02*
X7Y674D01*
X2551Y674D02*
X2558Y674D01*
X0Y673D02*
X7Y673D01*
X2551Y673D02*
X2558Y673D01*
X0Y672D02*
X7Y672D01*
X2551Y672D02*
X2558Y672D01*
X0Y671D02*
X7Y671D01*
X2551Y671D02*
X2558Y671D01*
X0Y670D02*
X7Y670D01*
X2551Y670D02*
X2558Y670D01*
X0Y669D02*
X7Y669D01*
X2551Y669D02*
X2558Y669D01*
X0Y668D02*
X7Y668D01*
X2551Y668D02*
X2558Y668D01*
X0Y667D02*
X7Y667D01*
X2551Y667D02*
X2558Y667D01*
X0Y666D02*
X7Y666D01*
X2551Y666D02*
X2558Y666D01*
X0Y665D02*
X7Y665D01*
X2551Y665D02*
X2558Y665D01*
X0Y664D02*
X7Y664D01*
X2551Y664D02*
X2558Y664D01*
X0Y663D02*
X7Y663D01*
X2551Y663D02*
X2558Y663D01*
X0Y662D02*
X7Y662D01*
X2551Y662D02*
X2558Y662D01*
X0Y661D02*
X7Y661D01*
X2551Y661D02*
X2558Y661D01*
X0Y660D02*
X7Y660D01*
X2551Y660D02*
X2558Y660D01*
X0Y659D02*
X7Y659D01*
X2551Y659D02*
X2558Y659D01*
X0Y658D02*
X7Y658D01*
X2551Y658D02*
X2558Y658D01*
X0Y657D02*
X7Y657D01*
X2551Y657D02*
X2558Y657D01*
X0Y656D02*
X7Y656D01*
X2551Y656D02*
X2558Y656D01*
X0Y655D02*
X7Y655D01*
X2551Y655D02*
X2558Y655D01*
X0Y654D02*
X7Y654D01*
X2551Y654D02*
X2558Y654D01*
X0Y653D02*
X7Y653D01*
X2551Y653D02*
X2558Y653D01*
X0Y652D02*
X7Y652D01*
X2551Y652D02*
X2558Y652D01*
X0Y651D02*
X7Y651D01*
X2551Y651D02*
X2558Y651D01*
X0Y650D02*
X7Y650D01*
X2551Y650D02*
X2558Y650D01*
X0Y649D02*
X7Y649D01*
X2551Y649D02*
X2558Y649D01*
X0Y648D02*
X7Y648D01*
X2551Y648D02*
X2558Y648D01*
X0Y647D02*
X7Y647D01*
X2551Y647D02*
X2558Y647D01*
X0Y646D02*
X7Y646D01*
X2551Y646D02*
X2558Y646D01*
X0Y645D02*
X7Y645D01*
X2551Y645D02*
X2558Y645D01*
X0Y644D02*
X7Y644D01*
X2551Y644D02*
X2558Y644D01*
X0Y643D02*
X7Y643D01*
X2551Y643D02*
X2558Y643D01*
X0Y642D02*
X7Y642D01*
X2551Y642D02*
X2558Y642D01*
X0Y641D02*
X7Y641D01*
X2551Y641D02*
X2558Y641D01*
X0Y640D02*
X7Y640D01*
X2551Y640D02*
X2558Y640D01*
X0Y639D02*
X7Y639D01*
X2551Y639D02*
X2558Y639D01*
X0Y638D02*
X7Y638D01*
X2551Y638D02*
X2558Y638D01*
X0Y637D02*
X7Y637D01*
X2551Y637D02*
X2558Y637D01*
X0Y636D02*
X7Y636D01*
X2551Y636D02*
X2558Y636D01*
X0Y635D02*
X7Y635D01*
X2551Y635D02*
X2558Y635D01*
X0Y634D02*
X7Y634D01*
X2551Y634D02*
X2558Y634D01*
X0Y633D02*
X7Y633D01*
X2551Y633D02*
X2558Y633D01*
X0Y632D02*
X7Y632D01*
X2551Y632D02*
X2558Y632D01*
X0Y631D02*
X7Y631D01*
X2551Y631D02*
X2558Y631D01*
X0Y630D02*
X7Y630D01*
X2551Y630D02*
X2558Y630D01*
X0Y629D02*
X7Y629D01*
X2551Y629D02*
X2558Y629D01*
X0Y628D02*
X7Y628D01*
X2551Y628D02*
X2558Y628D01*
X0Y627D02*
X7Y627D01*
X2551Y627D02*
X2558Y627D01*
X0Y626D02*
X7Y626D01*
X2551Y626D02*
X2558Y626D01*
X0Y625D02*
X7Y625D01*
X2551Y625D02*
X2558Y625D01*
X0Y624D02*
X7Y624D01*
X2551Y624D02*
X2558Y624D01*
X0Y623D02*
X7Y623D01*
X2551Y623D02*
X2558Y623D01*
X0Y622D02*
X7Y622D01*
X2551Y622D02*
X2558Y622D01*
X0Y621D02*
X7Y621D01*
X2551Y621D02*
X2558Y621D01*
X0Y620D02*
X7Y620D01*
X2551Y620D02*
X2558Y620D01*
X0Y619D02*
X7Y619D01*
X2551Y619D02*
X2558Y619D01*
X0Y618D02*
X7Y618D01*
X2551Y618D02*
X2558Y618D01*
X0Y617D02*
X7Y617D01*
X2551Y617D02*
X2558Y617D01*
X0Y616D02*
X7Y616D01*
X2551Y616D02*
X2558Y616D01*
X0Y615D02*
X7Y615D01*
X2551Y615D02*
X2558Y615D01*
X0Y614D02*
X7Y614D01*
X2551Y614D02*
X2558Y614D01*
X0Y613D02*
X7Y613D01*
X2551Y613D02*
X2558Y613D01*
X0Y612D02*
X7Y612D01*
X2551Y612D02*
X2558Y612D01*
X0Y611D02*
X7Y611D01*
X2551Y611D02*
X2558Y611D01*
X0Y610D02*
X7Y610D01*
X2551Y610D02*
X2558Y610D01*
X0Y609D02*
X7Y609D01*
X2551Y609D02*
X2558Y609D01*
X0Y608D02*
X7Y608D01*
X2551Y608D02*
X2558Y608D01*
X0Y607D02*
X7Y607D01*
X2551Y607D02*
X2558Y607D01*
X0Y606D02*
X7Y606D01*
X2551Y606D02*
X2558Y606D01*
X0Y605D02*
X7Y605D01*
X2551Y605D02*
X2558Y605D01*
X0Y604D02*
X7Y604D01*
X2551Y604D02*
X2558Y604D01*
X0Y603D02*
X7Y603D01*
X2551Y603D02*
X2558Y603D01*
X0Y602D02*
X7Y602D01*
X2551Y602D02*
X2558Y602D01*
X0Y601D02*
X7Y601D01*
X2551Y601D02*
X2558Y601D01*
X0Y600D02*
X7Y600D01*
X2551Y600D02*
X2558Y600D01*
X0Y599D02*
X7Y599D01*
X2551Y599D02*
X2558Y599D01*
X0Y598D02*
X7Y598D01*
X2551Y598D02*
X2558Y598D01*
X0Y597D02*
X7Y597D01*
X2551Y597D02*
X2558Y597D01*
X0Y596D02*
X7Y596D01*
X2551Y596D02*
X2558Y596D01*
X0Y595D02*
X7Y595D01*
X2551Y595D02*
X2558Y595D01*
X0Y594D02*
X7Y594D01*
X2551Y594D02*
X2558Y594D01*
X0Y593D02*
X7Y593D01*
X2551Y593D02*
X2558Y593D01*
X0Y592D02*
X7Y592D01*
X2551Y592D02*
X2558Y592D01*
X0Y591D02*
X7Y591D01*
X2551Y591D02*
X2558Y591D01*
X0Y590D02*
X7Y590D01*
X2551Y590D02*
X2558Y590D01*
X0Y589D02*
X7Y589D01*
X2551Y589D02*
X2558Y589D01*
X0Y588D02*
X7Y588D01*
X2551Y588D02*
X2558Y588D01*
X0Y587D02*
X7Y587D01*
X2551Y587D02*
X2558Y587D01*
X0Y586D02*
X7Y586D01*
X2551Y586D02*
X2558Y586D01*
X0Y585D02*
X7Y585D01*
X2551Y585D02*
X2558Y585D01*
X0Y584D02*
X7Y584D01*
X2551Y584D02*
X2558Y584D01*
X0Y583D02*
X7Y583D01*
X2551Y583D02*
X2558Y583D01*
X0Y582D02*
X7Y582D01*
X2551Y582D02*
X2558Y582D01*
X0Y581D02*
X7Y581D01*
X2551Y581D02*
X2558Y581D01*
X0Y580D02*
X7Y580D01*
X2551Y580D02*
X2558Y580D01*
X0Y579D02*
X7Y579D01*
X2551Y579D02*
X2558Y579D01*
X0Y578D02*
X7Y578D01*
X2551Y578D02*
X2558Y578D01*
X0Y577D02*
X7Y577D01*
X2551Y577D02*
X2558Y577D01*
X0Y576D02*
X7Y576D01*
X2551Y576D02*
X2558Y576D01*
X0Y575D02*
X7Y575D01*
X2551Y575D02*
X2558Y575D01*
X0Y574D02*
X7Y574D01*
X2551Y574D02*
X2558Y574D01*
X0Y573D02*
X7Y573D01*
X2551Y573D02*
X2558Y573D01*
X0Y572D02*
X7Y572D01*
X2551Y572D02*
X2558Y572D01*
X0Y571D02*
X7Y571D01*
X2551Y571D02*
X2558Y571D01*
X0Y570D02*
X7Y570D01*
X2551Y570D02*
X2558Y570D01*
X0Y569D02*
X7Y569D01*
X2551Y569D02*
X2558Y569D01*
X0Y568D02*
X7Y568D01*
X2551Y568D02*
X2558Y568D01*
X0Y567D02*
X7Y567D01*
X2551Y567D02*
X2558Y567D01*
X0Y566D02*
X7Y566D01*
X2551Y566D02*
X2558Y566D01*
X0Y565D02*
X7Y565D01*
X2551Y565D02*
X2558Y565D01*
X0Y564D02*
X7Y564D01*
X2551Y564D02*
X2558Y564D01*
X0Y563D02*
X7Y563D01*
X2551Y563D02*
X2558Y563D01*
X0Y562D02*
X7Y562D01*
X2551Y562D02*
X2558Y562D01*
X0Y561D02*
X7Y561D01*
X2551Y561D02*
X2558Y561D01*
X0Y560D02*
X7Y560D01*
X2551Y560D02*
X2558Y560D01*
X0Y559D02*
X7Y559D01*
X2551Y559D02*
X2558Y559D01*
X0Y558D02*
X7Y558D01*
X2551Y558D02*
X2558Y558D01*
X0Y557D02*
X7Y557D01*
X2551Y557D02*
X2558Y557D01*
X0Y556D02*
X7Y556D01*
X2551Y556D02*
X2558Y556D01*
X0Y555D02*
X7Y555D01*
X2551Y555D02*
X2558Y555D01*
X0Y554D02*
X7Y554D01*
X2551Y554D02*
X2558Y554D01*
X0Y553D02*
X7Y553D01*
X2551Y553D02*
X2558Y553D01*
X0Y552D02*
X7Y552D01*
X2551Y552D02*
X2558Y552D01*
X0Y551D02*
X7Y551D01*
X2551Y551D02*
X2558Y551D01*
X0Y550D02*
X7Y550D01*
X2551Y550D02*
X2558Y550D01*
X0Y549D02*
X7Y549D01*
X2551Y549D02*
X2558Y549D01*
X0Y548D02*
X7Y548D01*
X2551Y548D02*
X2558Y548D01*
X0Y547D02*
X7Y547D01*
X2551Y547D02*
X2558Y547D01*
X0Y546D02*
X7Y546D01*
X2551Y546D02*
X2558Y546D01*
X0Y545D02*
X7Y545D01*
X2551Y545D02*
X2558Y545D01*
X0Y544D02*
X7Y544D01*
X2551Y544D02*
X2558Y544D01*
X0Y543D02*
X7Y543D01*
X2551Y543D02*
X2558Y543D01*
X0Y542D02*
X7Y542D01*
X2551Y542D02*
X2558Y542D01*
X0Y541D02*
X7Y541D01*
X2551Y541D02*
X2558Y541D01*
X0Y540D02*
X7Y540D01*
X2551Y540D02*
X2558Y540D01*
X0Y539D02*
X7Y539D01*
X2551Y539D02*
X2558Y539D01*
X0Y538D02*
X7Y538D01*
X2551Y538D02*
X2558Y538D01*
X0Y537D02*
X7Y537D01*
X2551Y537D02*
X2558Y537D01*
X0Y536D02*
X7Y536D01*
X2551Y536D02*
X2558Y536D01*
X0Y535D02*
X7Y535D01*
X2551Y535D02*
X2558Y535D01*
X0Y534D02*
X7Y534D01*
X2551Y534D02*
X2558Y534D01*
X0Y533D02*
X7Y533D01*
X2551Y533D02*
X2558Y533D01*
X0Y532D02*
X7Y532D01*
X2551Y532D02*
X2558Y532D01*
X0Y531D02*
X7Y531D01*
X2551Y531D02*
X2558Y531D01*
X0Y530D02*
X7Y530D01*
X2551Y530D02*
X2558Y530D01*
X0Y529D02*
X7Y529D01*
X2551Y529D02*
X2558Y529D01*
X0Y528D02*
X7Y528D01*
X2551Y528D02*
X2558Y528D01*
X0Y527D02*
X7Y527D01*
X2551Y527D02*
X2558Y527D01*
X0Y526D02*
X7Y526D01*
X2551Y526D02*
X2558Y526D01*
X0Y525D02*
X7Y525D01*
X2551Y525D02*
X2558Y525D01*
X0Y524D02*
X7Y524D01*
X2551Y524D02*
X2558Y524D01*
X0Y523D02*
X7Y523D01*
X2551Y523D02*
X2558Y523D01*
X0Y522D02*
X7Y522D01*
X2551Y522D02*
X2558Y522D01*
X0Y521D02*
X7Y521D01*
X2551Y521D02*
X2558Y521D01*
X0Y520D02*
X7Y520D01*
X2551Y520D02*
X2558Y520D01*
X0Y519D02*
X7Y519D01*
X2551Y519D02*
X2558Y519D01*
X0Y518D02*
X7Y518D01*
X2551Y518D02*
X2558Y518D01*
X0Y517D02*
X7Y517D01*
X2551Y517D02*
X2558Y517D01*
X0Y516D02*
X7Y516D01*
X2551Y516D02*
X2558Y516D01*
X0Y515D02*
X7Y515D01*
X2551Y515D02*
X2558Y515D01*
X0Y514D02*
X7Y514D01*
X2551Y514D02*
X2558Y514D01*
X0Y513D02*
X7Y513D01*
X2551Y513D02*
X2558Y513D01*
X0Y512D02*
X7Y512D01*
X2551Y512D02*
X2558Y512D01*
X0Y511D02*
X7Y511D01*
X2551Y511D02*
X2558Y511D01*
X0Y510D02*
X7Y510D01*
X2551Y510D02*
X2558Y510D01*
X0Y509D02*
X7Y509D01*
X2551Y509D02*
X2558Y509D01*
X0Y508D02*
X7Y508D01*
X2551Y508D02*
X2558Y508D01*
X0Y507D02*
X7Y507D01*
X2551Y507D02*
X2558Y507D01*
X0Y506D02*
X7Y506D01*
X2551Y506D02*
X2558Y506D01*
X0Y505D02*
X7Y505D01*
X2551Y505D02*
X2558Y505D01*
X0Y504D02*
X7Y504D01*
X2551Y504D02*
X2558Y504D01*
X0Y503D02*
X7Y503D01*
X2551Y503D02*
X2558Y503D01*
X0Y502D02*
X7Y502D01*
X2551Y502D02*
X2558Y502D01*
X0Y501D02*
X7Y501D01*
X2551Y501D02*
X2558Y501D01*
X0Y500D02*
X7Y500D01*
X2551Y500D02*
X2558Y500D01*
X0Y499D02*
X7Y499D01*
X2551Y499D02*
X2558Y499D01*
X0Y498D02*
X7Y498D01*
X2551Y498D02*
X2558Y498D01*
X0Y497D02*
X7Y497D01*
X2551Y497D02*
X2558Y497D01*
X0Y496D02*
X7Y496D01*
X2551Y496D02*
X2558Y496D01*
X0Y495D02*
X7Y495D01*
X2551Y495D02*
X2558Y495D01*
X0Y494D02*
X7Y494D01*
X2551Y494D02*
X2558Y494D01*
X0Y493D02*
X7Y493D01*
X2551Y493D02*
X2558Y493D01*
X0Y492D02*
X7Y492D01*
X2551Y492D02*
X2558Y492D01*
X0Y491D02*
X7Y491D01*
X2551Y491D02*
X2558Y491D01*
X0Y490D02*
X7Y490D01*
X2551Y490D02*
X2558Y490D01*
X0Y489D02*
X7Y489D01*
X2551Y489D02*
X2558Y489D01*
X0Y488D02*
X7Y488D01*
X2551Y488D02*
X2558Y488D01*
X0Y487D02*
X7Y487D01*
X2551Y487D02*
X2558Y487D01*
X0Y486D02*
X7Y486D01*
X2551Y486D02*
X2558Y486D01*
X0Y485D02*
X7Y485D01*
X2551Y485D02*
X2558Y485D01*
X0Y484D02*
X7Y484D01*
X2551Y484D02*
X2558Y484D01*
X0Y483D02*
X7Y483D01*
X2551Y483D02*
X2558Y483D01*
X0Y482D02*
X7Y482D01*
X2551Y482D02*
X2558Y482D01*
X0Y481D02*
X7Y481D01*
X2551Y481D02*
X2558Y481D01*
X0Y480D02*
X7Y480D01*
X2551Y480D02*
X2558Y480D01*
X0Y479D02*
X7Y479D01*
X2551Y479D02*
X2558Y479D01*
X0Y478D02*
X7Y478D01*
X2551Y478D02*
X2558Y478D01*
X0Y477D02*
X7Y477D01*
X2551Y477D02*
X2558Y477D01*
X0Y476D02*
X7Y476D01*
X2551Y476D02*
X2558Y476D01*
X0Y475D02*
X7Y475D01*
X2551Y475D02*
X2558Y475D01*
X0Y474D02*
X7Y474D01*
X2551Y474D02*
X2558Y474D01*
X0Y473D02*
X7Y473D01*
X2551Y473D02*
X2558Y473D01*
X0Y472D02*
X7Y472D01*
X2551Y472D02*
X2558Y472D01*
X0Y471D02*
X7Y471D01*
X2551Y471D02*
X2558Y471D01*
X0Y470D02*
X7Y470D01*
X2551Y470D02*
X2558Y470D01*
X0Y469D02*
X7Y469D01*
X2551Y469D02*
X2558Y469D01*
X0Y468D02*
X7Y468D01*
X2551Y468D02*
X2558Y468D01*
X0Y467D02*
X7Y467D01*
X2551Y467D02*
X2558Y467D01*
X0Y466D02*
X7Y466D01*
X2551Y466D02*
X2558Y466D01*
X0Y465D02*
X7Y465D01*
X2551Y465D02*
X2558Y465D01*
X0Y464D02*
X7Y464D01*
X2551Y464D02*
X2558Y464D01*
X0Y463D02*
X7Y463D01*
X2551Y463D02*
X2558Y463D01*
X0Y462D02*
X7Y462D01*
X2551Y462D02*
X2558Y462D01*
X0Y461D02*
X7Y461D01*
X2551Y461D02*
X2558Y461D01*
X0Y460D02*
X7Y460D01*
X2551Y460D02*
X2558Y460D01*
X0Y459D02*
X7Y459D01*
X2551Y459D02*
X2558Y459D01*
X0Y458D02*
X7Y458D01*
X2551Y458D02*
X2558Y458D01*
X0Y457D02*
X7Y457D01*
X2551Y457D02*
X2558Y457D01*
X0Y456D02*
X7Y456D01*
X2551Y456D02*
X2558Y456D01*
X0Y455D02*
X7Y455D01*
X2551Y455D02*
X2558Y455D01*
X0Y454D02*
X7Y454D01*
X2551Y454D02*
X2558Y454D01*
X0Y453D02*
X7Y453D01*
X2551Y453D02*
X2558Y453D01*
X0Y452D02*
X7Y452D01*
X2551Y452D02*
X2558Y452D01*
X0Y451D02*
X7Y451D01*
X2551Y451D02*
X2558Y451D01*
X0Y450D02*
X7Y450D01*
X2551Y450D02*
X2558Y450D01*
X0Y449D02*
X7Y449D01*
X2551Y449D02*
X2558Y449D01*
X0Y448D02*
X7Y448D01*
X2551Y448D02*
X2558Y448D01*
X0Y447D02*
X7Y447D01*
X2551Y447D02*
X2558Y447D01*
X0Y446D02*
X7Y446D01*
X2551Y446D02*
X2558Y446D01*
X0Y445D02*
X7Y445D01*
X2551Y445D02*
X2558Y445D01*
X0Y444D02*
X7Y444D01*
X2551Y444D02*
X2558Y444D01*
X0Y443D02*
X7Y443D01*
X2551Y443D02*
X2558Y443D01*
X0Y442D02*
X7Y442D01*
X2551Y442D02*
X2558Y442D01*
X0Y441D02*
X7Y441D01*
X2551Y441D02*
X2558Y441D01*
X0Y440D02*
X7Y440D01*
X2551Y440D02*
X2558Y440D01*
X0Y439D02*
X7Y439D01*
X2551Y439D02*
X2558Y439D01*
X0Y438D02*
X7Y438D01*
X2551Y438D02*
X2558Y438D01*
X0Y437D02*
X7Y437D01*
X2551Y437D02*
X2558Y437D01*
X0Y436D02*
X7Y436D01*
X2551Y436D02*
X2558Y436D01*
X0Y435D02*
X7Y435D01*
X2551Y435D02*
X2558Y435D01*
X0Y434D02*
X7Y434D01*
X2551Y434D02*
X2558Y434D01*
X0Y433D02*
X7Y433D01*
X2551Y433D02*
X2558Y433D01*
X0Y432D02*
X7Y432D01*
X2551Y432D02*
X2558Y432D01*
X0Y431D02*
X7Y431D01*
X2551Y431D02*
X2558Y431D01*
X0Y430D02*
X7Y430D01*
X2551Y430D02*
X2558Y430D01*
X0Y429D02*
X7Y429D01*
X2551Y429D02*
X2558Y429D01*
X0Y428D02*
X7Y428D01*
X2551Y428D02*
X2558Y428D01*
X0Y427D02*
X7Y427D01*
X2551Y427D02*
X2558Y427D01*
X0Y426D02*
X7Y426D01*
X2551Y426D02*
X2558Y426D01*
X0Y425D02*
X7Y425D01*
X2551Y425D02*
X2558Y425D01*
X0Y424D02*
X7Y424D01*
X2551Y424D02*
X2558Y424D01*
X0Y423D02*
X7Y423D01*
X2551Y423D02*
X2558Y423D01*
X0Y422D02*
X7Y422D01*
X2551Y422D02*
X2558Y422D01*
X0Y421D02*
X7Y421D01*
X2551Y421D02*
X2558Y421D01*
X0Y420D02*
X7Y420D01*
X2551Y420D02*
X2558Y420D01*
X0Y419D02*
X7Y419D01*
X2551Y419D02*
X2558Y419D01*
X0Y418D02*
X7Y418D01*
X2551Y418D02*
X2558Y418D01*
X0Y417D02*
X7Y417D01*
X2551Y417D02*
X2558Y417D01*
X0Y416D02*
X7Y416D01*
X2551Y416D02*
X2558Y416D01*
X0Y415D02*
X7Y415D01*
X2551Y415D02*
X2558Y415D01*
X0Y414D02*
X7Y414D01*
X2551Y414D02*
X2558Y414D01*
X0Y413D02*
X7Y413D01*
X2551Y413D02*
X2558Y413D01*
X0Y412D02*
X7Y412D01*
X2551Y412D02*
X2558Y412D01*
X0Y411D02*
X7Y411D01*
X2551Y411D02*
X2558Y411D01*
X0Y410D02*
X7Y410D01*
X2551Y410D02*
X2558Y410D01*
X0Y409D02*
X7Y409D01*
X2551Y409D02*
X2558Y409D01*
X0Y408D02*
X7Y408D01*
X2551Y408D02*
X2558Y408D01*
X0Y407D02*
X7Y407D01*
X2551Y407D02*
X2558Y407D01*
X0Y406D02*
X7Y406D01*
X2551Y406D02*
X2558Y406D01*
X0Y405D02*
X7Y405D01*
X2551Y405D02*
X2558Y405D01*
X0Y404D02*
X7Y404D01*
X2551Y404D02*
X2558Y404D01*
X0Y403D02*
X7Y403D01*
X2551Y403D02*
X2558Y403D01*
X0Y402D02*
X7Y402D01*
X2551Y402D02*
X2558Y402D01*
X0Y401D02*
X7Y401D01*
X2551Y401D02*
X2558Y401D01*
X0Y400D02*
X7Y400D01*
X2551Y400D02*
X2558Y400D01*
X0Y399D02*
X7Y399D01*
X2551Y399D02*
X2558Y399D01*
X0Y398D02*
X7Y398D01*
X2551Y398D02*
X2558Y398D01*
X0Y397D02*
X7Y397D01*
X2551Y397D02*
X2558Y397D01*
X0Y396D02*
X7Y396D01*
X2551Y396D02*
X2558Y396D01*
X0Y395D02*
X7Y395D01*
X2551Y395D02*
X2558Y395D01*
X0Y394D02*
X7Y394D01*
X2551Y394D02*
X2558Y394D01*
X0Y393D02*
X7Y393D01*
X2551Y393D02*
X2558Y393D01*
X0Y392D02*
X7Y392D01*
X2551Y392D02*
X2558Y392D01*
X0Y391D02*
X7Y391D01*
X2551Y391D02*
X2558Y391D01*
X0Y390D02*
X7Y390D01*
X2551Y390D02*
X2558Y390D01*
X0Y389D02*
X7Y389D01*
X2551Y389D02*
X2558Y389D01*
X0Y388D02*
X7Y388D01*
X2551Y388D02*
X2558Y388D01*
X0Y387D02*
X7Y387D01*
X2551Y387D02*
X2558Y387D01*
X0Y386D02*
X7Y386D01*
X2551Y386D02*
X2558Y386D01*
X0Y385D02*
X7Y385D01*
X2551Y385D02*
X2558Y385D01*
X0Y384D02*
X7Y384D01*
X2551Y384D02*
X2558Y384D01*
X0Y383D02*
X7Y383D01*
X2551Y383D02*
X2558Y383D01*
X0Y382D02*
X7Y382D01*
X2551Y382D02*
X2558Y382D01*
X0Y381D02*
X7Y381D01*
X2551Y381D02*
X2558Y381D01*
X0Y380D02*
X7Y380D01*
X2551Y380D02*
X2558Y380D01*
X0Y379D02*
X7Y379D01*
X2551Y379D02*
X2558Y379D01*
X0Y378D02*
X7Y378D01*
X2551Y378D02*
X2558Y378D01*
X0Y377D02*
X7Y377D01*
X2551Y377D02*
X2558Y377D01*
X0Y376D02*
X7Y376D01*
X2551Y376D02*
X2558Y376D01*
X0Y375D02*
X7Y375D01*
X2551Y375D02*
X2558Y375D01*
X0Y374D02*
X7Y374D01*
X2551Y374D02*
X2558Y374D01*
X0Y373D02*
X7Y373D01*
X2551Y373D02*
X2558Y373D01*
X0Y372D02*
X7Y372D01*
X2551Y372D02*
X2558Y372D01*
X0Y371D02*
X7Y371D01*
X2551Y371D02*
X2558Y371D01*
X0Y370D02*
X7Y370D01*
X2551Y370D02*
X2558Y370D01*
X0Y369D02*
X7Y369D01*
X2551Y369D02*
X2558Y369D01*
X0Y368D02*
X7Y368D01*
X2551Y368D02*
X2558Y368D01*
X0Y367D02*
X7Y367D01*
X2551Y367D02*
X2558Y367D01*
X0Y366D02*
X7Y366D01*
X2551Y366D02*
X2558Y366D01*
X0Y365D02*
X7Y365D01*
X2551Y365D02*
X2558Y365D01*
X0Y364D02*
X7Y364D01*
X2551Y364D02*
X2558Y364D01*
X0Y363D02*
X7Y363D01*
X2551Y363D02*
X2558Y363D01*
X0Y362D02*
X7Y362D01*
X2551Y362D02*
X2558Y362D01*
X0Y361D02*
X7Y361D01*
X2551Y361D02*
X2558Y361D01*
X0Y360D02*
X7Y360D01*
X2551Y360D02*
X2558Y360D01*
X0Y359D02*
X7Y359D01*
X2551Y359D02*
X2558Y359D01*
X0Y358D02*
X7Y358D01*
X2551Y358D02*
X2558Y358D01*
X0Y357D02*
X7Y357D01*
X2551Y357D02*
X2558Y357D01*
X0Y356D02*
X7Y356D01*
X2551Y356D02*
X2558Y356D01*
X0Y355D02*
X7Y355D01*
X2551Y355D02*
X2558Y355D01*
X0Y354D02*
X7Y354D01*
X2551Y354D02*
X2558Y354D01*
X0Y353D02*
X7Y353D01*
X2551Y353D02*
X2558Y353D01*
X0Y352D02*
X7Y352D01*
X2551Y352D02*
X2558Y352D01*
X0Y351D02*
X7Y351D01*
X2551Y351D02*
X2558Y351D01*
X0Y350D02*
X7Y350D01*
X2551Y350D02*
X2558Y350D01*
X0Y349D02*
X7Y349D01*
X2551Y349D02*
X2558Y349D01*
X0Y348D02*
X7Y348D01*
X2551Y348D02*
X2558Y348D01*
X0Y347D02*
X7Y347D01*
X2551Y347D02*
X2558Y347D01*
X0Y346D02*
X7Y346D01*
X2551Y346D02*
X2558Y346D01*
X0Y345D02*
X7Y345D01*
X2551Y345D02*
X2558Y345D01*
X0Y344D02*
X7Y344D01*
X2551Y344D02*
X2558Y344D01*
X0Y343D02*
X7Y343D01*
X2551Y343D02*
X2558Y343D01*
X0Y342D02*
X7Y342D01*
X2551Y342D02*
X2558Y342D01*
X0Y341D02*
X7Y341D01*
X2551Y341D02*
X2558Y341D01*
X0Y340D02*
X7Y340D01*
X2551Y340D02*
X2558Y340D01*
X0Y339D02*
X7Y339D01*
X2551Y339D02*
X2558Y339D01*
X0Y338D02*
X7Y338D01*
X2551Y338D02*
X2558Y338D01*
X0Y337D02*
X7Y337D01*
X2551Y337D02*
X2558Y337D01*
X0Y336D02*
X7Y336D01*
X2551Y336D02*
X2558Y336D01*
X0Y335D02*
X7Y335D01*
X2551Y335D02*
X2558Y335D01*
X0Y334D02*
X7Y334D01*
X2551Y334D02*
X2558Y334D01*
X0Y333D02*
X7Y333D01*
X2551Y333D02*
X2558Y333D01*
X0Y332D02*
X7Y332D01*
X2551Y332D02*
X2558Y332D01*
X0Y331D02*
X7Y331D01*
X2551Y331D02*
X2558Y331D01*
X0Y330D02*
X7Y330D01*
X2551Y330D02*
X2558Y330D01*
X0Y329D02*
X7Y329D01*
X2551Y329D02*
X2558Y329D01*
X0Y328D02*
X7Y328D01*
X2551Y328D02*
X2558Y328D01*
X0Y327D02*
X7Y327D01*
X2551Y327D02*
X2558Y327D01*
X0Y326D02*
X7Y326D01*
X2551Y326D02*
X2558Y326D01*
X0Y325D02*
X7Y325D01*
X2551Y325D02*
X2558Y325D01*
X0Y324D02*
X7Y324D01*
X2551Y324D02*
X2558Y324D01*
X0Y323D02*
X7Y323D01*
X2551Y323D02*
X2558Y323D01*
X0Y322D02*
X7Y322D01*
X2551Y322D02*
X2558Y322D01*
X0Y321D02*
X7Y321D01*
X2551Y321D02*
X2558Y321D01*
X0Y320D02*
X7Y320D01*
X2551Y320D02*
X2558Y320D01*
X0Y319D02*
X7Y319D01*
X2551Y319D02*
X2558Y319D01*
X0Y318D02*
X7Y318D01*
X2551Y318D02*
X2558Y318D01*
X0Y317D02*
X7Y317D01*
X2551Y317D02*
X2558Y317D01*
X0Y316D02*
X7Y316D01*
X2551Y316D02*
X2558Y316D01*
X0Y315D02*
X7Y315D01*
X2551Y315D02*
X2558Y315D01*
X0Y314D02*
X7Y314D01*
X2551Y314D02*
X2558Y314D01*
X0Y313D02*
X7Y313D01*
X2551Y313D02*
X2558Y313D01*
X0Y312D02*
X7Y312D01*
X2551Y312D02*
X2558Y312D01*
X0Y311D02*
X7Y311D01*
X2551Y311D02*
X2558Y311D01*
X0Y310D02*
X7Y310D01*
X2551Y310D02*
X2558Y310D01*
X0Y309D02*
X7Y309D01*
X2551Y309D02*
X2558Y309D01*
X0Y308D02*
X7Y308D01*
X2551Y308D02*
X2558Y308D01*
X0Y307D02*
X7Y307D01*
X2551Y307D02*
X2558Y307D01*
X0Y306D02*
X7Y306D01*
X2551Y306D02*
X2558Y306D01*
X0Y305D02*
X7Y305D01*
X2551Y305D02*
X2558Y305D01*
X0Y304D02*
X7Y304D01*
X2551Y304D02*
X2558Y304D01*
X0Y303D02*
X7Y303D01*
X2551Y303D02*
X2558Y303D01*
X0Y302D02*
X7Y302D01*
X2551Y302D02*
X2558Y302D01*
X0Y301D02*
X7Y301D01*
X2551Y301D02*
X2558Y301D01*
X0Y300D02*
X7Y300D01*
X2551Y300D02*
X2558Y300D01*
X0Y299D02*
X7Y299D01*
X2551Y299D02*
X2558Y299D01*
X0Y298D02*
X7Y298D01*
X2551Y298D02*
X2558Y298D01*
X0Y297D02*
X7Y297D01*
X2551Y297D02*
X2558Y297D01*
X0Y296D02*
X7Y296D01*
X2551Y296D02*
X2558Y296D01*
X0Y295D02*
X7Y295D01*
X2551Y295D02*
X2558Y295D01*
X0Y294D02*
X7Y294D01*
X2551Y294D02*
X2558Y294D01*
X0Y293D02*
X7Y293D01*
X2551Y293D02*
X2558Y293D01*
X0Y292D02*
X7Y292D01*
X2551Y292D02*
X2558Y292D01*
X0Y291D02*
X7Y291D01*
X2551Y291D02*
X2558Y291D01*
X0Y290D02*
X7Y290D01*
X2551Y290D02*
X2558Y290D01*
X0Y289D02*
X7Y289D01*
X2551Y289D02*
X2558Y289D01*
X0Y288D02*
X7Y288D01*
X2551Y288D02*
X2558Y288D01*
X0Y287D02*
X7Y287D01*
X2551Y287D02*
X2558Y287D01*
X0Y286D02*
X7Y286D01*
X2551Y286D02*
X2558Y286D01*
X0Y285D02*
X7Y285D01*
X2551Y285D02*
X2558Y285D01*
X0Y284D02*
X7Y284D01*
X2551Y284D02*
X2558Y284D01*
X0Y283D02*
X7Y283D01*
X2551Y283D02*
X2558Y283D01*
X0Y282D02*
X7Y282D01*
X2551Y282D02*
X2558Y282D01*
X0Y281D02*
X7Y281D01*
X2551Y281D02*
X2558Y281D01*
X0Y280D02*
X7Y280D01*
X2551Y280D02*
X2558Y280D01*
X0Y279D02*
X7Y279D01*
X2551Y279D02*
X2558Y279D01*
X0Y278D02*
X7Y278D01*
X2551Y278D02*
X2558Y278D01*
X0Y277D02*
X7Y277D01*
X2551Y277D02*
X2558Y277D01*
X0Y276D02*
X7Y276D01*
X2551Y276D02*
X2558Y276D01*
X0Y275D02*
X7Y275D01*
X2551Y275D02*
X2558Y275D01*
X0Y274D02*
X7Y274D01*
X2551Y274D02*
X2558Y274D01*
X0Y273D02*
X7Y273D01*
X2551Y273D02*
X2558Y273D01*
X0Y272D02*
X7Y272D01*
X2551Y272D02*
X2558Y272D01*
X0Y271D02*
X7Y271D01*
X2551Y271D02*
X2558Y271D01*
X0Y270D02*
X7Y270D01*
X2551Y270D02*
X2558Y270D01*
X0Y269D02*
X7Y269D01*
X2551Y269D02*
X2558Y269D01*
X0Y268D02*
X7Y268D01*
X2551Y268D02*
X2558Y268D01*
X0Y267D02*
X7Y267D01*
X2551Y267D02*
X2558Y267D01*
X0Y266D02*
X7Y266D01*
X2551Y266D02*
X2558Y266D01*
X0Y265D02*
X7Y265D01*
X2551Y265D02*
X2558Y265D01*
X0Y264D02*
X7Y264D01*
X2551Y264D02*
X2558Y264D01*
X0Y263D02*
X7Y263D01*
X2551Y263D02*
X2558Y263D01*
X0Y262D02*
X7Y262D01*
X2551Y262D02*
X2558Y262D01*
X0Y261D02*
X7Y261D01*
X2551Y261D02*
X2558Y261D01*
X0Y260D02*
X7Y260D01*
X2551Y260D02*
X2558Y260D01*
X0Y259D02*
X7Y259D01*
X2551Y259D02*
X2558Y259D01*
X0Y258D02*
X7Y258D01*
X2551Y258D02*
X2558Y258D01*
X0Y257D02*
X7Y257D01*
X2551Y257D02*
X2558Y257D01*
X0Y256D02*
X7Y256D01*
X2551Y256D02*
X2558Y256D01*
X0Y255D02*
X7Y255D01*
X2551Y255D02*
X2558Y255D01*
X0Y254D02*
X7Y254D01*
X2551Y254D02*
X2558Y254D01*
X0Y253D02*
X7Y253D01*
X2551Y253D02*
X2558Y253D01*
X0Y252D02*
X7Y252D01*
X2551Y252D02*
X2558Y252D01*
X0Y251D02*
X7Y251D01*
X2551Y251D02*
X2558Y251D01*
X0Y250D02*
X7Y250D01*
X2551Y250D02*
X2558Y250D01*
X0Y249D02*
X7Y249D01*
X2551Y249D02*
X2558Y249D01*
X0Y248D02*
X7Y248D01*
X2551Y248D02*
X2558Y248D01*
X0Y247D02*
X7Y247D01*
X2551Y247D02*
X2558Y247D01*
X0Y246D02*
X7Y246D01*
X2551Y246D02*
X2558Y246D01*
X0Y245D02*
X7Y245D01*
X2551Y245D02*
X2558Y245D01*
X0Y244D02*
X7Y244D01*
X2551Y244D02*
X2558Y244D01*
X0Y243D02*
X7Y243D01*
X2551Y243D02*
X2558Y243D01*
X0Y242D02*
X7Y242D01*
X2551Y242D02*
X2558Y242D01*
X0Y241D02*
X7Y241D01*
X2551Y241D02*
X2558Y241D01*
X0Y240D02*
X7Y240D01*
X2551Y240D02*
X2558Y240D01*
X0Y239D02*
X7Y239D01*
X2551Y239D02*
X2558Y239D01*
X0Y238D02*
X7Y238D01*
X2551Y238D02*
X2558Y238D01*
X0Y237D02*
X7Y237D01*
X2551Y237D02*
X2558Y237D01*
X0Y236D02*
X7Y236D01*
X2551Y236D02*
X2558Y236D01*
X0Y235D02*
X7Y235D01*
X2551Y235D02*
X2558Y235D01*
X0Y234D02*
X7Y234D01*
X2551Y234D02*
X2558Y234D01*
X0Y233D02*
X7Y233D01*
X2551Y233D02*
X2558Y233D01*
X0Y232D02*
X7Y232D01*
X2551Y232D02*
X2558Y232D01*
X0Y231D02*
X7Y231D01*
X2551Y231D02*
X2558Y231D01*
X0Y230D02*
X7Y230D01*
X2551Y230D02*
X2558Y230D01*
X0Y229D02*
X7Y229D01*
X2551Y229D02*
X2558Y229D01*
X0Y228D02*
X7Y228D01*
X2551Y228D02*
X2558Y228D01*
X0Y227D02*
X7Y227D01*
X2551Y227D02*
X2558Y227D01*
X0Y226D02*
X7Y226D01*
X2551Y226D02*
X2558Y226D01*
X0Y225D02*
X7Y225D01*
X2551Y225D02*
X2558Y225D01*
X0Y224D02*
X7Y224D01*
X2551Y224D02*
X2558Y224D01*
X0Y223D02*
X7Y223D01*
X2551Y223D02*
X2558Y223D01*
X0Y222D02*
X7Y222D01*
X2551Y222D02*
X2558Y222D01*
X0Y221D02*
X7Y221D01*
X2551Y221D02*
X2558Y221D01*
X0Y220D02*
X7Y220D01*
X2551Y220D02*
X2558Y220D01*
X0Y219D02*
X7Y219D01*
X2551Y219D02*
X2558Y219D01*
X0Y218D02*
X7Y218D01*
X2551Y218D02*
X2558Y218D01*
X0Y217D02*
X7Y217D01*
X2551Y217D02*
X2558Y217D01*
X0Y216D02*
X7Y216D01*
X2551Y216D02*
X2558Y216D01*
X0Y215D02*
X7Y215D01*
X2551Y215D02*
X2558Y215D01*
X0Y214D02*
X7Y214D01*
X2551Y214D02*
X2558Y214D01*
X0Y213D02*
X7Y213D01*
X2551Y213D02*
X2558Y213D01*
X0Y212D02*
X7Y212D01*
X2551Y212D02*
X2558Y212D01*
X0Y211D02*
X7Y211D01*
X2551Y211D02*
X2558Y211D01*
X0Y210D02*
X7Y210D01*
X2551Y210D02*
X2558Y210D01*
X0Y209D02*
X7Y209D01*
X2551Y209D02*
X2558Y209D01*
X0Y208D02*
X7Y208D01*
X2551Y208D02*
X2558Y208D01*
X0Y207D02*
X7Y207D01*
X2551Y207D02*
X2558Y207D01*
X0Y206D02*
X7Y206D01*
X2551Y206D02*
X2558Y206D01*
X0Y205D02*
X7Y205D01*
X2551Y205D02*
X2558Y205D01*
X0Y204D02*
X7Y204D01*
X2551Y204D02*
X2558Y204D01*
X0Y203D02*
X7Y203D01*
X2551Y203D02*
X2558Y203D01*
X0Y202D02*
X7Y202D01*
X2551Y202D02*
X2558Y202D01*
X0Y201D02*
X7Y201D01*
X2551Y201D02*
X2558Y201D01*
X0Y200D02*
X7Y200D01*
X2551Y200D02*
X2558Y200D01*
X0Y199D02*
X7Y199D01*
X2551Y199D02*
X2558Y199D01*
X0Y198D02*
X7Y198D01*
X2551Y198D02*
X2558Y198D01*
X0Y197D02*
X7Y197D01*
X2551Y197D02*
X2558Y197D01*
X0Y196D02*
X7Y196D01*
X2551Y196D02*
X2558Y196D01*
X0Y195D02*
X7Y195D01*
X2551Y195D02*
X2558Y195D01*
X0Y194D02*
X7Y194D01*
X2551Y194D02*
X2558Y194D01*
X0Y193D02*
X7Y193D01*
X2551Y193D02*
X2558Y193D01*
X0Y192D02*
X7Y192D01*
X2551Y192D02*
X2558Y192D01*
X0Y191D02*
X7Y191D01*
X2551Y191D02*
X2558Y191D01*
X0Y190D02*
X7Y190D01*
X2551Y190D02*
X2558Y190D01*
X0Y189D02*
X7Y189D01*
X2551Y189D02*
X2558Y189D01*
X0Y188D02*
X7Y188D01*
X2551Y188D02*
X2558Y188D01*
X0Y187D02*
X7Y187D01*
X2551Y187D02*
X2558Y187D01*
X0Y186D02*
X7Y186D01*
X2551Y186D02*
X2558Y186D01*
X0Y185D02*
X7Y185D01*
X2551Y185D02*
X2558Y185D01*
X0Y184D02*
X7Y184D01*
X2551Y184D02*
X2558Y184D01*
X0Y183D02*
X7Y183D01*
X2551Y183D02*
X2558Y183D01*
X0Y182D02*
X7Y182D01*
X2551Y182D02*
X2558Y182D01*
X0Y181D02*
X7Y181D01*
X2551Y181D02*
X2558Y181D01*
X0Y180D02*
X7Y180D01*
X2551Y180D02*
X2558Y180D01*
X0Y179D02*
X7Y179D01*
X2551Y179D02*
X2558Y179D01*
X0Y178D02*
X7Y178D01*
X2551Y178D02*
X2558Y178D01*
X0Y177D02*
X7Y177D01*
X2551Y177D02*
X2558Y177D01*
X0Y176D02*
X7Y176D01*
X2551Y176D02*
X2558Y176D01*
X0Y175D02*
X7Y175D01*
X2551Y175D02*
X2558Y175D01*
X0Y174D02*
X7Y174D01*
X2551Y174D02*
X2558Y174D01*
X0Y173D02*
X7Y173D01*
X2551Y173D02*
X2558Y173D01*
X0Y172D02*
X7Y172D01*
X2551Y172D02*
X2558Y172D01*
X0Y171D02*
X7Y171D01*
X2551Y171D02*
X2558Y171D01*
X0Y170D02*
X7Y170D01*
X2551Y170D02*
X2558Y170D01*
X0Y169D02*
X7Y169D01*
X2551Y169D02*
X2558Y169D01*
X0Y168D02*
X7Y168D01*
X2551Y168D02*
X2558Y168D01*
X0Y167D02*
X7Y167D01*
X2551Y167D02*
X2558Y167D01*
X0Y166D02*
X7Y166D01*
X2551Y166D02*
X2558Y166D01*
X0Y165D02*
X7Y165D01*
X2551Y165D02*
X2558Y165D01*
X0Y164D02*
X7Y164D01*
X2551Y164D02*
X2558Y164D01*
X0Y163D02*
X7Y163D01*
X2551Y163D02*
X2558Y163D01*
X0Y162D02*
X7Y162D01*
X2551Y162D02*
X2558Y162D01*
X0Y161D02*
X7Y161D01*
X2551Y161D02*
X2558Y161D01*
X0Y160D02*
X7Y160D01*
X2551Y160D02*
X2558Y160D01*
X0Y159D02*
X7Y159D01*
X2551Y159D02*
X2558Y159D01*
X0Y158D02*
X7Y158D01*
X2551Y158D02*
X2558Y158D01*
X0Y157D02*
X7Y157D01*
X2551Y157D02*
X2558Y157D01*
X0Y156D02*
X7Y156D01*
X2551Y156D02*
X2558Y156D01*
X0Y155D02*
X7Y155D01*
X2551Y155D02*
X2558Y155D01*
X0Y154D02*
X7Y154D01*
X2551Y154D02*
X2558Y154D01*
X0Y153D02*
X7Y153D01*
X2551Y153D02*
X2558Y153D01*
X0Y152D02*
X7Y152D01*
X2551Y152D02*
X2558Y152D01*
X0Y151D02*
X7Y151D01*
X2551Y151D02*
X2558Y151D01*
X0Y150D02*
X7Y150D01*
X2551Y150D02*
X2558Y150D01*
X0Y149D02*
X7Y149D01*
X2551Y149D02*
X2558Y149D01*
X0Y148D02*
X7Y148D01*
X2551Y148D02*
X2558Y148D01*
X0Y147D02*
X7Y147D01*
X2551Y147D02*
X2558Y147D01*
X0Y146D02*
X7Y146D01*
X2551Y146D02*
X2558Y146D01*
X0Y145D02*
X7Y145D01*
X2551Y145D02*
X2558Y145D01*
X0Y144D02*
X7Y144D01*
X2551Y144D02*
X2558Y144D01*
X0Y143D02*
X7Y143D01*
X2551Y143D02*
X2558Y143D01*
X0Y142D02*
X7Y142D01*
X2551Y142D02*
X2558Y142D01*
X0Y141D02*
X7Y141D01*
X2551Y141D02*
X2558Y141D01*
X0Y140D02*
X7Y140D01*
X2551Y140D02*
X2558Y140D01*
X0Y139D02*
X7Y139D01*
X2551Y139D02*
X2558Y139D01*
X0Y138D02*
X7Y138D01*
X2551Y138D02*
X2558Y138D01*
X0Y137D02*
X7Y137D01*
X2551Y137D02*
X2558Y137D01*
X0Y136D02*
X7Y136D01*
X2551Y136D02*
X2558Y136D01*
X0Y135D02*
X7Y135D01*
X2551Y135D02*
X2558Y135D01*
X0Y134D02*
X7Y134D01*
X2551Y134D02*
X2558Y134D01*
X0Y133D02*
X7Y133D01*
X2551Y133D02*
X2558Y133D01*
X0Y132D02*
X7Y132D01*
X2551Y132D02*
X2558Y132D01*
X0Y131D02*
X7Y131D01*
X2551Y131D02*
X2558Y131D01*
X0Y130D02*
X7Y130D01*
X2551Y130D02*
X2558Y130D01*
X0Y129D02*
X7Y129D01*
X2551Y129D02*
X2558Y129D01*
X0Y128D02*
X7Y128D01*
X2551Y128D02*
X2558Y128D01*
X0Y127D02*
X7Y127D01*
X2551Y127D02*
X2558Y127D01*
X0Y126D02*
X7Y126D01*
X2551Y126D02*
X2558Y126D01*
X0Y125D02*
X7Y125D01*
X2551Y125D02*
X2558Y125D01*
X0Y124D02*
X7Y124D01*
X2551Y124D02*
X2558Y124D01*
X0Y123D02*
X7Y123D01*
X2551Y123D02*
X2558Y123D01*
X0Y122D02*
X7Y122D01*
X2551Y122D02*
X2558Y122D01*
X0Y121D02*
X7Y121D01*
X2551Y121D02*
X2558Y121D01*
X0Y120D02*
X7Y120D01*
X2551Y120D02*
X2558Y120D01*
X0Y119D02*
X7Y119D01*
X2551Y119D02*
X2558Y119D01*
X0Y118D02*
X7Y118D01*
X2551Y118D02*
X2558Y118D01*
X0Y117D02*
X7Y117D01*
X2551Y117D02*
X2558Y117D01*
X0Y116D02*
X7Y116D01*
X2551Y116D02*
X2558Y116D01*
X0Y115D02*
X7Y115D01*
X2551Y115D02*
X2558Y115D01*
X0Y114D02*
X7Y114D01*
X2551Y114D02*
X2558Y114D01*
X0Y113D02*
X7Y113D01*
X2551Y113D02*
X2558Y113D01*
X0Y112D02*
X7Y112D01*
X2551Y112D02*
X2558Y112D01*
X0Y111D02*
X7Y111D01*
X2551Y111D02*
X2558Y111D01*
X0Y110D02*
X7Y110D01*
X2551Y110D02*
X2558Y110D01*
X0Y109D02*
X7Y109D01*
X2551Y109D02*
X2558Y109D01*
X0Y108D02*
X7Y108D01*
X2551Y108D02*
X2558Y108D01*
X0Y107D02*
X7Y107D01*
X2551Y107D02*
X2558Y107D01*
X0Y106D02*
X7Y106D01*
X2551Y106D02*
X2558Y106D01*
X0Y105D02*
X7Y105D01*
X2551Y105D02*
X2558Y105D01*
X0Y104D02*
X7Y104D01*
X2551Y104D02*
X2558Y104D01*
X0Y103D02*
X7Y103D01*
X2551Y103D02*
X2558Y103D01*
X0Y102D02*
X7Y102D01*
X2551Y102D02*
X2558Y102D01*
X0Y101D02*
X7Y101D01*
X2551Y101D02*
X2558Y101D01*
X0Y100D02*
X7Y100D01*
X2551Y100D02*
X2558Y100D01*
X0Y99D02*
X7Y99D01*
X2551Y99D02*
X2558Y99D01*
X0Y98D02*
X7Y98D01*
X2551Y98D02*
X2558Y98D01*
X0Y97D02*
X7Y97D01*
X2551Y97D02*
X2558Y97D01*
X0Y96D02*
X7Y96D01*
X2551Y96D02*
X2558Y96D01*
X0Y95D02*
X7Y95D01*
X2551Y95D02*
X2558Y95D01*
X0Y94D02*
X7Y94D01*
X2551Y94D02*
X2558Y94D01*
X0Y93D02*
X7Y93D01*
X2551Y93D02*
X2558Y93D01*
X0Y92D02*
X7Y92D01*
X2551Y92D02*
X2558Y92D01*
X0Y91D02*
X7Y91D01*
X2551Y91D02*
X2558Y91D01*
X0Y90D02*
X7Y90D01*
X2551Y90D02*
X2558Y90D01*
X0Y89D02*
X7Y89D01*
X2551Y89D02*
X2558Y89D01*
X0Y88D02*
X7Y88D01*
X2551Y88D02*
X2558Y88D01*
X0Y87D02*
X7Y87D01*
X2551Y87D02*
X2558Y87D01*
X0Y86D02*
X7Y86D01*
X2551Y86D02*
X2558Y86D01*
X0Y85D02*
X7Y85D01*
X2551Y85D02*
X2558Y85D01*
X0Y84D02*
X7Y84D01*
X2551Y84D02*
X2558Y84D01*
X0Y83D02*
X7Y83D01*
X2551Y83D02*
X2558Y83D01*
X0Y82D02*
X7Y82D01*
X2551Y82D02*
X2558Y82D01*
X0Y81D02*
X7Y81D01*
X2551Y81D02*
X2558Y81D01*
X0Y80D02*
X7Y80D01*
X2551Y80D02*
X2558Y80D01*
X0Y79D02*
X7Y79D01*
X2551Y79D02*
X2558Y79D01*
X0Y78D02*
X7Y78D01*
X2551Y78D02*
X2558Y78D01*
X0Y77D02*
X7Y77D01*
X2551Y77D02*
X2558Y77D01*
X0Y76D02*
X7Y76D01*
X2551Y76D02*
X2558Y76D01*
X0Y75D02*
X7Y75D01*
X2551Y75D02*
X2558Y75D01*
X0Y74D02*
X7Y74D01*
X2551Y74D02*
X2558Y74D01*
X0Y73D02*
X7Y73D01*
X2551Y73D02*
X2558Y73D01*
X0Y72D02*
X7Y72D01*
X2551Y72D02*
X2558Y72D01*
X0Y71D02*
X7Y71D01*
X2551Y71D02*
X2558Y71D01*
X0Y70D02*
X7Y70D01*
X2551Y70D02*
X2558Y70D01*
X0Y69D02*
X7Y69D01*
X2551Y69D02*
X2558Y69D01*
X0Y68D02*
X7Y68D01*
X2551Y68D02*
X2558Y68D01*
X0Y67D02*
X7Y67D01*
X2551Y67D02*
X2558Y67D01*
X0Y66D02*
X7Y66D01*
X2551Y66D02*
X2558Y66D01*
X0Y65D02*
X7Y65D01*
X2551Y65D02*
X2558Y65D01*
X0Y64D02*
X7Y64D01*
X2551Y64D02*
X2558Y64D01*
X0Y63D02*
X7Y63D01*
X2551Y63D02*
X2558Y63D01*
X0Y62D02*
X7Y62D01*
X2551Y62D02*
X2558Y62D01*
X0Y61D02*
X7Y61D01*
X2551Y61D02*
X2558Y61D01*
X0Y60D02*
X7Y60D01*
X2551Y60D02*
X2558Y60D01*
X0Y59D02*
X7Y59D01*
X2551Y59D02*
X2558Y59D01*
X0Y58D02*
X7Y58D01*
X2551Y58D02*
X2558Y58D01*
X0Y57D02*
X7Y57D01*
X2551Y57D02*
X2558Y57D01*
X0Y56D02*
X7Y56D01*
X2551Y56D02*
X2558Y56D01*
X0Y55D02*
X7Y55D01*
X2551Y55D02*
X2558Y55D01*
X0Y54D02*
X7Y54D01*
X2551Y54D02*
X2558Y54D01*
X0Y53D02*
X7Y53D01*
X2551Y53D02*
X2558Y53D01*
X0Y52D02*
X7Y52D01*
X2551Y52D02*
X2558Y52D01*
X0Y51D02*
X7Y51D01*
X2551Y51D02*
X2558Y51D01*
X0Y50D02*
X7Y50D01*
X2551Y50D02*
X2558Y50D01*
X0Y49D02*
X7Y49D01*
X2551Y49D02*
X2558Y49D01*
X0Y48D02*
X7Y48D01*
X2551Y48D02*
X2558Y48D01*
X0Y47D02*
X7Y47D01*
X2551Y47D02*
X2558Y47D01*
X0Y46D02*
X7Y46D01*
X2551Y46D02*
X2558Y46D01*
X0Y45D02*
X7Y45D01*
X2551Y45D02*
X2558Y45D01*
X0Y44D02*
X7Y44D01*
X2551Y44D02*
X2558Y44D01*
X0Y43D02*
X7Y43D01*
X2551Y43D02*
X2558Y43D01*
X0Y42D02*
X7Y42D01*
X2551Y42D02*
X2558Y42D01*
X0Y41D02*
X7Y41D01*
X2551Y41D02*
X2558Y41D01*
X0Y40D02*
X7Y40D01*
X2551Y40D02*
X2558Y40D01*
X0Y39D02*
X7Y39D01*
X2551Y39D02*
X2558Y39D01*
X0Y38D02*
X7Y38D01*
X2551Y38D02*
X2558Y38D01*
X0Y37D02*
X7Y37D01*
X2551Y37D02*
X2558Y37D01*
X0Y36D02*
X7Y36D01*
X2551Y36D02*
X2558Y36D01*
X0Y35D02*
X7Y35D01*
X2551Y35D02*
X2558Y35D01*
X0Y34D02*
X7Y34D01*
X2551Y34D02*
X2558Y34D01*
X0Y33D02*
X7Y33D01*
X2551Y33D02*
X2558Y33D01*
X0Y32D02*
X7Y32D01*
X2551Y32D02*
X2558Y32D01*
X0Y31D02*
X7Y31D01*
X2551Y31D02*
X2558Y31D01*
X0Y30D02*
X7Y30D01*
X2551Y30D02*
X2558Y30D01*
X0Y29D02*
X7Y29D01*
X2551Y29D02*
X2558Y29D01*
X0Y28D02*
X7Y28D01*
X2551Y28D02*
X2558Y28D01*
X0Y27D02*
X7Y27D01*
X2551Y27D02*
X2558Y27D01*
X0Y26D02*
X7Y26D01*
X2551Y26D02*
X2558Y26D01*
X0Y25D02*
X7Y25D01*
X2551Y25D02*
X2558Y25D01*
X0Y24D02*
X7Y24D01*
X2551Y24D02*
X2558Y24D01*
X0Y23D02*
X7Y23D01*
X2551Y23D02*
X2558Y23D01*
X0Y22D02*
X7Y22D01*
X2551Y22D02*
X2558Y22D01*
X0Y21D02*
X7Y21D01*
X2551Y21D02*
X2558Y21D01*
X0Y20D02*
X7Y20D01*
X2551Y20D02*
X2558Y20D01*
X0Y19D02*
X7Y19D01*
X2551Y19D02*
X2558Y19D01*
X0Y18D02*
X7Y18D01*
X2551Y18D02*
X2558Y18D01*
X0Y17D02*
X7Y17D01*
X2551Y17D02*
X2558Y17D01*
X0Y16D02*
X7Y16D01*
X2551Y16D02*
X2558Y16D01*
X0Y15D02*
X7Y15D01*
X2551Y15D02*
X2558Y15D01*
X0Y14D02*
X7Y14D01*
X2551Y14D02*
X2558Y14D01*
X0Y13D02*
X7Y13D01*
X2551Y13D02*
X2558Y13D01*
X0Y12D02*
X7Y12D01*
X2551Y12D02*
X2558Y12D01*
X0Y11D02*
X7Y11D01*
X2551Y11D02*
X2558Y11D01*
X0Y10D02*
X7Y10D01*
X2551Y10D02*
X2558Y10D01*
X0Y9D02*
X2558Y9D01*
X0Y8D02*
X2558Y8D01*
X0Y7D02*
X2558Y7D01*
X0Y6D02*
X2558Y6D01*
X0Y5D02*
X2558Y5D01*
X0Y4D02*
X2558Y4D01*
X0Y3D02*
X2558Y3D01*
X0Y2D02*
X2558Y2D01*
D02*
G04 End of Silk0*
M02*