G04 MADE WITH FRITZING*
G04 WWW.FRITZING.ORG*
G04 DOUBLE SIDED*
G04 HOLES PLATED*
G04 CONTOUR ON CENTER OF CONTOUR VECTOR*
%ASAXBY*%
%FSLAX23Y23*%
%MOIN*%
%OFA0B0*%
%SFA1.0B1.0*%
%ADD10C,0.085000*%
%ADD11C,0.088000*%
%ADD12C,0.150000*%
%ADD13C,0.080000*%
%ADD14C,0.092000*%
%ADD15C,0.072992*%
%ADD16C,0.049370*%
%ADD17C,0.206851*%
%ADD18C,0.109055*%
%ADD19C,0.085433*%
%ADD20R,0.085000X0.085000*%
%ADD21R,0.065556X0.065556*%
%ADD22R,0.092000X0.092000*%
%ADD23R,0.072992X0.072992*%
%ADD24R,0.109055X0.109055*%
%ADD25C,0.030000*%
%LNMASK1*%
G90*
G70*
G54D10*
X244Y703D03*
X344Y703D03*
X444Y703D03*
X544Y703D03*
X644Y703D03*
X744Y703D03*
X244Y1503D03*
X344Y1503D03*
X444Y1503D03*
X544Y1503D03*
X644Y1503D03*
X744Y1503D03*
G54D11*
X2495Y527D03*
X2495Y627D03*
X2495Y727D03*
X2495Y827D03*
X2495Y927D03*
X2495Y1027D03*
G54D10*
X2226Y1350D03*
X1970Y1350D03*
X2226Y1527D03*
X1970Y1527D03*
G54D12*
X550Y472D03*
X310Y472D03*
X430Y282D03*
G54D10*
X2345Y1002D03*
X2345Y702D03*
X2245Y1002D03*
X2245Y702D03*
X2145Y1002D03*
X2145Y702D03*
X2045Y1002D03*
X2045Y702D03*
X1945Y1002D03*
X1945Y702D03*
X1845Y1002D03*
X1845Y702D03*
X1745Y1002D03*
X1745Y702D03*
X1645Y1002D03*
X1645Y702D03*
X1545Y1002D03*
X1545Y702D03*
X1445Y1002D03*
X1445Y702D03*
X1345Y1002D03*
X1345Y702D03*
X1245Y1002D03*
X1245Y702D03*
X1145Y1002D03*
X1145Y702D03*
X1045Y1002D03*
X1045Y702D03*
G54D13*
X1320Y227D03*
X1420Y227D03*
X820Y227D03*
X920Y227D03*
X1720Y1152D03*
X1820Y1152D03*
G54D14*
X1095Y127D03*
X995Y127D03*
X895Y127D03*
X1520Y127D03*
X1420Y127D03*
X1320Y127D03*
X1970Y127D03*
X1870Y127D03*
X1770Y127D03*
G54D10*
X1995Y377D03*
X1695Y377D03*
X1145Y1452D03*
X1245Y1452D03*
X1145Y1352D03*
X1245Y1352D03*
X1145Y1252D03*
X1245Y1252D03*
G54D13*
X1545Y602D03*
X1645Y602D03*
G54D10*
X670Y952D03*
G54D11*
X2270Y1152D03*
X2170Y1152D03*
X2070Y1152D03*
X1970Y1152D03*
G54D14*
X1995Y277D03*
X1697Y277D03*
G54D10*
X745Y1027D03*
G54D15*
X1470Y1526D03*
X1470Y1427D03*
X1470Y1229D03*
X1470Y1327D03*
G54D11*
X1770Y1502D03*
X1870Y1502D03*
G54D16*
X1895Y1127D03*
G54D10*
X1820Y1327D03*
X1720Y1327D03*
G54D11*
X1745Y577D03*
X1845Y577D03*
X1945Y577D03*
X2045Y577D03*
X2145Y577D03*
X2245Y577D03*
X2345Y577D03*
G54D10*
X895Y1177D03*
G54D11*
X1320Y327D03*
X1220Y327D03*
X1120Y327D03*
G54D10*
X1620Y1502D03*
X1620Y1402D03*
X1620Y1302D03*
X545Y177D03*
X545Y77D03*
G54D14*
X719Y55D03*
X719Y353D03*
G54D13*
X395Y152D03*
X395Y52D03*
X295Y152D03*
X295Y52D03*
G54D17*
X2420Y1452D03*
X120Y127D03*
G54D13*
X2495Y1127D03*
X2394Y1127D03*
G54D10*
X2495Y1227D03*
X2395Y1227D03*
X2095Y927D03*
X820Y752D03*
G54D11*
X1020Y552D03*
X920Y552D03*
X820Y552D03*
X720Y552D03*
G54D10*
X820Y1102D03*
X895Y1027D03*
X1445Y852D03*
X1345Y1452D03*
G54D18*
X2295Y327D03*
X2295Y127D03*
G54D19*
X945Y1502D03*
X595Y1277D03*
G54D11*
X1270Y1127D03*
X1170Y1127D03*
X1070Y1127D03*
G54D20*
X244Y703D03*
G54D21*
X545Y702D03*
X646Y704D03*
X744Y700D03*
X748Y1500D03*
X643Y1505D03*
X548Y1506D03*
X443Y1506D03*
X343Y1505D03*
X245Y701D03*
X245Y1503D03*
X347Y705D03*
X450Y703D03*
G54D20*
X2345Y1002D03*
G54D22*
X1095Y127D03*
X1520Y127D03*
X1970Y127D03*
G54D20*
X1145Y1452D03*
G54D22*
X1996Y277D03*
G54D23*
X1470Y1526D03*
X1470Y1229D03*
G54D20*
X1820Y1327D03*
X1620Y1402D03*
X545Y177D03*
X2495Y1227D03*
G54D24*
X2295Y327D03*
G54D25*
G36*
X1967Y350D02*
X1967Y405D01*
X2022Y405D01*
X2022Y350D01*
X1967Y350D01*
G37*
D02*
G36*
X688Y85D02*
X750Y85D01*
X750Y23D01*
X688Y23D01*
X688Y85D01*
G37*
D02*
G04 End of Mask1*
M02*