G04 MADE WITH FRITZING*
G04 WWW.FRITZING.ORG*
G04 DOUBLE SIDED*
G04 HOLES PLATED*
G04 CONTOUR ON CENTER OF CONTOUR VECTOR*
%ASAXBY*%
%FSLAX23Y23*%
%MOIN*%
%OFA0B0*%
%SFA1.0B1.0*%
%ADD10C,0.075000*%
%ADD11C,0.078000*%
%ADD12C,0.140000*%
%ADD13C,0.070000*%
%ADD14C,0.082000*%
%ADD15C,0.062992*%
%ADD16C,0.039370*%
%ADD17C,0.196851*%
%ADD18C,0.099055*%
%ADD19C,0.075433*%
%ADD20R,0.075000X0.075000*%
%ADD21R,0.055556X0.055556*%
%ADD22R,0.082000X0.082000*%
%ADD23R,0.062992X0.062992*%
%ADD24R,0.099055X0.099055*%
%ADD25C,0.024000*%
%ADD26C,0.048000*%
%ADD27C,0.020000*%
%LNCOPPER1*%
G90*
G70*
G54D10*
X113Y1357D03*
X2087Y1355D03*
X629Y1382D03*
X1360Y1320D03*
X1562Y878D03*
X926Y375D03*
X1135Y591D03*
X244Y703D03*
X344Y703D03*
X444Y703D03*
X544Y703D03*
X644Y703D03*
X744Y703D03*
X244Y1503D03*
X344Y1503D03*
X444Y1503D03*
X544Y1503D03*
X644Y1503D03*
X744Y1503D03*
G54D11*
X2495Y527D03*
X2495Y627D03*
X2495Y727D03*
X2495Y827D03*
X2495Y927D03*
X2495Y1027D03*
G54D10*
X2226Y1350D03*
X1970Y1350D03*
X2226Y1527D03*
X1970Y1527D03*
G54D12*
X550Y472D03*
X310Y472D03*
X430Y282D03*
G54D10*
X2345Y1002D03*
X2345Y702D03*
X2245Y1002D03*
X2245Y702D03*
X2145Y1002D03*
X2145Y702D03*
X2045Y1002D03*
X2045Y702D03*
X1945Y1002D03*
X1945Y702D03*
X1845Y1002D03*
X1845Y702D03*
X1745Y1002D03*
X1745Y702D03*
X1645Y1002D03*
X1645Y702D03*
X1545Y1002D03*
X1545Y702D03*
X1445Y1002D03*
X1445Y702D03*
X1345Y1002D03*
X1345Y702D03*
X1245Y1002D03*
X1245Y702D03*
X1145Y1002D03*
X1145Y702D03*
X1045Y1002D03*
X1045Y702D03*
G54D13*
X1320Y227D03*
X1420Y227D03*
X820Y227D03*
X920Y227D03*
X1720Y1152D03*
X1820Y1152D03*
G54D14*
X1095Y127D03*
X995Y127D03*
X895Y127D03*
X1520Y127D03*
X1420Y127D03*
X1320Y127D03*
X1970Y127D03*
X1870Y127D03*
X1770Y127D03*
G54D10*
X1995Y377D03*
X1695Y377D03*
X1145Y1452D03*
X1245Y1452D03*
X1145Y1352D03*
X1245Y1352D03*
X1145Y1252D03*
X1245Y1252D03*
G54D13*
X1545Y602D03*
X1645Y602D03*
G54D10*
X670Y952D03*
G54D11*
X2270Y1152D03*
X2170Y1152D03*
X2070Y1152D03*
X1970Y1152D03*
G54D14*
X1995Y277D03*
X1697Y277D03*
G54D10*
X745Y1027D03*
G54D15*
X1470Y1526D03*
X1470Y1427D03*
X1470Y1229D03*
X1470Y1327D03*
G54D11*
X1770Y1502D03*
X1870Y1502D03*
G54D16*
X1895Y1127D03*
G54D10*
X1820Y1327D03*
X1720Y1327D03*
G54D11*
X1745Y577D03*
X1845Y577D03*
X1945Y577D03*
X2045Y577D03*
X2145Y577D03*
X2245Y577D03*
X2345Y577D03*
G54D10*
X895Y1177D03*
G54D11*
X1320Y327D03*
X1220Y327D03*
X1120Y327D03*
G54D10*
X1620Y1502D03*
X1620Y1402D03*
X1620Y1302D03*
X545Y177D03*
X545Y77D03*
G54D14*
X719Y55D03*
X719Y353D03*
G54D13*
X395Y152D03*
X395Y52D03*
X295Y152D03*
X295Y52D03*
G54D17*
X2420Y1452D03*
X120Y127D03*
G54D13*
X2495Y1127D03*
X2394Y1127D03*
G54D10*
X2495Y1227D03*
X2395Y1227D03*
X2095Y927D03*
X820Y752D03*
G54D11*
X1020Y552D03*
X920Y552D03*
X820Y552D03*
X720Y552D03*
G54D10*
X820Y1102D03*
X895Y1027D03*
X1445Y852D03*
X1345Y1452D03*
G54D18*
X2295Y327D03*
X2295Y127D03*
G54D19*
X945Y1502D03*
X595Y1277D03*
G54D11*
X1270Y1127D03*
X1170Y1127D03*
X1070Y1127D03*
G54D20*
X244Y703D03*
G54D21*
X545Y702D03*
X646Y704D03*
X744Y700D03*
X748Y1500D03*
X643Y1505D03*
X548Y1506D03*
X443Y1506D03*
X343Y1505D03*
X245Y701D03*
X245Y1503D03*
X347Y705D03*
X450Y703D03*
G54D20*
X2345Y1002D03*
G54D22*
X1095Y127D03*
X1520Y127D03*
X1970Y127D03*
G54D20*
X1145Y1452D03*
G54D22*
X1996Y277D03*
G54D23*
X1470Y1526D03*
X1470Y1229D03*
G54D20*
X1820Y1327D03*
X1620Y1402D03*
X545Y177D03*
X2495Y1227D03*
G54D24*
X2295Y327D03*
G54D25*
X2423Y1227D02*
X2466Y1227D01*
D02*
X945Y977D02*
X970Y1002D01*
D02*
X970Y1002D02*
X970Y1177D01*
D02*
X970Y1177D02*
X995Y1203D01*
D02*
X995Y1203D02*
X995Y1427D01*
D02*
X945Y878D02*
X945Y977D01*
D02*
X1044Y777D02*
X945Y878D01*
D02*
X1269Y777D02*
X1044Y777D01*
D02*
X1324Y722D02*
X1269Y777D01*
D02*
X1820Y1102D02*
X1820Y1126D01*
D02*
X1762Y1025D02*
X1820Y1102D01*
D02*
X1720Y1102D02*
X1720Y1126D01*
D02*
X1662Y1025D02*
X1720Y1102D01*
D02*
X820Y1427D02*
X995Y1427D01*
D02*
X772Y1476D02*
X820Y1427D01*
D02*
X2170Y1077D02*
X2170Y1122D01*
D02*
X2224Y1023D02*
X2170Y1077D01*
D02*
X2069Y1077D02*
X2070Y1122D01*
D02*
X2124Y1022D02*
X2069Y1077D01*
D02*
X1870Y1202D02*
X1838Y1171D01*
D02*
X1894Y1202D02*
X1870Y1202D01*
D02*
X1920Y1227D02*
X1894Y1202D01*
D02*
X1970Y1227D02*
X1920Y1227D01*
D02*
X1970Y1182D02*
X1970Y1227D01*
D02*
X377Y1505D02*
X409Y1506D01*
D02*
X695Y477D02*
X819Y476D01*
D02*
X594Y577D02*
X695Y477D01*
D02*
X170Y577D02*
X594Y577D01*
D02*
X119Y627D02*
X170Y577D01*
D02*
X119Y1177D02*
X119Y627D01*
D02*
X419Y1482D02*
X119Y1177D01*
D02*
X1520Y1077D02*
X1465Y1022D01*
D02*
X1545Y1077D02*
X1520Y1077D01*
D02*
X1595Y1128D02*
X1545Y1077D01*
D02*
X1595Y1202D02*
X1595Y1128D01*
D02*
X1620Y1228D02*
X1595Y1202D01*
D02*
X1620Y1274D02*
X1620Y1228D01*
D02*
X1645Y1102D02*
X1565Y1022D01*
D02*
X1645Y1177D02*
X1645Y1102D01*
D02*
X1694Y1227D02*
X1645Y1177D01*
D02*
X1720Y1227D02*
X1694Y1227D01*
D02*
X1799Y1307D02*
X1720Y1227D01*
D02*
X1119Y452D02*
X1119Y357D01*
D02*
X1095Y476D02*
X1119Y452D01*
D02*
X819Y476D02*
X1095Y476D01*
D02*
X1726Y601D02*
X1663Y680D01*
D02*
X1845Y607D02*
X1845Y674D01*
D02*
X1945Y607D02*
X1945Y674D01*
D02*
X2045Y607D02*
X2045Y674D01*
D02*
X2145Y607D02*
X2145Y674D01*
D02*
X2245Y607D02*
X2245Y674D01*
D02*
X2345Y607D02*
X2345Y674D01*
D02*
X1970Y1227D02*
X2366Y1227D01*
D02*
X1744Y927D02*
X1745Y974D01*
D02*
X2345Y878D02*
X2145Y877D01*
D02*
X2120Y852D02*
X2070Y853D01*
D02*
X2145Y877D02*
X2120Y852D01*
D02*
X2070Y853D02*
X2045Y877D01*
D02*
X2045Y877D02*
X1895Y877D01*
D02*
X1895Y877D02*
X1845Y927D01*
D02*
X1845Y927D02*
X1744Y927D01*
D02*
X2473Y749D02*
X2345Y878D01*
D02*
X1745Y903D02*
X1620Y778D01*
D02*
X1620Y778D02*
X1565Y723D01*
D02*
X1744Y927D02*
X1745Y903D01*
D02*
X819Y476D02*
X820Y253D01*
D02*
X1520Y1128D02*
X1470Y1127D01*
D02*
X1470Y1127D02*
X1365Y1022D01*
D02*
X1545Y1152D02*
X1520Y1128D01*
D02*
X1545Y1502D02*
X1545Y1152D01*
D02*
X1520Y1527D02*
X1545Y1502D01*
D02*
X1497Y1527D02*
X1520Y1527D01*
D02*
X1320Y1077D02*
X1265Y1022D01*
D02*
X1345Y1077D02*
X1320Y1077D01*
D02*
X1453Y1208D02*
X1345Y1077D01*
D02*
X948Y659D02*
X945Y802D01*
D02*
X945Y802D02*
X894Y851D01*
D02*
X894Y851D02*
X895Y999D01*
D02*
X920Y627D02*
X948Y659D01*
D02*
X920Y582D02*
X920Y627D01*
D02*
X745Y999D02*
X745Y733D01*
D02*
X945Y1353D02*
X920Y1378D01*
D02*
X920Y1378D02*
X769Y1378D01*
D02*
X769Y1378D02*
X667Y1481D01*
D02*
X945Y1228D02*
X945Y1353D01*
D02*
X915Y1198D02*
X945Y1228D01*
D02*
X670Y802D02*
X670Y924D01*
D02*
X545Y753D02*
X570Y777D01*
D02*
X570Y777D02*
X645Y777D01*
D02*
X645Y777D02*
X670Y802D01*
D02*
X545Y736D02*
X545Y753D01*
D02*
X820Y677D02*
X769Y628D01*
D02*
X769Y628D02*
X194Y628D01*
D02*
X194Y628D02*
X170Y652D01*
D02*
X170Y652D02*
X170Y1128D01*
D02*
X170Y1128D02*
X524Y1482D01*
D02*
X820Y724D02*
X820Y677D01*
D02*
X895Y678D02*
X894Y777D01*
D02*
X894Y777D02*
X820Y851D01*
D02*
X820Y851D02*
X820Y1074D01*
D02*
X820Y602D02*
X895Y678D01*
D02*
X820Y582D02*
X820Y602D01*
D02*
X1919Y927D02*
X2066Y927D01*
D02*
X1865Y982D02*
X1919Y927D01*
D02*
X1919Y1077D02*
X1994Y1077D01*
D02*
X1994Y1077D02*
X2029Y1026D01*
D02*
X1894Y1102D02*
X1919Y1077D01*
D02*
X1895Y1108D02*
X1894Y1102D01*
D02*
X1070Y1452D02*
X1116Y1452D01*
D02*
X1044Y1427D02*
X1070Y1452D01*
D02*
X995Y1427D02*
X1044Y1427D01*
D02*
X1265Y1373D02*
X1324Y1432D01*
D02*
X1895Y1377D02*
X1895Y1278D01*
D02*
X1869Y1402D02*
X1895Y1377D01*
D02*
X1820Y1252D02*
X1738Y1171D01*
D02*
X1870Y1252D02*
X1820Y1252D01*
D02*
X1895Y1278D02*
X1870Y1252D01*
D02*
X1870Y1472D02*
X1869Y1402D01*
D02*
X1869Y1402D02*
X1648Y1402D01*
G54D26*
D02*
X1517Y42D02*
X1519Y84D01*
D02*
X762Y55D02*
X819Y55D01*
D02*
X2170Y327D02*
X2243Y327D01*
D02*
X2121Y276D02*
X2170Y327D01*
D02*
X2069Y276D02*
X2121Y276D01*
D02*
X2070Y77D02*
X2069Y276D01*
D02*
X2042Y42D02*
X2070Y77D01*
D02*
X1517Y42D02*
X2042Y42D01*
D02*
X2069Y276D02*
X2038Y277D01*
G54D25*
D02*
X1920Y1527D02*
X1897Y1516D01*
D02*
X1941Y1527D02*
X1920Y1527D01*
D02*
X2244Y953D02*
X2269Y927D01*
D02*
X2394Y927D02*
X2473Y849D01*
D02*
X2269Y927D02*
X2394Y927D01*
D02*
X2244Y974D02*
X2244Y953D01*
G54D26*
D02*
X831Y42D02*
X1517Y42D01*
D02*
X819Y55D02*
X831Y42D01*
G54D25*
D02*
X1695Y502D02*
X2370Y502D01*
D02*
X2370Y502D02*
X2420Y552D01*
D02*
X2420Y552D02*
X2420Y728D01*
D02*
X2420Y728D02*
X2370Y777D01*
D02*
X2370Y777D02*
X1820Y777D01*
D02*
X1820Y777D02*
X1765Y722D01*
D02*
X1645Y576D02*
X1645Y552D01*
D02*
X1645Y552D02*
X1695Y502D01*
D02*
X1420Y1277D02*
X1395Y1253D01*
D02*
X1420Y1328D02*
X1420Y1277D01*
D02*
X1395Y1253D02*
X1273Y1252D01*
D02*
X1443Y1327D02*
X1420Y1328D01*
D02*
X1420Y1427D02*
X1443Y1427D01*
D02*
X1420Y1328D02*
X1420Y1427D01*
D02*
X1369Y1527D02*
X1020Y1528D01*
D02*
X995Y1502D02*
X973Y1502D01*
D02*
X1020Y1528D02*
X995Y1502D01*
D02*
X1420Y1477D02*
X1369Y1527D01*
D02*
X1420Y1427D02*
X1420Y1477D01*
D02*
X1069Y1077D02*
X1124Y1022D01*
D02*
X1069Y1097D02*
X1069Y1077D01*
D02*
X2220Y1452D02*
X2350Y1452D01*
D02*
X2223Y1499D02*
X2220Y1452D01*
G36*
X40Y1535D02*
X40Y1441D01*
X234Y1441D01*
X234Y1443D01*
X228Y1443D01*
X228Y1445D01*
X222Y1445D01*
X222Y1447D01*
X218Y1447D01*
X218Y1449D01*
X192Y1449D01*
X192Y1473D01*
X190Y1473D01*
X190Y1477D01*
X188Y1477D01*
X188Y1481D01*
X186Y1481D01*
X186Y1485D01*
X184Y1485D01*
X184Y1491D01*
X182Y1491D01*
X182Y1515D01*
X184Y1515D01*
X184Y1535D01*
X40Y1535D01*
G37*
D02*
G36*
X296Y1451D02*
X296Y1449D01*
X268Y1449D01*
X268Y1447D01*
X264Y1447D01*
X264Y1445D01*
X260Y1445D01*
X260Y1443D01*
X254Y1443D01*
X254Y1441D01*
X316Y1441D01*
X316Y1451D01*
X296Y1451D01*
G37*
D02*
G36*
X40Y1441D02*
X40Y1439D01*
X316Y1439D01*
X316Y1441D01*
X40Y1441D01*
G37*
D02*
G36*
X40Y1441D02*
X40Y1439D01*
X316Y1439D01*
X316Y1441D01*
X40Y1441D01*
G37*
D02*
G36*
X40Y1439D02*
X40Y377D01*
X302Y377D01*
X302Y379D01*
X290Y379D01*
X290Y381D01*
X284Y381D01*
X284Y383D01*
X278Y383D01*
X278Y385D01*
X274Y385D01*
X274Y387D01*
X270Y387D01*
X270Y389D01*
X266Y389D01*
X266Y391D01*
X264Y391D01*
X264Y393D01*
X260Y393D01*
X260Y395D01*
X258Y395D01*
X258Y397D01*
X254Y397D01*
X254Y399D01*
X252Y399D01*
X252Y401D01*
X250Y401D01*
X250Y403D01*
X248Y403D01*
X248Y405D01*
X246Y405D01*
X246Y407D01*
X244Y407D01*
X244Y409D01*
X242Y409D01*
X242Y411D01*
X240Y411D01*
X240Y413D01*
X238Y413D01*
X238Y415D01*
X236Y415D01*
X236Y417D01*
X234Y417D01*
X234Y421D01*
X232Y421D01*
X232Y423D01*
X230Y423D01*
X230Y427D01*
X228Y427D01*
X228Y429D01*
X226Y429D01*
X226Y433D01*
X224Y433D01*
X224Y437D01*
X222Y437D01*
X222Y441D01*
X220Y441D01*
X220Y447D01*
X218Y447D01*
X218Y453D01*
X216Y453D01*
X216Y465D01*
X214Y465D01*
X214Y479D01*
X216Y479D01*
X216Y491D01*
X218Y491D01*
X218Y497D01*
X220Y497D01*
X220Y503D01*
X222Y503D01*
X222Y507D01*
X224Y507D01*
X224Y511D01*
X226Y511D01*
X226Y515D01*
X228Y515D01*
X228Y519D01*
X230Y519D01*
X230Y521D01*
X232Y521D01*
X232Y541D01*
X160Y541D01*
X160Y543D01*
X154Y543D01*
X154Y545D01*
X150Y545D01*
X150Y547D01*
X148Y547D01*
X148Y549D01*
X144Y549D01*
X144Y551D01*
X142Y551D01*
X142Y553D01*
X140Y553D01*
X140Y555D01*
X138Y555D01*
X138Y557D01*
X136Y557D01*
X136Y559D01*
X134Y559D01*
X134Y561D01*
X132Y561D01*
X132Y563D01*
X130Y563D01*
X130Y565D01*
X128Y565D01*
X128Y567D01*
X126Y567D01*
X126Y569D01*
X124Y569D01*
X124Y571D01*
X122Y571D01*
X122Y573D01*
X120Y573D01*
X120Y575D01*
X118Y575D01*
X118Y577D01*
X116Y577D01*
X116Y579D01*
X114Y579D01*
X114Y581D01*
X112Y581D01*
X112Y583D01*
X110Y583D01*
X110Y585D01*
X108Y585D01*
X108Y587D01*
X106Y587D01*
X106Y589D01*
X104Y589D01*
X104Y591D01*
X102Y591D01*
X102Y593D01*
X100Y593D01*
X100Y595D01*
X98Y595D01*
X98Y597D01*
X96Y597D01*
X96Y599D01*
X94Y599D01*
X94Y601D01*
X92Y601D01*
X92Y603D01*
X90Y603D01*
X90Y607D01*
X88Y607D01*
X88Y609D01*
X86Y609D01*
X86Y613D01*
X84Y613D01*
X84Y619D01*
X82Y619D01*
X82Y1187D01*
X84Y1187D01*
X84Y1193D01*
X86Y1193D01*
X86Y1197D01*
X88Y1197D01*
X88Y1199D01*
X90Y1199D01*
X90Y1201D01*
X92Y1201D01*
X92Y1203D01*
X94Y1203D01*
X94Y1207D01*
X96Y1207D01*
X96Y1209D01*
X98Y1209D01*
X98Y1211D01*
X100Y1211D01*
X100Y1213D01*
X102Y1213D01*
X102Y1215D01*
X104Y1215D01*
X104Y1217D01*
X106Y1217D01*
X106Y1219D01*
X108Y1219D01*
X108Y1221D01*
X110Y1221D01*
X110Y1223D01*
X112Y1223D01*
X112Y1225D01*
X114Y1225D01*
X114Y1227D01*
X116Y1227D01*
X116Y1229D01*
X118Y1229D01*
X118Y1231D01*
X120Y1231D01*
X120Y1233D01*
X122Y1233D01*
X122Y1235D01*
X124Y1235D01*
X124Y1237D01*
X126Y1237D01*
X126Y1239D01*
X128Y1239D01*
X128Y1241D01*
X130Y1241D01*
X130Y1243D01*
X132Y1243D01*
X132Y1245D01*
X134Y1245D01*
X134Y1247D01*
X136Y1247D01*
X136Y1249D01*
X138Y1249D01*
X138Y1251D01*
X140Y1251D01*
X140Y1253D01*
X142Y1253D01*
X142Y1255D01*
X144Y1255D01*
X144Y1257D01*
X146Y1257D01*
X146Y1259D01*
X148Y1259D01*
X148Y1261D01*
X150Y1261D01*
X150Y1263D01*
X152Y1263D01*
X152Y1265D01*
X154Y1265D01*
X154Y1267D01*
X156Y1267D01*
X156Y1269D01*
X158Y1269D01*
X158Y1271D01*
X160Y1271D01*
X160Y1273D01*
X162Y1273D01*
X162Y1275D01*
X164Y1275D01*
X164Y1277D01*
X166Y1277D01*
X166Y1279D01*
X168Y1279D01*
X168Y1281D01*
X170Y1281D01*
X170Y1283D01*
X172Y1283D01*
X172Y1285D01*
X174Y1285D01*
X174Y1287D01*
X176Y1287D01*
X176Y1289D01*
X178Y1289D01*
X178Y1291D01*
X180Y1291D01*
X180Y1293D01*
X182Y1293D01*
X182Y1295D01*
X184Y1295D01*
X184Y1297D01*
X186Y1297D01*
X186Y1299D01*
X188Y1299D01*
X188Y1301D01*
X190Y1301D01*
X190Y1303D01*
X192Y1303D01*
X192Y1305D01*
X194Y1305D01*
X194Y1307D01*
X196Y1307D01*
X196Y1309D01*
X198Y1309D01*
X198Y1311D01*
X200Y1311D01*
X200Y1313D01*
X202Y1313D01*
X202Y1315D01*
X204Y1315D01*
X204Y1317D01*
X206Y1317D01*
X206Y1319D01*
X208Y1319D01*
X208Y1321D01*
X210Y1321D01*
X210Y1323D01*
X212Y1323D01*
X212Y1325D01*
X214Y1325D01*
X214Y1327D01*
X216Y1327D01*
X216Y1329D01*
X218Y1329D01*
X218Y1331D01*
X220Y1331D01*
X220Y1335D01*
X222Y1335D01*
X222Y1337D01*
X224Y1337D01*
X224Y1339D01*
X226Y1339D01*
X226Y1341D01*
X228Y1341D01*
X228Y1343D01*
X230Y1343D01*
X230Y1345D01*
X232Y1345D01*
X232Y1347D01*
X234Y1347D01*
X234Y1349D01*
X236Y1349D01*
X236Y1351D01*
X238Y1351D01*
X238Y1353D01*
X240Y1353D01*
X240Y1355D01*
X242Y1355D01*
X242Y1357D01*
X244Y1357D01*
X244Y1359D01*
X246Y1359D01*
X246Y1361D01*
X248Y1361D01*
X248Y1363D01*
X250Y1363D01*
X250Y1365D01*
X252Y1365D01*
X252Y1367D01*
X254Y1367D01*
X254Y1369D01*
X256Y1369D01*
X256Y1371D01*
X258Y1371D01*
X258Y1373D01*
X260Y1373D01*
X260Y1375D01*
X262Y1375D01*
X262Y1377D01*
X264Y1377D01*
X264Y1379D01*
X266Y1379D01*
X266Y1381D01*
X268Y1381D01*
X268Y1383D01*
X270Y1383D01*
X270Y1385D01*
X272Y1385D01*
X272Y1387D01*
X274Y1387D01*
X274Y1389D01*
X276Y1389D01*
X276Y1391D01*
X278Y1391D01*
X278Y1393D01*
X280Y1393D01*
X280Y1395D01*
X282Y1395D01*
X282Y1397D01*
X284Y1397D01*
X284Y1399D01*
X286Y1399D01*
X286Y1401D01*
X288Y1401D01*
X288Y1403D01*
X290Y1403D01*
X290Y1405D01*
X292Y1405D01*
X292Y1407D01*
X294Y1407D01*
X294Y1409D01*
X296Y1409D01*
X296Y1411D01*
X298Y1411D01*
X298Y1413D01*
X300Y1413D01*
X300Y1415D01*
X302Y1415D01*
X302Y1417D01*
X304Y1417D01*
X304Y1419D01*
X306Y1419D01*
X306Y1421D01*
X308Y1421D01*
X308Y1423D01*
X310Y1423D01*
X310Y1425D01*
X312Y1425D01*
X312Y1427D01*
X314Y1427D01*
X314Y1429D01*
X316Y1429D01*
X316Y1439D01*
X40Y1439D01*
G37*
D02*
G36*
X388Y541D02*
X388Y521D01*
X390Y521D01*
X390Y517D01*
X392Y517D01*
X392Y515D01*
X394Y515D01*
X394Y511D01*
X396Y511D01*
X396Y507D01*
X398Y507D01*
X398Y501D01*
X400Y501D01*
X400Y495D01*
X402Y495D01*
X402Y487D01*
X404Y487D01*
X404Y457D01*
X402Y457D01*
X402Y449D01*
X400Y449D01*
X400Y443D01*
X398Y443D01*
X398Y439D01*
X396Y439D01*
X396Y435D01*
X394Y435D01*
X394Y431D01*
X392Y431D01*
X392Y427D01*
X390Y427D01*
X390Y425D01*
X388Y425D01*
X388Y421D01*
X386Y421D01*
X386Y419D01*
X384Y419D01*
X384Y417D01*
X382Y417D01*
X382Y413D01*
X380Y413D01*
X380Y411D01*
X378Y411D01*
X378Y409D01*
X376Y409D01*
X376Y407D01*
X374Y407D01*
X374Y405D01*
X372Y405D01*
X372Y403D01*
X370Y403D01*
X370Y401D01*
X368Y401D01*
X368Y399D01*
X364Y399D01*
X364Y397D01*
X362Y397D01*
X362Y395D01*
X360Y395D01*
X360Y393D01*
X356Y393D01*
X356Y391D01*
X352Y391D01*
X352Y389D01*
X350Y389D01*
X350Y387D01*
X346Y387D01*
X346Y385D01*
X340Y385D01*
X340Y383D01*
X336Y383D01*
X336Y381D01*
X328Y381D01*
X328Y379D01*
X318Y379D01*
X318Y377D01*
X542Y377D01*
X542Y379D01*
X530Y379D01*
X530Y381D01*
X524Y381D01*
X524Y383D01*
X518Y383D01*
X518Y385D01*
X514Y385D01*
X514Y387D01*
X510Y387D01*
X510Y389D01*
X506Y389D01*
X506Y391D01*
X504Y391D01*
X504Y393D01*
X500Y393D01*
X500Y395D01*
X498Y395D01*
X498Y397D01*
X494Y397D01*
X494Y399D01*
X492Y399D01*
X492Y401D01*
X490Y401D01*
X490Y403D01*
X488Y403D01*
X488Y405D01*
X486Y405D01*
X486Y407D01*
X484Y407D01*
X484Y409D01*
X482Y409D01*
X482Y411D01*
X480Y411D01*
X480Y413D01*
X478Y413D01*
X478Y415D01*
X476Y415D01*
X476Y417D01*
X474Y417D01*
X474Y421D01*
X472Y421D01*
X472Y423D01*
X470Y423D01*
X470Y427D01*
X468Y427D01*
X468Y429D01*
X466Y429D01*
X466Y433D01*
X464Y433D01*
X464Y437D01*
X462Y437D01*
X462Y441D01*
X460Y441D01*
X460Y447D01*
X458Y447D01*
X458Y453D01*
X456Y453D01*
X456Y465D01*
X454Y465D01*
X454Y479D01*
X456Y479D01*
X456Y491D01*
X458Y491D01*
X458Y497D01*
X460Y497D01*
X460Y503D01*
X462Y503D01*
X462Y507D01*
X464Y507D01*
X464Y511D01*
X466Y511D01*
X466Y515D01*
X468Y515D01*
X468Y519D01*
X470Y519D01*
X470Y521D01*
X472Y521D01*
X472Y541D01*
X388Y541D01*
G37*
D02*
G36*
X642Y457D02*
X642Y449D01*
X640Y449D01*
X640Y443D01*
X638Y443D01*
X638Y439D01*
X636Y439D01*
X636Y435D01*
X634Y435D01*
X634Y431D01*
X632Y431D01*
X632Y427D01*
X630Y427D01*
X630Y425D01*
X628Y425D01*
X628Y421D01*
X626Y421D01*
X626Y419D01*
X730Y419D01*
X730Y417D01*
X736Y417D01*
X736Y415D01*
X742Y415D01*
X742Y413D01*
X746Y413D01*
X746Y411D01*
X748Y411D01*
X748Y409D01*
X752Y409D01*
X752Y407D01*
X754Y407D01*
X754Y405D01*
X756Y405D01*
X756Y403D01*
X760Y403D01*
X760Y401D01*
X762Y401D01*
X762Y399D01*
X782Y399D01*
X782Y439D01*
X746Y439D01*
X746Y441D01*
X684Y441D01*
X684Y443D01*
X678Y443D01*
X678Y445D01*
X676Y445D01*
X676Y447D01*
X672Y447D01*
X672Y449D01*
X670Y449D01*
X670Y451D01*
X668Y451D01*
X668Y453D01*
X666Y453D01*
X666Y455D01*
X664Y455D01*
X664Y457D01*
X642Y457D01*
G37*
D02*
G36*
X624Y419D02*
X624Y417D01*
X622Y417D01*
X622Y413D01*
X620Y413D01*
X620Y411D01*
X618Y411D01*
X618Y409D01*
X616Y409D01*
X616Y407D01*
X614Y407D01*
X614Y405D01*
X612Y405D01*
X612Y403D01*
X610Y403D01*
X610Y401D01*
X608Y401D01*
X608Y399D01*
X604Y399D01*
X604Y397D01*
X602Y397D01*
X602Y395D01*
X600Y395D01*
X600Y393D01*
X596Y393D01*
X596Y391D01*
X592Y391D01*
X592Y389D01*
X590Y389D01*
X590Y387D01*
X586Y387D01*
X586Y385D01*
X580Y385D01*
X580Y383D01*
X576Y383D01*
X576Y381D01*
X568Y381D01*
X568Y379D01*
X558Y379D01*
X558Y377D01*
X658Y377D01*
X658Y379D01*
X660Y379D01*
X660Y381D01*
X662Y381D01*
X662Y385D01*
X664Y385D01*
X664Y387D01*
X666Y387D01*
X666Y391D01*
X668Y391D01*
X668Y393D01*
X670Y393D01*
X670Y395D01*
X672Y395D01*
X672Y397D01*
X674Y397D01*
X674Y399D01*
X676Y399D01*
X676Y401D01*
X678Y401D01*
X678Y403D01*
X680Y403D01*
X680Y405D01*
X682Y405D01*
X682Y407D01*
X686Y407D01*
X686Y409D01*
X688Y409D01*
X688Y411D01*
X692Y411D01*
X692Y413D01*
X696Y413D01*
X696Y415D01*
X700Y415D01*
X700Y417D01*
X708Y417D01*
X708Y419D01*
X624Y419D01*
G37*
D02*
G36*
X40Y377D02*
X40Y375D01*
X414Y375D01*
X414Y377D01*
X40Y377D01*
G37*
D02*
G36*
X40Y377D02*
X40Y375D01*
X414Y375D01*
X414Y377D01*
X40Y377D01*
G37*
D02*
G36*
X444Y377D02*
X444Y375D01*
X658Y375D01*
X658Y377D01*
X444Y377D01*
G37*
D02*
G36*
X444Y377D02*
X444Y375D01*
X658Y375D01*
X658Y377D01*
X444Y377D01*
G37*
D02*
G36*
X40Y375D02*
X40Y251D01*
X132Y251D01*
X132Y249D01*
X144Y249D01*
X144Y247D01*
X150Y247D01*
X150Y245D01*
X156Y245D01*
X156Y243D01*
X162Y243D01*
X162Y241D01*
X166Y241D01*
X166Y239D01*
X170Y239D01*
X170Y237D01*
X174Y237D01*
X174Y235D01*
X178Y235D01*
X178Y233D01*
X180Y233D01*
X180Y231D01*
X184Y231D01*
X184Y229D01*
X186Y229D01*
X186Y227D01*
X188Y227D01*
X188Y225D01*
X192Y225D01*
X192Y223D01*
X194Y223D01*
X194Y221D01*
X196Y221D01*
X196Y219D01*
X198Y219D01*
X198Y217D01*
X200Y217D01*
X200Y215D01*
X202Y215D01*
X202Y213D01*
X300Y213D01*
X300Y211D01*
X310Y211D01*
X310Y209D01*
X314Y209D01*
X314Y207D01*
X318Y207D01*
X318Y205D01*
X322Y205D01*
X322Y203D01*
X324Y203D01*
X324Y201D01*
X328Y201D01*
X328Y199D01*
X330Y199D01*
X330Y197D01*
X332Y197D01*
X332Y195D01*
X334Y195D01*
X334Y193D01*
X354Y193D01*
X354Y195D01*
X358Y195D01*
X358Y197D01*
X360Y197D01*
X360Y199D01*
X362Y199D01*
X362Y221D01*
X360Y221D01*
X360Y223D01*
X358Y223D01*
X358Y225D01*
X356Y225D01*
X356Y227D01*
X354Y227D01*
X354Y231D01*
X352Y231D01*
X352Y233D01*
X350Y233D01*
X350Y237D01*
X348Y237D01*
X348Y239D01*
X346Y239D01*
X346Y243D01*
X344Y243D01*
X344Y247D01*
X342Y247D01*
X342Y251D01*
X340Y251D01*
X340Y257D01*
X338Y257D01*
X338Y263D01*
X336Y263D01*
X336Y275D01*
X334Y275D01*
X334Y289D01*
X336Y289D01*
X336Y301D01*
X338Y301D01*
X338Y307D01*
X340Y307D01*
X340Y313D01*
X342Y313D01*
X342Y317D01*
X344Y317D01*
X344Y321D01*
X346Y321D01*
X346Y325D01*
X348Y325D01*
X348Y329D01*
X350Y329D01*
X350Y331D01*
X352Y331D01*
X352Y335D01*
X354Y335D01*
X354Y337D01*
X356Y337D01*
X356Y339D01*
X358Y339D01*
X358Y343D01*
X360Y343D01*
X360Y345D01*
X362Y345D01*
X362Y347D01*
X364Y347D01*
X364Y349D01*
X366Y349D01*
X366Y351D01*
X368Y351D01*
X368Y353D01*
X370Y353D01*
X370Y355D01*
X374Y355D01*
X374Y357D01*
X376Y357D01*
X376Y359D01*
X378Y359D01*
X378Y361D01*
X382Y361D01*
X382Y363D01*
X384Y363D01*
X384Y365D01*
X388Y365D01*
X388Y367D01*
X392Y367D01*
X392Y369D01*
X396Y369D01*
X396Y371D01*
X400Y371D01*
X400Y373D01*
X406Y373D01*
X406Y375D01*
X40Y375D01*
G37*
D02*
G36*
X452Y375D02*
X452Y373D01*
X458Y373D01*
X458Y371D01*
X464Y371D01*
X464Y369D01*
X468Y369D01*
X468Y367D01*
X472Y367D01*
X472Y365D01*
X474Y365D01*
X474Y363D01*
X478Y363D01*
X478Y361D01*
X480Y361D01*
X480Y359D01*
X484Y359D01*
X484Y357D01*
X486Y357D01*
X486Y355D01*
X488Y355D01*
X488Y353D01*
X490Y353D01*
X490Y351D01*
X492Y351D01*
X492Y349D01*
X494Y349D01*
X494Y347D01*
X496Y347D01*
X496Y345D01*
X498Y345D01*
X498Y343D01*
X500Y343D01*
X500Y341D01*
X502Y341D01*
X502Y339D01*
X504Y339D01*
X504Y337D01*
X506Y337D01*
X506Y333D01*
X508Y333D01*
X508Y331D01*
X510Y331D01*
X510Y327D01*
X512Y327D01*
X512Y325D01*
X514Y325D01*
X514Y321D01*
X516Y321D01*
X516Y317D01*
X518Y317D01*
X518Y311D01*
X520Y311D01*
X520Y305D01*
X522Y305D01*
X522Y297D01*
X524Y297D01*
X524Y287D01*
X710Y287D01*
X710Y289D01*
X702Y289D01*
X702Y291D01*
X698Y291D01*
X698Y293D01*
X694Y293D01*
X694Y295D01*
X690Y295D01*
X690Y297D01*
X686Y297D01*
X686Y299D01*
X684Y299D01*
X684Y301D01*
X682Y301D01*
X682Y303D01*
X678Y303D01*
X678Y305D01*
X676Y305D01*
X676Y307D01*
X674Y307D01*
X674Y309D01*
X672Y309D01*
X672Y311D01*
X670Y311D01*
X670Y313D01*
X668Y313D01*
X668Y317D01*
X666Y317D01*
X666Y319D01*
X664Y319D01*
X664Y321D01*
X662Y321D01*
X662Y325D01*
X660Y325D01*
X660Y329D01*
X658Y329D01*
X658Y333D01*
X656Y333D01*
X656Y339D01*
X654Y339D01*
X654Y347D01*
X652Y347D01*
X652Y359D01*
X654Y359D01*
X654Y369D01*
X656Y369D01*
X656Y373D01*
X658Y373D01*
X658Y375D01*
X452Y375D01*
G37*
D02*
G36*
X762Y309D02*
X762Y307D01*
X760Y307D01*
X760Y305D01*
X758Y305D01*
X758Y303D01*
X756Y303D01*
X756Y301D01*
X754Y301D01*
X754Y299D01*
X750Y299D01*
X750Y297D01*
X748Y297D01*
X748Y295D01*
X744Y295D01*
X744Y293D01*
X740Y293D01*
X740Y291D01*
X734Y291D01*
X734Y289D01*
X726Y289D01*
X726Y287D01*
X782Y287D01*
X782Y309D01*
X762Y309D01*
G37*
D02*
G36*
X524Y287D02*
X524Y285D01*
X782Y285D01*
X782Y287D01*
X524Y287D01*
G37*
D02*
G36*
X524Y287D02*
X524Y285D01*
X782Y285D01*
X782Y287D01*
X524Y287D01*
G37*
D02*
G36*
X524Y285D02*
X524Y267D01*
X522Y267D01*
X522Y241D01*
X606Y241D01*
X606Y239D01*
X608Y239D01*
X608Y121D01*
X784Y121D01*
X784Y105D01*
X828Y105D01*
X828Y133D01*
X830Y133D01*
X830Y143D01*
X832Y143D01*
X832Y147D01*
X834Y147D01*
X834Y167D01*
X814Y167D01*
X814Y169D01*
X806Y169D01*
X806Y171D01*
X800Y171D01*
X800Y173D01*
X796Y173D01*
X796Y175D01*
X792Y175D01*
X792Y177D01*
X790Y177D01*
X790Y179D01*
X786Y179D01*
X786Y181D01*
X784Y181D01*
X784Y183D01*
X782Y183D01*
X782Y185D01*
X780Y185D01*
X780Y187D01*
X778Y187D01*
X778Y189D01*
X776Y189D01*
X776Y191D01*
X774Y191D01*
X774Y193D01*
X772Y193D01*
X772Y197D01*
X770Y197D01*
X770Y199D01*
X768Y199D01*
X768Y203D01*
X766Y203D01*
X766Y207D01*
X764Y207D01*
X764Y211D01*
X762Y211D01*
X762Y217D01*
X760Y217D01*
X760Y237D01*
X762Y237D01*
X762Y245D01*
X764Y245D01*
X764Y249D01*
X766Y249D01*
X766Y253D01*
X768Y253D01*
X768Y255D01*
X770Y255D01*
X770Y259D01*
X772Y259D01*
X772Y261D01*
X774Y261D01*
X774Y263D01*
X776Y263D01*
X776Y267D01*
X778Y267D01*
X778Y269D01*
X780Y269D01*
X780Y271D01*
X782Y271D01*
X782Y285D01*
X524Y285D01*
G37*
D02*
G36*
X40Y251D02*
X40Y233D01*
X62Y233D01*
X62Y235D01*
X66Y235D01*
X66Y237D01*
X70Y237D01*
X70Y239D01*
X74Y239D01*
X74Y241D01*
X78Y241D01*
X78Y243D01*
X82Y243D01*
X82Y245D01*
X88Y245D01*
X88Y247D01*
X96Y247D01*
X96Y249D01*
X106Y249D01*
X106Y251D01*
X40Y251D01*
G37*
D02*
G36*
X206Y213D02*
X206Y209D01*
X208Y209D01*
X208Y207D01*
X210Y207D01*
X210Y205D01*
X212Y205D01*
X212Y203D01*
X214Y203D01*
X214Y201D01*
X216Y201D01*
X216Y199D01*
X218Y199D01*
X218Y195D01*
X220Y195D01*
X220Y193D01*
X222Y193D01*
X222Y189D01*
X224Y189D01*
X224Y187D01*
X226Y187D01*
X226Y183D01*
X246Y183D01*
X246Y185D01*
X248Y185D01*
X248Y187D01*
X250Y187D01*
X250Y189D01*
X252Y189D01*
X252Y193D01*
X254Y193D01*
X254Y195D01*
X258Y195D01*
X258Y197D01*
X260Y197D01*
X260Y199D01*
X262Y199D01*
X262Y201D01*
X264Y201D01*
X264Y203D01*
X268Y203D01*
X268Y205D01*
X272Y205D01*
X272Y207D01*
X276Y207D01*
X276Y209D01*
X280Y209D01*
X280Y211D01*
X288Y211D01*
X288Y213D01*
X206Y213D01*
G37*
D02*
G36*
X608Y121D02*
X608Y115D01*
X604Y115D01*
X604Y91D01*
X606Y91D01*
X606Y81D01*
X608Y81D01*
X608Y75D01*
X606Y75D01*
X606Y63D01*
X604Y63D01*
X604Y41D01*
X652Y41D01*
X652Y119D01*
X654Y119D01*
X654Y121D01*
X608Y121D01*
G37*
D02*
G36*
X804Y1535D02*
X804Y1513D01*
X806Y1513D01*
X806Y1493D01*
X808Y1493D01*
X808Y1491D01*
X810Y1491D01*
X810Y1489D01*
X812Y1489D01*
X812Y1487D01*
X814Y1487D01*
X814Y1485D01*
X816Y1485D01*
X816Y1483D01*
X818Y1483D01*
X818Y1481D01*
X820Y1481D01*
X820Y1479D01*
X822Y1479D01*
X822Y1477D01*
X824Y1477D01*
X824Y1475D01*
X826Y1475D01*
X826Y1473D01*
X828Y1473D01*
X828Y1471D01*
X830Y1471D01*
X830Y1469D01*
X832Y1469D01*
X832Y1467D01*
X834Y1467D01*
X834Y1465D01*
X886Y1465D01*
X886Y1487D01*
X884Y1487D01*
X884Y1493D01*
X882Y1493D01*
X882Y1513D01*
X884Y1513D01*
X884Y1535D01*
X804Y1535D01*
G37*
D02*
G36*
X1006Y1535D02*
X1006Y1515D01*
X1354Y1515D01*
X1354Y1513D01*
X1360Y1513D01*
X1360Y1511D01*
X1366Y1511D01*
X1366Y1509D01*
X1370Y1509D01*
X1370Y1507D01*
X1374Y1507D01*
X1374Y1505D01*
X1376Y1505D01*
X1376Y1503D01*
X1378Y1503D01*
X1378Y1501D01*
X1382Y1501D01*
X1382Y1499D01*
X1384Y1499D01*
X1384Y1497D01*
X1386Y1497D01*
X1386Y1495D01*
X1388Y1495D01*
X1388Y1493D01*
X1390Y1493D01*
X1390Y1491D01*
X1392Y1491D01*
X1392Y1489D01*
X1394Y1489D01*
X1394Y1485D01*
X1414Y1485D01*
X1414Y1535D01*
X1006Y1535D01*
G37*
D02*
G36*
X1006Y1515D02*
X1006Y1507D01*
X1008Y1507D01*
X1008Y1497D01*
X1006Y1497D01*
X1006Y1489D01*
X1004Y1489D01*
X1004Y1465D01*
X1030Y1465D01*
X1030Y1467D01*
X1032Y1467D01*
X1032Y1469D01*
X1034Y1469D01*
X1034Y1471D01*
X1038Y1471D01*
X1038Y1473D01*
X1040Y1473D01*
X1040Y1475D01*
X1042Y1475D01*
X1042Y1477D01*
X1044Y1477D01*
X1044Y1479D01*
X1046Y1479D01*
X1046Y1481D01*
X1048Y1481D01*
X1048Y1483D01*
X1050Y1483D01*
X1050Y1485D01*
X1054Y1485D01*
X1054Y1487D01*
X1060Y1487D01*
X1060Y1489D01*
X1082Y1489D01*
X1082Y1515D01*
X1006Y1515D01*
G37*
D02*
G36*
X1208Y1515D02*
X1208Y1511D01*
X1228Y1511D01*
X1228Y1513D01*
X1236Y1513D01*
X1236Y1515D01*
X1208Y1515D01*
G37*
D02*
G36*
X1254Y1515D02*
X1254Y1513D01*
X1260Y1513D01*
X1260Y1511D01*
X1266Y1511D01*
X1266Y1509D01*
X1270Y1509D01*
X1270Y1507D01*
X1274Y1507D01*
X1274Y1505D01*
X1276Y1505D01*
X1276Y1503D01*
X1278Y1503D01*
X1278Y1501D01*
X1282Y1501D01*
X1282Y1499D01*
X1284Y1499D01*
X1284Y1497D01*
X1306Y1497D01*
X1306Y1499D01*
X1308Y1499D01*
X1308Y1501D01*
X1310Y1501D01*
X1310Y1503D01*
X1314Y1503D01*
X1314Y1505D01*
X1316Y1505D01*
X1316Y1507D01*
X1320Y1507D01*
X1320Y1509D01*
X1324Y1509D01*
X1324Y1511D01*
X1328Y1511D01*
X1328Y1513D01*
X1336Y1513D01*
X1336Y1515D01*
X1254Y1515D01*
G37*
D02*
G36*
X1680Y1535D02*
X1680Y1513D01*
X1682Y1513D01*
X1682Y1493D01*
X1680Y1493D01*
X1680Y1485D01*
X1678Y1485D01*
X1678Y1465D01*
X1682Y1465D01*
X1682Y1439D01*
X1758Y1439D01*
X1758Y1441D01*
X1752Y1441D01*
X1752Y1443D01*
X1748Y1443D01*
X1748Y1445D01*
X1744Y1445D01*
X1744Y1447D01*
X1740Y1447D01*
X1740Y1449D01*
X1738Y1449D01*
X1738Y1451D01*
X1734Y1451D01*
X1734Y1453D01*
X1732Y1453D01*
X1732Y1455D01*
X1730Y1455D01*
X1730Y1457D01*
X1728Y1457D01*
X1728Y1459D01*
X1726Y1459D01*
X1726Y1461D01*
X1724Y1461D01*
X1724Y1463D01*
X1722Y1463D01*
X1722Y1465D01*
X1720Y1465D01*
X1720Y1467D01*
X1718Y1467D01*
X1718Y1471D01*
X1716Y1471D01*
X1716Y1473D01*
X1714Y1473D01*
X1714Y1477D01*
X1712Y1477D01*
X1712Y1481D01*
X1710Y1481D01*
X1710Y1485D01*
X1708Y1485D01*
X1708Y1491D01*
X1706Y1491D01*
X1706Y1513D01*
X1708Y1513D01*
X1708Y1535D01*
X1680Y1535D01*
G37*
D02*
G36*
X2032Y1535D02*
X2032Y1517D01*
X2030Y1517D01*
X2030Y1511D01*
X2028Y1511D01*
X2028Y1507D01*
X2026Y1507D01*
X2026Y1503D01*
X2024Y1503D01*
X2024Y1499D01*
X2022Y1499D01*
X2022Y1495D01*
X2020Y1495D01*
X2020Y1493D01*
X2018Y1493D01*
X2018Y1491D01*
X2016Y1491D01*
X2016Y1489D01*
X2014Y1489D01*
X2014Y1487D01*
X2012Y1487D01*
X2012Y1485D01*
X2010Y1485D01*
X2010Y1483D01*
X2008Y1483D01*
X2008Y1481D01*
X2006Y1481D01*
X2006Y1479D01*
X2004Y1479D01*
X2004Y1477D01*
X2002Y1477D01*
X2002Y1475D01*
X1998Y1475D01*
X1998Y1473D01*
X1994Y1473D01*
X1994Y1471D01*
X1990Y1471D01*
X1990Y1469D01*
X1986Y1469D01*
X1986Y1467D01*
X1978Y1467D01*
X1978Y1465D01*
X2216Y1465D01*
X2216Y1467D01*
X2210Y1467D01*
X2210Y1469D01*
X2204Y1469D01*
X2204Y1471D01*
X2200Y1471D01*
X2200Y1473D01*
X2198Y1473D01*
X2198Y1475D01*
X2194Y1475D01*
X2194Y1477D01*
X2192Y1477D01*
X2192Y1479D01*
X2188Y1479D01*
X2188Y1481D01*
X2186Y1481D01*
X2186Y1483D01*
X2184Y1483D01*
X2184Y1485D01*
X2182Y1485D01*
X2182Y1487D01*
X2180Y1487D01*
X2180Y1489D01*
X2178Y1489D01*
X2178Y1493D01*
X2176Y1493D01*
X2176Y1495D01*
X2174Y1495D01*
X2174Y1497D01*
X2172Y1497D01*
X2172Y1501D01*
X2170Y1501D01*
X2170Y1505D01*
X2168Y1505D01*
X2168Y1509D01*
X2166Y1509D01*
X2166Y1515D01*
X2164Y1515D01*
X2164Y1535D01*
X2032Y1535D01*
G37*
D02*
G36*
X2288Y1535D02*
X2288Y1519D01*
X2286Y1519D01*
X2286Y1511D01*
X2284Y1511D01*
X2284Y1507D01*
X2282Y1507D01*
X2282Y1503D01*
X2280Y1503D01*
X2280Y1499D01*
X2278Y1499D01*
X2278Y1495D01*
X2276Y1495D01*
X2276Y1493D01*
X2274Y1493D01*
X2274Y1491D01*
X2272Y1491D01*
X2272Y1489D01*
X2270Y1489D01*
X2270Y1487D01*
X2268Y1487D01*
X2268Y1485D01*
X2266Y1485D01*
X2266Y1483D01*
X2264Y1483D01*
X2264Y1481D01*
X2262Y1481D01*
X2262Y1479D01*
X2260Y1479D01*
X2260Y1477D01*
X2258Y1477D01*
X2258Y1475D01*
X2254Y1475D01*
X2254Y1473D01*
X2250Y1473D01*
X2250Y1471D01*
X2246Y1471D01*
X2246Y1469D01*
X2242Y1469D01*
X2242Y1467D01*
X2234Y1467D01*
X2234Y1465D01*
X2298Y1465D01*
X2298Y1475D01*
X2300Y1475D01*
X2300Y1483D01*
X2302Y1483D01*
X2302Y1489D01*
X2304Y1489D01*
X2304Y1493D01*
X2306Y1493D01*
X2306Y1499D01*
X2308Y1499D01*
X2308Y1503D01*
X2310Y1503D01*
X2310Y1507D01*
X2312Y1507D01*
X2312Y1509D01*
X2314Y1509D01*
X2314Y1513D01*
X2316Y1513D01*
X2316Y1515D01*
X2318Y1515D01*
X2318Y1535D01*
X2288Y1535D01*
G37*
D02*
G36*
X1924Y1473D02*
X1924Y1471D01*
X1922Y1471D01*
X1922Y1469D01*
X1920Y1469D01*
X1920Y1465D01*
X1960Y1465D01*
X1960Y1467D01*
X1954Y1467D01*
X1954Y1469D01*
X1948Y1469D01*
X1948Y1471D01*
X1944Y1471D01*
X1944Y1473D01*
X1924Y1473D01*
G37*
D02*
G36*
X1918Y1465D02*
X1918Y1463D01*
X2296Y1463D01*
X2296Y1465D01*
X1918Y1465D01*
G37*
D02*
G36*
X1918Y1465D02*
X1918Y1463D01*
X2296Y1463D01*
X2296Y1465D01*
X1918Y1465D01*
G37*
D02*
G36*
X1918Y1465D02*
X1918Y1463D01*
X2296Y1463D01*
X2296Y1465D01*
X1918Y1465D01*
G37*
D02*
G36*
X1916Y1463D02*
X1916Y1461D01*
X1914Y1461D01*
X1914Y1459D01*
X1912Y1459D01*
X1912Y1457D01*
X1910Y1457D01*
X1910Y1455D01*
X1908Y1455D01*
X1908Y1453D01*
X1906Y1453D01*
X1906Y1451D01*
X1902Y1451D01*
X1902Y1449D01*
X1900Y1449D01*
X1900Y1447D01*
X1896Y1447D01*
X1896Y1445D01*
X1892Y1445D01*
X1892Y1443D01*
X1888Y1443D01*
X1888Y1441D01*
X1882Y1441D01*
X1882Y1439D01*
X2298Y1439D01*
X2298Y1441D01*
X2296Y1441D01*
X2296Y1463D01*
X1916Y1463D01*
G37*
D02*
G36*
X1810Y1457D02*
X1810Y1455D01*
X1808Y1455D01*
X1808Y1453D01*
X1806Y1453D01*
X1806Y1451D01*
X1802Y1451D01*
X1802Y1449D01*
X1800Y1449D01*
X1800Y1447D01*
X1796Y1447D01*
X1796Y1445D01*
X1792Y1445D01*
X1792Y1443D01*
X1788Y1443D01*
X1788Y1441D01*
X1782Y1441D01*
X1782Y1439D01*
X1858Y1439D01*
X1858Y1441D01*
X1852Y1441D01*
X1852Y1443D01*
X1848Y1443D01*
X1848Y1445D01*
X1844Y1445D01*
X1844Y1447D01*
X1840Y1447D01*
X1840Y1449D01*
X1838Y1449D01*
X1838Y1451D01*
X1834Y1451D01*
X1834Y1453D01*
X1832Y1453D01*
X1832Y1455D01*
X1830Y1455D01*
X1830Y1457D01*
X1810Y1457D01*
G37*
D02*
G36*
X1682Y1439D02*
X1682Y1437D01*
X2298Y1437D01*
X2298Y1439D01*
X1682Y1439D01*
G37*
D02*
G36*
X1682Y1439D02*
X1682Y1437D01*
X2298Y1437D01*
X2298Y1439D01*
X1682Y1439D01*
G37*
D02*
G36*
X1682Y1439D02*
X1682Y1437D01*
X2298Y1437D01*
X2298Y1439D01*
X1682Y1439D01*
G37*
D02*
G36*
X1682Y1437D02*
X1682Y1413D01*
X2234Y1413D01*
X2234Y1411D01*
X2242Y1411D01*
X2242Y1409D01*
X2246Y1409D01*
X2246Y1407D01*
X2250Y1407D01*
X2250Y1405D01*
X2254Y1405D01*
X2254Y1403D01*
X2256Y1403D01*
X2256Y1401D01*
X2260Y1401D01*
X2260Y1399D01*
X2262Y1399D01*
X2262Y1397D01*
X2264Y1397D01*
X2264Y1395D01*
X2266Y1395D01*
X2266Y1393D01*
X2268Y1393D01*
X2268Y1391D01*
X2270Y1391D01*
X2270Y1389D01*
X2272Y1389D01*
X2272Y1387D01*
X2274Y1387D01*
X2274Y1385D01*
X2276Y1385D01*
X2276Y1381D01*
X2278Y1381D01*
X2278Y1379D01*
X2280Y1379D01*
X2280Y1375D01*
X2282Y1375D01*
X2282Y1371D01*
X2284Y1371D01*
X2284Y1367D01*
X2286Y1367D01*
X2286Y1359D01*
X2288Y1359D01*
X2288Y1341D01*
X2286Y1341D01*
X2286Y1333D01*
X2284Y1333D01*
X2284Y1329D01*
X2406Y1329D01*
X2406Y1331D01*
X2396Y1331D01*
X2396Y1333D01*
X2388Y1333D01*
X2388Y1335D01*
X2382Y1335D01*
X2382Y1337D01*
X2378Y1337D01*
X2378Y1339D01*
X2374Y1339D01*
X2374Y1341D01*
X2370Y1341D01*
X2370Y1343D01*
X2366Y1343D01*
X2366Y1345D01*
X2362Y1345D01*
X2362Y1347D01*
X2358Y1347D01*
X2358Y1349D01*
X2356Y1349D01*
X2356Y1351D01*
X2354Y1351D01*
X2354Y1353D01*
X2350Y1353D01*
X2350Y1355D01*
X2348Y1355D01*
X2348Y1357D01*
X2346Y1357D01*
X2346Y1359D01*
X2342Y1359D01*
X2342Y1361D01*
X2340Y1361D01*
X2340Y1363D01*
X2338Y1363D01*
X2338Y1365D01*
X2336Y1365D01*
X2336Y1367D01*
X2334Y1367D01*
X2334Y1369D01*
X2332Y1369D01*
X2332Y1371D01*
X2330Y1371D01*
X2330Y1373D01*
X2328Y1373D01*
X2328Y1375D01*
X2326Y1375D01*
X2326Y1379D01*
X2324Y1379D01*
X2324Y1381D01*
X2322Y1381D01*
X2322Y1383D01*
X2320Y1383D01*
X2320Y1387D01*
X2318Y1387D01*
X2318Y1389D01*
X2316Y1389D01*
X2316Y1393D01*
X2314Y1393D01*
X2314Y1395D01*
X2312Y1395D01*
X2312Y1399D01*
X2310Y1399D01*
X2310Y1403D01*
X2308Y1403D01*
X2308Y1407D01*
X2306Y1407D01*
X2306Y1411D01*
X2304Y1411D01*
X2304Y1417D01*
X2302Y1417D01*
X2302Y1423D01*
X2300Y1423D01*
X2300Y1429D01*
X2298Y1429D01*
X2298Y1437D01*
X1682Y1437D01*
G37*
D02*
G36*
X1682Y1413D02*
X1682Y1391D01*
X1882Y1391D01*
X1882Y1287D01*
X1966Y1287D01*
X1966Y1289D01*
X1956Y1289D01*
X1956Y1291D01*
X1950Y1291D01*
X1950Y1293D01*
X1946Y1293D01*
X1946Y1295D01*
X1942Y1295D01*
X1942Y1297D01*
X1940Y1297D01*
X1940Y1299D01*
X1936Y1299D01*
X1936Y1301D01*
X1934Y1301D01*
X1934Y1303D01*
X1932Y1303D01*
X1932Y1305D01*
X1930Y1305D01*
X1930Y1307D01*
X1928Y1307D01*
X1928Y1309D01*
X1926Y1309D01*
X1926Y1311D01*
X1924Y1311D01*
X1924Y1313D01*
X1922Y1313D01*
X1922Y1315D01*
X1920Y1315D01*
X1920Y1317D01*
X1918Y1317D01*
X1918Y1321D01*
X1916Y1321D01*
X1916Y1323D01*
X1914Y1323D01*
X1914Y1327D01*
X1912Y1327D01*
X1912Y1331D01*
X1910Y1331D01*
X1910Y1337D01*
X1908Y1337D01*
X1908Y1363D01*
X1910Y1363D01*
X1910Y1369D01*
X1912Y1369D01*
X1912Y1373D01*
X1914Y1373D01*
X1914Y1377D01*
X1916Y1377D01*
X1916Y1381D01*
X1918Y1381D01*
X1918Y1383D01*
X1920Y1383D01*
X1920Y1385D01*
X1922Y1385D01*
X1922Y1389D01*
X1924Y1389D01*
X1924Y1391D01*
X1926Y1391D01*
X1926Y1393D01*
X1928Y1393D01*
X1928Y1395D01*
X1930Y1395D01*
X1930Y1397D01*
X1934Y1397D01*
X1934Y1399D01*
X1936Y1399D01*
X1936Y1401D01*
X1938Y1401D01*
X1938Y1403D01*
X1942Y1403D01*
X1942Y1405D01*
X1944Y1405D01*
X1944Y1407D01*
X1948Y1407D01*
X1948Y1409D01*
X1954Y1409D01*
X1954Y1411D01*
X1962Y1411D01*
X1962Y1413D01*
X1682Y1413D01*
G37*
D02*
G36*
X1978Y1413D02*
X1978Y1411D01*
X1986Y1411D01*
X1986Y1409D01*
X1990Y1409D01*
X1990Y1407D01*
X1994Y1407D01*
X1994Y1405D01*
X1998Y1405D01*
X1998Y1403D01*
X2000Y1403D01*
X2000Y1401D01*
X2004Y1401D01*
X2004Y1399D01*
X2006Y1399D01*
X2006Y1397D01*
X2008Y1397D01*
X2008Y1395D01*
X2010Y1395D01*
X2010Y1393D01*
X2012Y1393D01*
X2012Y1391D01*
X2014Y1391D01*
X2014Y1389D01*
X2016Y1389D01*
X2016Y1387D01*
X2018Y1387D01*
X2018Y1385D01*
X2020Y1385D01*
X2020Y1381D01*
X2022Y1381D01*
X2022Y1379D01*
X2024Y1379D01*
X2024Y1375D01*
X2026Y1375D01*
X2026Y1371D01*
X2028Y1371D01*
X2028Y1367D01*
X2030Y1367D01*
X2030Y1359D01*
X2032Y1359D01*
X2032Y1341D01*
X2030Y1341D01*
X2030Y1333D01*
X2028Y1333D01*
X2028Y1329D01*
X2026Y1329D01*
X2026Y1325D01*
X2024Y1325D01*
X2024Y1321D01*
X2022Y1321D01*
X2022Y1319D01*
X2020Y1319D01*
X2020Y1315D01*
X2018Y1315D01*
X2018Y1313D01*
X2016Y1313D01*
X2016Y1311D01*
X2014Y1311D01*
X2014Y1309D01*
X2012Y1309D01*
X2012Y1307D01*
X2010Y1307D01*
X2010Y1305D01*
X2008Y1305D01*
X2008Y1303D01*
X2006Y1303D01*
X2006Y1301D01*
X2002Y1301D01*
X2002Y1299D01*
X2000Y1299D01*
X2000Y1297D01*
X1996Y1297D01*
X1996Y1295D01*
X1994Y1295D01*
X1994Y1293D01*
X1988Y1293D01*
X1988Y1291D01*
X1984Y1291D01*
X1984Y1289D01*
X1974Y1289D01*
X1974Y1287D01*
X2222Y1287D01*
X2222Y1289D01*
X2212Y1289D01*
X2212Y1291D01*
X2206Y1291D01*
X2206Y1293D01*
X2202Y1293D01*
X2202Y1295D01*
X2198Y1295D01*
X2198Y1297D01*
X2196Y1297D01*
X2196Y1299D01*
X2192Y1299D01*
X2192Y1301D01*
X2190Y1301D01*
X2190Y1303D01*
X2188Y1303D01*
X2188Y1305D01*
X2186Y1305D01*
X2186Y1307D01*
X2184Y1307D01*
X2184Y1309D01*
X2182Y1309D01*
X2182Y1311D01*
X2180Y1311D01*
X2180Y1313D01*
X2178Y1313D01*
X2178Y1315D01*
X2176Y1315D01*
X2176Y1317D01*
X2174Y1317D01*
X2174Y1321D01*
X2172Y1321D01*
X2172Y1323D01*
X2170Y1323D01*
X2170Y1327D01*
X2168Y1327D01*
X2168Y1331D01*
X2166Y1331D01*
X2166Y1337D01*
X2164Y1337D01*
X2164Y1363D01*
X2166Y1363D01*
X2166Y1369D01*
X2168Y1369D01*
X2168Y1373D01*
X2170Y1373D01*
X2170Y1377D01*
X2172Y1377D01*
X2172Y1381D01*
X2174Y1381D01*
X2174Y1383D01*
X2176Y1383D01*
X2176Y1385D01*
X2178Y1385D01*
X2178Y1389D01*
X2180Y1389D01*
X2180Y1391D01*
X2182Y1391D01*
X2182Y1393D01*
X2184Y1393D01*
X2184Y1395D01*
X2186Y1395D01*
X2186Y1397D01*
X2188Y1397D01*
X2188Y1399D01*
X2192Y1399D01*
X2192Y1401D01*
X2194Y1401D01*
X2194Y1403D01*
X2198Y1403D01*
X2198Y1405D01*
X2200Y1405D01*
X2200Y1407D01*
X2204Y1407D01*
X2204Y1409D01*
X2210Y1409D01*
X2210Y1411D01*
X2218Y1411D01*
X2218Y1413D01*
X1978Y1413D01*
G37*
D02*
G36*
X1682Y1391D02*
X1682Y1389D01*
X1732Y1389D01*
X1732Y1387D01*
X1738Y1387D01*
X1738Y1385D01*
X1758Y1385D01*
X1758Y1391D01*
X1682Y1391D01*
G37*
D02*
G36*
X1682Y1389D02*
X1682Y1387D01*
X1706Y1387D01*
X1706Y1389D01*
X1682Y1389D01*
G37*
D02*
G36*
X2498Y1363D02*
X2498Y1361D01*
X2496Y1361D01*
X2496Y1359D01*
X2494Y1359D01*
X2494Y1357D01*
X2492Y1357D01*
X2492Y1355D01*
X2488Y1355D01*
X2488Y1353D01*
X2486Y1353D01*
X2486Y1351D01*
X2484Y1351D01*
X2484Y1349D01*
X2480Y1349D01*
X2480Y1347D01*
X2478Y1347D01*
X2478Y1345D01*
X2474Y1345D01*
X2474Y1343D01*
X2470Y1343D01*
X2470Y1341D01*
X2466Y1341D01*
X2466Y1339D01*
X2462Y1339D01*
X2462Y1337D01*
X2456Y1337D01*
X2456Y1335D01*
X2450Y1335D01*
X2450Y1333D01*
X2444Y1333D01*
X2444Y1331D01*
X2432Y1331D01*
X2432Y1329D01*
X2518Y1329D01*
X2518Y1363D01*
X2498Y1363D01*
G37*
D02*
G36*
X2282Y1329D02*
X2282Y1327D01*
X2518Y1327D01*
X2518Y1329D01*
X2282Y1329D01*
G37*
D02*
G36*
X2282Y1329D02*
X2282Y1327D01*
X2518Y1327D01*
X2518Y1329D01*
X2282Y1329D01*
G37*
D02*
G36*
X2282Y1327D02*
X2282Y1325D01*
X2280Y1325D01*
X2280Y1321D01*
X2278Y1321D01*
X2278Y1319D01*
X2276Y1319D01*
X2276Y1317D01*
X2274Y1317D01*
X2274Y1313D01*
X2272Y1313D01*
X2272Y1311D01*
X2270Y1311D01*
X2270Y1309D01*
X2268Y1309D01*
X2268Y1307D01*
X2266Y1307D01*
X2266Y1305D01*
X2264Y1305D01*
X2264Y1303D01*
X2262Y1303D01*
X2262Y1301D01*
X2258Y1301D01*
X2258Y1299D01*
X2256Y1299D01*
X2256Y1297D01*
X2252Y1297D01*
X2252Y1295D01*
X2250Y1295D01*
X2250Y1293D01*
X2244Y1293D01*
X2244Y1291D01*
X2396Y1291D01*
X2396Y1289D01*
X2408Y1289D01*
X2408Y1287D01*
X2432Y1287D01*
X2432Y1289D01*
X2434Y1289D01*
X2434Y1291D01*
X2518Y1291D01*
X2518Y1327D01*
X2282Y1327D01*
G37*
D02*
G36*
X2240Y1291D02*
X2240Y1289D01*
X2230Y1289D01*
X2230Y1287D01*
X2382Y1287D01*
X2382Y1289D01*
X2394Y1289D01*
X2394Y1291D01*
X2240Y1291D01*
G37*
D02*
G36*
X1882Y1287D02*
X1882Y1285D01*
X2376Y1285D01*
X2376Y1287D01*
X1882Y1287D01*
G37*
D02*
G36*
X1882Y1287D02*
X1882Y1285D01*
X2376Y1285D01*
X2376Y1287D01*
X1882Y1287D01*
G37*
D02*
G36*
X1882Y1287D02*
X1882Y1285D01*
X2376Y1285D01*
X2376Y1287D01*
X1882Y1287D01*
G37*
D02*
G36*
X1882Y1285D02*
X1882Y1265D01*
X1808Y1265D01*
X1808Y1263D01*
X1806Y1263D01*
X1806Y1261D01*
X1804Y1261D01*
X1804Y1259D01*
X1802Y1259D01*
X1802Y1257D01*
X1800Y1257D01*
X1800Y1255D01*
X1798Y1255D01*
X1798Y1253D01*
X1796Y1253D01*
X1796Y1251D01*
X1794Y1251D01*
X1794Y1249D01*
X1792Y1249D01*
X1792Y1247D01*
X1790Y1247D01*
X1790Y1245D01*
X1788Y1245D01*
X1788Y1243D01*
X1786Y1243D01*
X1786Y1241D01*
X1784Y1241D01*
X1784Y1239D01*
X1782Y1239D01*
X1782Y1237D01*
X1780Y1237D01*
X1780Y1235D01*
X1778Y1235D01*
X1778Y1233D01*
X1776Y1233D01*
X1776Y1231D01*
X1774Y1231D01*
X1774Y1229D01*
X1772Y1229D01*
X1772Y1227D01*
X1770Y1227D01*
X1770Y1225D01*
X1768Y1225D01*
X1768Y1223D01*
X1766Y1223D01*
X1766Y1221D01*
X1764Y1221D01*
X1764Y1219D01*
X1762Y1219D01*
X1762Y1217D01*
X1760Y1217D01*
X1760Y1215D01*
X1758Y1215D01*
X1758Y1195D01*
X1760Y1195D01*
X1760Y1193D01*
X1780Y1193D01*
X1780Y1195D01*
X1782Y1195D01*
X1782Y1197D01*
X1784Y1197D01*
X1784Y1199D01*
X1788Y1199D01*
X1788Y1201D01*
X1790Y1201D01*
X1790Y1203D01*
X1792Y1203D01*
X1792Y1205D01*
X1796Y1205D01*
X1796Y1207D01*
X1800Y1207D01*
X1800Y1209D01*
X1806Y1209D01*
X1806Y1211D01*
X1814Y1211D01*
X1814Y1213D01*
X1830Y1213D01*
X1830Y1215D01*
X1832Y1215D01*
X1832Y1217D01*
X1834Y1217D01*
X1834Y1219D01*
X1836Y1219D01*
X1836Y1221D01*
X1838Y1221D01*
X1838Y1223D01*
X1840Y1223D01*
X1840Y1225D01*
X1842Y1225D01*
X1842Y1227D01*
X1844Y1227D01*
X1844Y1229D01*
X1846Y1229D01*
X1846Y1231D01*
X1848Y1231D01*
X1848Y1233D01*
X1850Y1233D01*
X1850Y1235D01*
X1854Y1235D01*
X1854Y1237D01*
X1860Y1237D01*
X1860Y1239D01*
X1880Y1239D01*
X1880Y1241D01*
X1882Y1241D01*
X1882Y1243D01*
X1884Y1243D01*
X1884Y1245D01*
X1886Y1245D01*
X1886Y1247D01*
X1888Y1247D01*
X1888Y1249D01*
X1890Y1249D01*
X1890Y1251D01*
X1892Y1251D01*
X1892Y1253D01*
X1894Y1253D01*
X1894Y1255D01*
X1896Y1255D01*
X1896Y1257D01*
X1900Y1257D01*
X1900Y1259D01*
X1902Y1259D01*
X1902Y1261D01*
X1908Y1261D01*
X1908Y1263D01*
X1916Y1263D01*
X1916Y1265D01*
X2348Y1265D01*
X2348Y1267D01*
X2350Y1267D01*
X2350Y1269D01*
X2352Y1269D01*
X2352Y1271D01*
X2354Y1271D01*
X2354Y1273D01*
X2356Y1273D01*
X2356Y1275D01*
X2360Y1275D01*
X2360Y1277D01*
X2362Y1277D01*
X2362Y1279D01*
X2364Y1279D01*
X2364Y1281D01*
X2368Y1281D01*
X2368Y1283D01*
X2372Y1283D01*
X2372Y1285D01*
X1882Y1285D01*
G37*
D02*
G36*
X576Y1453D02*
X576Y1451D01*
X572Y1451D01*
X572Y1449D01*
X568Y1449D01*
X568Y1447D01*
X564Y1447D01*
X564Y1445D01*
X560Y1445D01*
X560Y1443D01*
X554Y1443D01*
X554Y1441D01*
X534Y1441D01*
X534Y1439D01*
X532Y1439D01*
X532Y1437D01*
X530Y1437D01*
X530Y1435D01*
X528Y1435D01*
X528Y1433D01*
X526Y1433D01*
X526Y1431D01*
X524Y1431D01*
X524Y1429D01*
X522Y1429D01*
X522Y1427D01*
X520Y1427D01*
X520Y1425D01*
X518Y1425D01*
X518Y1423D01*
X516Y1423D01*
X516Y1421D01*
X514Y1421D01*
X514Y1419D01*
X512Y1419D01*
X512Y1417D01*
X510Y1417D01*
X510Y1415D01*
X508Y1415D01*
X508Y1413D01*
X506Y1413D01*
X506Y1411D01*
X504Y1411D01*
X504Y1409D01*
X502Y1409D01*
X502Y1407D01*
X500Y1407D01*
X500Y1405D01*
X498Y1405D01*
X498Y1403D01*
X496Y1403D01*
X496Y1401D01*
X494Y1401D01*
X494Y1399D01*
X492Y1399D01*
X492Y1397D01*
X490Y1397D01*
X490Y1395D01*
X488Y1395D01*
X488Y1393D01*
X486Y1393D01*
X486Y1391D01*
X484Y1391D01*
X484Y1389D01*
X482Y1389D01*
X482Y1387D01*
X480Y1387D01*
X480Y1385D01*
X478Y1385D01*
X478Y1383D01*
X476Y1383D01*
X476Y1381D01*
X474Y1381D01*
X474Y1379D01*
X472Y1379D01*
X472Y1377D01*
X470Y1377D01*
X470Y1375D01*
X468Y1375D01*
X468Y1373D01*
X466Y1373D01*
X466Y1371D01*
X464Y1371D01*
X464Y1369D01*
X462Y1369D01*
X462Y1367D01*
X460Y1367D01*
X460Y1365D01*
X458Y1365D01*
X458Y1363D01*
X456Y1363D01*
X456Y1361D01*
X454Y1361D01*
X454Y1359D01*
X452Y1359D01*
X452Y1357D01*
X450Y1357D01*
X450Y1355D01*
X448Y1355D01*
X448Y1353D01*
X446Y1353D01*
X446Y1351D01*
X444Y1351D01*
X444Y1349D01*
X442Y1349D01*
X442Y1347D01*
X440Y1347D01*
X440Y1345D01*
X438Y1345D01*
X438Y1343D01*
X436Y1343D01*
X436Y1341D01*
X598Y1341D01*
X598Y1339D01*
X608Y1339D01*
X608Y1337D01*
X614Y1337D01*
X614Y1335D01*
X618Y1335D01*
X618Y1333D01*
X622Y1333D01*
X622Y1331D01*
X626Y1331D01*
X626Y1329D01*
X628Y1329D01*
X628Y1327D01*
X630Y1327D01*
X630Y1325D01*
X632Y1325D01*
X632Y1323D01*
X636Y1323D01*
X636Y1321D01*
X638Y1321D01*
X638Y1319D01*
X640Y1319D01*
X640Y1315D01*
X642Y1315D01*
X642Y1313D01*
X644Y1313D01*
X644Y1311D01*
X646Y1311D01*
X646Y1309D01*
X648Y1309D01*
X648Y1305D01*
X650Y1305D01*
X650Y1301D01*
X652Y1301D01*
X652Y1297D01*
X654Y1297D01*
X654Y1291D01*
X656Y1291D01*
X656Y1283D01*
X658Y1283D01*
X658Y1273D01*
X656Y1273D01*
X656Y1263D01*
X654Y1263D01*
X654Y1257D01*
X652Y1257D01*
X652Y1253D01*
X650Y1253D01*
X650Y1251D01*
X648Y1251D01*
X648Y1247D01*
X646Y1247D01*
X646Y1245D01*
X644Y1245D01*
X644Y1241D01*
X642Y1241D01*
X642Y1239D01*
X640Y1239D01*
X640Y1237D01*
X638Y1237D01*
X638Y1235D01*
X636Y1235D01*
X636Y1233D01*
X634Y1233D01*
X634Y1231D01*
X632Y1231D01*
X632Y1229D01*
X630Y1229D01*
X630Y1227D01*
X626Y1227D01*
X626Y1225D01*
X624Y1225D01*
X624Y1223D01*
X620Y1223D01*
X620Y1221D01*
X616Y1221D01*
X616Y1219D01*
X612Y1219D01*
X612Y1217D01*
X604Y1217D01*
X604Y1215D01*
X848Y1215D01*
X848Y1217D01*
X850Y1217D01*
X850Y1219D01*
X852Y1219D01*
X852Y1221D01*
X854Y1221D01*
X854Y1223D01*
X856Y1223D01*
X856Y1225D01*
X860Y1225D01*
X860Y1227D01*
X862Y1227D01*
X862Y1229D01*
X864Y1229D01*
X864Y1231D01*
X868Y1231D01*
X868Y1233D01*
X872Y1233D01*
X872Y1235D01*
X876Y1235D01*
X876Y1237D01*
X882Y1237D01*
X882Y1239D01*
X904Y1239D01*
X904Y1241D01*
X906Y1241D01*
X906Y1243D01*
X908Y1243D01*
X908Y1339D01*
X906Y1339D01*
X906Y1341D01*
X760Y1341D01*
X760Y1343D01*
X754Y1343D01*
X754Y1345D01*
X750Y1345D01*
X750Y1347D01*
X748Y1347D01*
X748Y1349D01*
X744Y1349D01*
X744Y1351D01*
X742Y1351D01*
X742Y1353D01*
X740Y1353D01*
X740Y1355D01*
X738Y1355D01*
X738Y1357D01*
X736Y1357D01*
X736Y1359D01*
X734Y1359D01*
X734Y1361D01*
X732Y1361D01*
X732Y1363D01*
X730Y1363D01*
X730Y1365D01*
X728Y1365D01*
X728Y1367D01*
X726Y1367D01*
X726Y1369D01*
X724Y1369D01*
X724Y1371D01*
X722Y1371D01*
X722Y1373D01*
X720Y1373D01*
X720Y1375D01*
X718Y1375D01*
X718Y1377D01*
X716Y1377D01*
X716Y1379D01*
X714Y1379D01*
X714Y1381D01*
X712Y1381D01*
X712Y1383D01*
X710Y1383D01*
X710Y1385D01*
X708Y1385D01*
X708Y1387D01*
X706Y1387D01*
X706Y1389D01*
X704Y1389D01*
X704Y1391D01*
X702Y1391D01*
X702Y1393D01*
X700Y1393D01*
X700Y1395D01*
X698Y1395D01*
X698Y1397D01*
X696Y1397D01*
X696Y1399D01*
X694Y1399D01*
X694Y1401D01*
X692Y1401D01*
X692Y1403D01*
X690Y1403D01*
X690Y1407D01*
X688Y1407D01*
X688Y1409D01*
X686Y1409D01*
X686Y1411D01*
X684Y1411D01*
X684Y1413D01*
X682Y1413D01*
X682Y1415D01*
X680Y1415D01*
X680Y1417D01*
X678Y1417D01*
X678Y1419D01*
X676Y1419D01*
X676Y1421D01*
X674Y1421D01*
X674Y1423D01*
X672Y1423D01*
X672Y1425D01*
X670Y1425D01*
X670Y1427D01*
X668Y1427D01*
X668Y1429D01*
X666Y1429D01*
X666Y1431D01*
X664Y1431D01*
X664Y1433D01*
X662Y1433D01*
X662Y1435D01*
X660Y1435D01*
X660Y1437D01*
X658Y1437D01*
X658Y1439D01*
X656Y1439D01*
X656Y1441D01*
X634Y1441D01*
X634Y1443D01*
X628Y1443D01*
X628Y1445D01*
X622Y1445D01*
X622Y1447D01*
X618Y1447D01*
X618Y1449D01*
X616Y1449D01*
X616Y1451D01*
X612Y1451D01*
X612Y1453D01*
X576Y1453D01*
G37*
D02*
G36*
X434Y1341D02*
X434Y1339D01*
X432Y1339D01*
X432Y1337D01*
X430Y1337D01*
X430Y1335D01*
X428Y1335D01*
X428Y1333D01*
X426Y1333D01*
X426Y1331D01*
X424Y1331D01*
X424Y1329D01*
X422Y1329D01*
X422Y1327D01*
X420Y1327D01*
X420Y1325D01*
X418Y1325D01*
X418Y1323D01*
X416Y1323D01*
X416Y1321D01*
X414Y1321D01*
X414Y1319D01*
X412Y1319D01*
X412Y1317D01*
X410Y1317D01*
X410Y1315D01*
X408Y1315D01*
X408Y1313D01*
X406Y1313D01*
X406Y1311D01*
X404Y1311D01*
X404Y1309D01*
X402Y1309D01*
X402Y1307D01*
X400Y1307D01*
X400Y1305D01*
X398Y1305D01*
X398Y1303D01*
X396Y1303D01*
X396Y1301D01*
X394Y1301D01*
X394Y1299D01*
X392Y1299D01*
X392Y1297D01*
X390Y1297D01*
X390Y1295D01*
X388Y1295D01*
X388Y1293D01*
X386Y1293D01*
X386Y1291D01*
X384Y1291D01*
X384Y1289D01*
X382Y1289D01*
X382Y1287D01*
X380Y1287D01*
X380Y1285D01*
X378Y1285D01*
X378Y1283D01*
X376Y1283D01*
X376Y1281D01*
X374Y1281D01*
X374Y1279D01*
X372Y1279D01*
X372Y1277D01*
X370Y1277D01*
X370Y1275D01*
X368Y1275D01*
X368Y1273D01*
X366Y1273D01*
X366Y1271D01*
X364Y1271D01*
X364Y1269D01*
X362Y1269D01*
X362Y1267D01*
X360Y1267D01*
X360Y1265D01*
X358Y1265D01*
X358Y1263D01*
X356Y1263D01*
X356Y1261D01*
X354Y1261D01*
X354Y1259D01*
X352Y1259D01*
X352Y1257D01*
X350Y1257D01*
X350Y1255D01*
X348Y1255D01*
X348Y1253D01*
X346Y1253D01*
X346Y1251D01*
X344Y1251D01*
X344Y1249D01*
X342Y1249D01*
X342Y1247D01*
X340Y1247D01*
X340Y1245D01*
X338Y1245D01*
X338Y1243D01*
X336Y1243D01*
X336Y1241D01*
X334Y1241D01*
X334Y1239D01*
X332Y1239D01*
X332Y1237D01*
X330Y1237D01*
X330Y1235D01*
X328Y1235D01*
X328Y1233D01*
X326Y1233D01*
X326Y1231D01*
X324Y1231D01*
X324Y1229D01*
X322Y1229D01*
X322Y1227D01*
X320Y1227D01*
X320Y1225D01*
X318Y1225D01*
X318Y1223D01*
X316Y1223D01*
X316Y1221D01*
X314Y1221D01*
X314Y1219D01*
X312Y1219D01*
X312Y1217D01*
X310Y1217D01*
X310Y1215D01*
X584Y1215D01*
X584Y1217D01*
X578Y1217D01*
X578Y1219D01*
X574Y1219D01*
X574Y1221D01*
X570Y1221D01*
X570Y1223D01*
X566Y1223D01*
X566Y1225D01*
X562Y1225D01*
X562Y1227D01*
X560Y1227D01*
X560Y1229D01*
X558Y1229D01*
X558Y1231D01*
X556Y1231D01*
X556Y1233D01*
X554Y1233D01*
X554Y1235D01*
X552Y1235D01*
X552Y1237D01*
X550Y1237D01*
X550Y1239D01*
X548Y1239D01*
X548Y1241D01*
X546Y1241D01*
X546Y1243D01*
X544Y1243D01*
X544Y1245D01*
X542Y1245D01*
X542Y1249D01*
X540Y1249D01*
X540Y1253D01*
X538Y1253D01*
X538Y1257D01*
X536Y1257D01*
X536Y1261D01*
X534Y1261D01*
X534Y1267D01*
X532Y1267D01*
X532Y1287D01*
X534Y1287D01*
X534Y1293D01*
X536Y1293D01*
X536Y1299D01*
X538Y1299D01*
X538Y1303D01*
X540Y1303D01*
X540Y1307D01*
X542Y1307D01*
X542Y1309D01*
X544Y1309D01*
X544Y1311D01*
X546Y1311D01*
X546Y1315D01*
X548Y1315D01*
X548Y1317D01*
X550Y1317D01*
X550Y1319D01*
X552Y1319D01*
X552Y1321D01*
X554Y1321D01*
X554Y1323D01*
X556Y1323D01*
X556Y1325D01*
X558Y1325D01*
X558Y1327D01*
X562Y1327D01*
X562Y1329D01*
X564Y1329D01*
X564Y1331D01*
X568Y1331D01*
X568Y1333D01*
X572Y1333D01*
X572Y1335D01*
X576Y1335D01*
X576Y1337D01*
X580Y1337D01*
X580Y1339D01*
X590Y1339D01*
X590Y1341D01*
X434Y1341D01*
G37*
D02*
G36*
X308Y1215D02*
X308Y1213D01*
X846Y1213D01*
X846Y1215D01*
X308Y1215D01*
G37*
D02*
G36*
X308Y1215D02*
X308Y1213D01*
X846Y1213D01*
X846Y1215D01*
X308Y1215D01*
G37*
D02*
G36*
X306Y1213D02*
X306Y1211D01*
X304Y1211D01*
X304Y1209D01*
X302Y1209D01*
X302Y1207D01*
X300Y1207D01*
X300Y1205D01*
X298Y1205D01*
X298Y1203D01*
X296Y1203D01*
X296Y1201D01*
X294Y1201D01*
X294Y1199D01*
X292Y1199D01*
X292Y1197D01*
X290Y1197D01*
X290Y1195D01*
X288Y1195D01*
X288Y1193D01*
X286Y1193D01*
X286Y1191D01*
X284Y1191D01*
X284Y1189D01*
X282Y1189D01*
X282Y1187D01*
X280Y1187D01*
X280Y1185D01*
X278Y1185D01*
X278Y1183D01*
X276Y1183D01*
X276Y1181D01*
X274Y1181D01*
X274Y1179D01*
X272Y1179D01*
X272Y1177D01*
X270Y1177D01*
X270Y1175D01*
X268Y1175D01*
X268Y1173D01*
X266Y1173D01*
X266Y1171D01*
X264Y1171D01*
X264Y1169D01*
X262Y1169D01*
X262Y1167D01*
X260Y1167D01*
X260Y1165D01*
X258Y1165D01*
X258Y1163D01*
X256Y1163D01*
X256Y1161D01*
X254Y1161D01*
X254Y1159D01*
X252Y1159D01*
X252Y1157D01*
X250Y1157D01*
X250Y1155D01*
X248Y1155D01*
X248Y1153D01*
X246Y1153D01*
X246Y1151D01*
X244Y1151D01*
X244Y1149D01*
X242Y1149D01*
X242Y1147D01*
X240Y1147D01*
X240Y1145D01*
X238Y1145D01*
X238Y1143D01*
X236Y1143D01*
X236Y1141D01*
X234Y1141D01*
X234Y1139D01*
X232Y1139D01*
X232Y1137D01*
X230Y1137D01*
X230Y1135D01*
X228Y1135D01*
X228Y1133D01*
X226Y1133D01*
X226Y1131D01*
X224Y1131D01*
X224Y1129D01*
X222Y1129D01*
X222Y1127D01*
X220Y1127D01*
X220Y1125D01*
X218Y1125D01*
X218Y1123D01*
X216Y1123D01*
X216Y1121D01*
X214Y1121D01*
X214Y1119D01*
X212Y1119D01*
X212Y1117D01*
X210Y1117D01*
X210Y1115D01*
X208Y1115D01*
X208Y1113D01*
X206Y1113D01*
X206Y765D01*
X456Y765D01*
X456Y763D01*
X462Y763D01*
X462Y761D01*
X466Y761D01*
X466Y759D01*
X470Y759D01*
X470Y757D01*
X474Y757D01*
X474Y755D01*
X508Y755D01*
X508Y761D01*
X510Y761D01*
X510Y767D01*
X512Y767D01*
X512Y771D01*
X514Y771D01*
X514Y775D01*
X516Y775D01*
X516Y777D01*
X518Y777D01*
X518Y779D01*
X520Y779D01*
X520Y781D01*
X522Y781D01*
X522Y783D01*
X524Y783D01*
X524Y785D01*
X526Y785D01*
X526Y787D01*
X528Y787D01*
X528Y789D01*
X530Y789D01*
X530Y791D01*
X532Y791D01*
X532Y793D01*
X534Y793D01*
X534Y795D01*
X536Y795D01*
X536Y797D01*
X538Y797D01*
X538Y799D01*
X540Y799D01*
X540Y801D01*
X542Y801D01*
X542Y803D01*
X544Y803D01*
X544Y805D01*
X546Y805D01*
X546Y807D01*
X548Y807D01*
X548Y809D01*
X552Y809D01*
X552Y811D01*
X556Y811D01*
X556Y813D01*
X564Y813D01*
X564Y815D01*
X632Y815D01*
X632Y817D01*
X634Y817D01*
X634Y845D01*
X632Y845D01*
X632Y907D01*
X630Y907D01*
X630Y909D01*
X628Y909D01*
X628Y911D01*
X626Y911D01*
X626Y913D01*
X624Y913D01*
X624Y915D01*
X622Y915D01*
X622Y917D01*
X620Y917D01*
X620Y919D01*
X618Y919D01*
X618Y923D01*
X616Y923D01*
X616Y925D01*
X614Y925D01*
X614Y929D01*
X612Y929D01*
X612Y935D01*
X610Y935D01*
X610Y939D01*
X608Y939D01*
X608Y965D01*
X610Y965D01*
X610Y971D01*
X612Y971D01*
X612Y975D01*
X614Y975D01*
X614Y979D01*
X616Y979D01*
X616Y983D01*
X618Y983D01*
X618Y985D01*
X620Y985D01*
X620Y987D01*
X622Y987D01*
X622Y991D01*
X624Y991D01*
X624Y993D01*
X626Y993D01*
X626Y995D01*
X628Y995D01*
X628Y997D01*
X630Y997D01*
X630Y999D01*
X632Y999D01*
X632Y1001D01*
X636Y1001D01*
X636Y1003D01*
X638Y1003D01*
X638Y1005D01*
X642Y1005D01*
X642Y1007D01*
X644Y1007D01*
X644Y1009D01*
X648Y1009D01*
X648Y1011D01*
X654Y1011D01*
X654Y1013D01*
X660Y1013D01*
X660Y1015D01*
X682Y1015D01*
X682Y1035D01*
X684Y1035D01*
X684Y1043D01*
X686Y1043D01*
X686Y1049D01*
X688Y1049D01*
X688Y1053D01*
X690Y1053D01*
X690Y1055D01*
X692Y1055D01*
X692Y1059D01*
X694Y1059D01*
X694Y1061D01*
X696Y1061D01*
X696Y1065D01*
X698Y1065D01*
X698Y1067D01*
X700Y1067D01*
X700Y1069D01*
X702Y1069D01*
X702Y1071D01*
X704Y1071D01*
X704Y1073D01*
X706Y1073D01*
X706Y1075D01*
X710Y1075D01*
X710Y1077D01*
X712Y1077D01*
X712Y1079D01*
X714Y1079D01*
X714Y1081D01*
X718Y1081D01*
X718Y1083D01*
X722Y1083D01*
X722Y1085D01*
X726Y1085D01*
X726Y1087D01*
X732Y1087D01*
X732Y1089D01*
X758Y1089D01*
X758Y1115D01*
X760Y1115D01*
X760Y1121D01*
X762Y1121D01*
X762Y1125D01*
X764Y1125D01*
X764Y1129D01*
X766Y1129D01*
X766Y1133D01*
X768Y1133D01*
X768Y1135D01*
X770Y1135D01*
X770Y1137D01*
X772Y1137D01*
X772Y1141D01*
X774Y1141D01*
X774Y1143D01*
X776Y1143D01*
X776Y1145D01*
X778Y1145D01*
X778Y1147D01*
X780Y1147D01*
X780Y1149D01*
X782Y1149D01*
X782Y1151D01*
X786Y1151D01*
X786Y1153D01*
X788Y1153D01*
X788Y1155D01*
X792Y1155D01*
X792Y1157D01*
X794Y1157D01*
X794Y1159D01*
X798Y1159D01*
X798Y1161D01*
X804Y1161D01*
X804Y1163D01*
X810Y1163D01*
X810Y1165D01*
X832Y1165D01*
X832Y1185D01*
X834Y1185D01*
X834Y1193D01*
X836Y1193D01*
X836Y1199D01*
X838Y1199D01*
X838Y1203D01*
X840Y1203D01*
X840Y1205D01*
X842Y1205D01*
X842Y1209D01*
X844Y1209D01*
X844Y1211D01*
X846Y1211D01*
X846Y1213D01*
X306Y1213D01*
G37*
D02*
G36*
X306Y765D02*
X306Y761D01*
X326Y761D01*
X326Y763D01*
X330Y763D01*
X330Y765D01*
X306Y765D01*
G37*
D02*
G36*
X356Y765D02*
X356Y763D01*
X362Y763D01*
X362Y761D01*
X366Y761D01*
X366Y759D01*
X420Y759D01*
X420Y761D01*
X426Y761D01*
X426Y763D01*
X430Y763D01*
X430Y765D01*
X356Y765D01*
G37*
D02*
G36*
X1394Y1419D02*
X1394Y1417D01*
X1392Y1417D01*
X1392Y1415D01*
X1390Y1415D01*
X1390Y1413D01*
X1388Y1413D01*
X1388Y1411D01*
X1386Y1411D01*
X1386Y1409D01*
X1384Y1409D01*
X1384Y1407D01*
X1382Y1407D01*
X1382Y1405D01*
X1380Y1405D01*
X1380Y1403D01*
X1378Y1403D01*
X1378Y1401D01*
X1374Y1401D01*
X1374Y1399D01*
X1372Y1399D01*
X1372Y1397D01*
X1368Y1397D01*
X1368Y1395D01*
X1364Y1395D01*
X1364Y1393D01*
X1358Y1393D01*
X1358Y1391D01*
X1334Y1391D01*
X1334Y1389D01*
X1332Y1389D01*
X1332Y1387D01*
X1330Y1387D01*
X1330Y1385D01*
X1328Y1385D01*
X1328Y1383D01*
X1326Y1383D01*
X1326Y1381D01*
X1324Y1381D01*
X1324Y1379D01*
X1322Y1379D01*
X1322Y1377D01*
X1320Y1377D01*
X1320Y1375D01*
X1318Y1375D01*
X1318Y1373D01*
X1316Y1373D01*
X1316Y1371D01*
X1314Y1371D01*
X1314Y1369D01*
X1312Y1369D01*
X1312Y1367D01*
X1310Y1367D01*
X1310Y1365D01*
X1308Y1365D01*
X1308Y1349D01*
X1306Y1349D01*
X1306Y1339D01*
X1304Y1339D01*
X1304Y1333D01*
X1302Y1333D01*
X1302Y1329D01*
X1300Y1329D01*
X1300Y1325D01*
X1298Y1325D01*
X1298Y1323D01*
X1296Y1323D01*
X1296Y1319D01*
X1294Y1319D01*
X1294Y1317D01*
X1292Y1317D01*
X1292Y1315D01*
X1290Y1315D01*
X1290Y1313D01*
X1288Y1313D01*
X1288Y1293D01*
X1290Y1293D01*
X1290Y1291D01*
X1292Y1291D01*
X1292Y1289D01*
X1294Y1289D01*
X1294Y1285D01*
X1296Y1285D01*
X1296Y1283D01*
X1298Y1283D01*
X1298Y1279D01*
X1300Y1279D01*
X1300Y1275D01*
X1302Y1275D01*
X1302Y1271D01*
X1304Y1271D01*
X1304Y1267D01*
X1306Y1267D01*
X1306Y1255D01*
X1308Y1255D01*
X1308Y1249D01*
X1306Y1249D01*
X1306Y1239D01*
X1304Y1239D01*
X1304Y1233D01*
X1302Y1233D01*
X1302Y1229D01*
X1300Y1229D01*
X1300Y1225D01*
X1298Y1225D01*
X1298Y1223D01*
X1296Y1223D01*
X1296Y1219D01*
X1294Y1219D01*
X1294Y1217D01*
X1292Y1217D01*
X1292Y1215D01*
X1290Y1215D01*
X1290Y1213D01*
X1288Y1213D01*
X1288Y1211D01*
X1286Y1211D01*
X1286Y1209D01*
X1284Y1209D01*
X1284Y1189D01*
X1288Y1189D01*
X1288Y1187D01*
X1292Y1187D01*
X1292Y1185D01*
X1296Y1185D01*
X1296Y1183D01*
X1300Y1183D01*
X1300Y1181D01*
X1302Y1181D01*
X1302Y1179D01*
X1306Y1179D01*
X1306Y1177D01*
X1308Y1177D01*
X1308Y1175D01*
X1310Y1175D01*
X1310Y1173D01*
X1312Y1173D01*
X1312Y1171D01*
X1314Y1171D01*
X1314Y1169D01*
X1316Y1169D01*
X1316Y1167D01*
X1318Y1167D01*
X1318Y1165D01*
X1320Y1165D01*
X1320Y1161D01*
X1322Y1161D01*
X1322Y1159D01*
X1324Y1159D01*
X1324Y1155D01*
X1326Y1155D01*
X1326Y1153D01*
X1328Y1153D01*
X1328Y1149D01*
X1330Y1149D01*
X1330Y1143D01*
X1352Y1143D01*
X1352Y1145D01*
X1354Y1145D01*
X1354Y1147D01*
X1356Y1147D01*
X1356Y1151D01*
X1358Y1151D01*
X1358Y1153D01*
X1360Y1153D01*
X1360Y1155D01*
X1362Y1155D01*
X1362Y1157D01*
X1364Y1157D01*
X1364Y1161D01*
X1366Y1161D01*
X1366Y1163D01*
X1368Y1163D01*
X1368Y1165D01*
X1370Y1165D01*
X1370Y1167D01*
X1372Y1167D01*
X1372Y1169D01*
X1374Y1169D01*
X1374Y1173D01*
X1376Y1173D01*
X1376Y1175D01*
X1378Y1175D01*
X1378Y1177D01*
X1380Y1177D01*
X1380Y1179D01*
X1382Y1179D01*
X1382Y1181D01*
X1384Y1181D01*
X1384Y1185D01*
X1386Y1185D01*
X1386Y1187D01*
X1388Y1187D01*
X1388Y1189D01*
X1390Y1189D01*
X1390Y1191D01*
X1392Y1191D01*
X1392Y1195D01*
X1394Y1195D01*
X1394Y1197D01*
X1396Y1197D01*
X1396Y1199D01*
X1398Y1199D01*
X1398Y1201D01*
X1400Y1201D01*
X1400Y1203D01*
X1402Y1203D01*
X1402Y1207D01*
X1404Y1207D01*
X1404Y1209D01*
X1406Y1209D01*
X1406Y1211D01*
X1408Y1211D01*
X1408Y1213D01*
X1410Y1213D01*
X1410Y1217D01*
X1412Y1217D01*
X1412Y1219D01*
X1414Y1219D01*
X1414Y1285D01*
X1420Y1285D01*
X1420Y1305D01*
X1418Y1305D01*
X1418Y1311D01*
X1416Y1311D01*
X1416Y1315D01*
X1414Y1315D01*
X1414Y1339D01*
X1416Y1339D01*
X1416Y1345D01*
X1418Y1345D01*
X1418Y1349D01*
X1420Y1349D01*
X1420Y1353D01*
X1422Y1353D01*
X1422Y1355D01*
X1424Y1355D01*
X1424Y1359D01*
X1426Y1359D01*
X1426Y1361D01*
X1428Y1361D01*
X1428Y1363D01*
X1430Y1363D01*
X1430Y1365D01*
X1432Y1365D01*
X1432Y1367D01*
X1434Y1367D01*
X1434Y1387D01*
X1432Y1387D01*
X1432Y1389D01*
X1430Y1389D01*
X1430Y1391D01*
X1428Y1391D01*
X1428Y1395D01*
X1426Y1395D01*
X1426Y1397D01*
X1424Y1397D01*
X1424Y1399D01*
X1422Y1399D01*
X1422Y1403D01*
X1420Y1403D01*
X1420Y1405D01*
X1418Y1405D01*
X1418Y1411D01*
X1416Y1411D01*
X1416Y1415D01*
X1414Y1415D01*
X1414Y1419D01*
X1394Y1419D01*
G37*
D02*
G36*
X1752Y1105D02*
X1752Y1103D01*
X1748Y1103D01*
X1748Y1101D01*
X1744Y1101D01*
X1744Y1099D01*
X1742Y1099D01*
X1742Y1097D01*
X1736Y1097D01*
X1736Y1095D01*
X1730Y1095D01*
X1730Y1093D01*
X1766Y1093D01*
X1766Y1095D01*
X1768Y1095D01*
X1768Y1097D01*
X1770Y1097D01*
X1770Y1099D01*
X1772Y1099D01*
X1772Y1105D01*
X1752Y1105D01*
G37*
D02*
G36*
X1682Y1097D02*
X1682Y1095D01*
X1680Y1095D01*
X1680Y1093D01*
X1708Y1093D01*
X1708Y1095D01*
X1702Y1095D01*
X1702Y1097D01*
X1682Y1097D01*
G37*
D02*
G36*
X1680Y1093D02*
X1680Y1091D01*
X1766Y1091D01*
X1766Y1093D01*
X1680Y1093D01*
G37*
D02*
G36*
X1680Y1093D02*
X1680Y1091D01*
X1766Y1091D01*
X1766Y1093D01*
X1680Y1093D01*
G37*
D02*
G36*
X1680Y1091D02*
X1680Y1089D01*
X1678Y1089D01*
X1678Y1085D01*
X1676Y1085D01*
X1676Y1081D01*
X1674Y1081D01*
X1674Y1079D01*
X1672Y1079D01*
X1672Y1077D01*
X1670Y1077D01*
X1670Y1057D01*
X1674Y1057D01*
X1674Y1055D01*
X1676Y1055D01*
X1676Y1053D01*
X1678Y1053D01*
X1678Y1051D01*
X1682Y1051D01*
X1682Y1049D01*
X1684Y1049D01*
X1684Y1047D01*
X1706Y1047D01*
X1706Y1049D01*
X1708Y1049D01*
X1708Y1051D01*
X1710Y1051D01*
X1710Y1053D01*
X1714Y1053D01*
X1714Y1055D01*
X1716Y1055D01*
X1716Y1057D01*
X1720Y1057D01*
X1720Y1059D01*
X1724Y1059D01*
X1724Y1061D01*
X1728Y1061D01*
X1728Y1063D01*
X1736Y1063D01*
X1736Y1065D01*
X1746Y1065D01*
X1746Y1067D01*
X1748Y1067D01*
X1748Y1071D01*
X1750Y1071D01*
X1750Y1073D01*
X1752Y1073D01*
X1752Y1075D01*
X1754Y1075D01*
X1754Y1079D01*
X1756Y1079D01*
X1756Y1081D01*
X1758Y1081D01*
X1758Y1083D01*
X1760Y1083D01*
X1760Y1087D01*
X1762Y1087D01*
X1762Y1089D01*
X1764Y1089D01*
X1764Y1091D01*
X1680Y1091D01*
G37*
D02*
G36*
X982Y961D02*
X982Y959D01*
X1002Y959D01*
X1002Y961D01*
X982Y961D01*
G37*
D02*
G36*
X982Y959D02*
X982Y941D01*
X1032Y941D01*
X1032Y943D01*
X1026Y943D01*
X1026Y945D01*
X1022Y945D01*
X1022Y947D01*
X1018Y947D01*
X1018Y949D01*
X1014Y949D01*
X1014Y951D01*
X1012Y951D01*
X1012Y953D01*
X1010Y953D01*
X1010Y955D01*
X1006Y955D01*
X1006Y957D01*
X1004Y957D01*
X1004Y959D01*
X982Y959D01*
G37*
D02*
G36*
X1084Y959D02*
X1084Y957D01*
X1082Y957D01*
X1082Y955D01*
X1080Y955D01*
X1080Y953D01*
X1078Y953D01*
X1078Y951D01*
X1074Y951D01*
X1074Y949D01*
X1072Y949D01*
X1072Y947D01*
X1068Y947D01*
X1068Y945D01*
X1064Y945D01*
X1064Y943D01*
X1058Y943D01*
X1058Y941D01*
X1132Y941D01*
X1132Y943D01*
X1126Y943D01*
X1126Y945D01*
X1122Y945D01*
X1122Y947D01*
X1118Y947D01*
X1118Y949D01*
X1114Y949D01*
X1114Y951D01*
X1112Y951D01*
X1112Y953D01*
X1110Y953D01*
X1110Y955D01*
X1106Y955D01*
X1106Y957D01*
X1104Y957D01*
X1104Y959D01*
X1084Y959D01*
G37*
D02*
G36*
X1184Y959D02*
X1184Y957D01*
X1182Y957D01*
X1182Y955D01*
X1180Y955D01*
X1180Y953D01*
X1178Y953D01*
X1178Y951D01*
X1174Y951D01*
X1174Y949D01*
X1172Y949D01*
X1172Y947D01*
X1168Y947D01*
X1168Y945D01*
X1164Y945D01*
X1164Y943D01*
X1158Y943D01*
X1158Y941D01*
X1232Y941D01*
X1232Y943D01*
X1226Y943D01*
X1226Y945D01*
X1222Y945D01*
X1222Y947D01*
X1218Y947D01*
X1218Y949D01*
X1214Y949D01*
X1214Y951D01*
X1212Y951D01*
X1212Y953D01*
X1210Y953D01*
X1210Y955D01*
X1206Y955D01*
X1206Y957D01*
X1204Y957D01*
X1204Y959D01*
X1184Y959D01*
G37*
D02*
G36*
X1284Y959D02*
X1284Y957D01*
X1282Y957D01*
X1282Y955D01*
X1280Y955D01*
X1280Y953D01*
X1278Y953D01*
X1278Y951D01*
X1274Y951D01*
X1274Y949D01*
X1272Y949D01*
X1272Y947D01*
X1268Y947D01*
X1268Y945D01*
X1264Y945D01*
X1264Y943D01*
X1258Y943D01*
X1258Y941D01*
X1332Y941D01*
X1332Y943D01*
X1326Y943D01*
X1326Y945D01*
X1322Y945D01*
X1322Y947D01*
X1318Y947D01*
X1318Y949D01*
X1314Y949D01*
X1314Y951D01*
X1312Y951D01*
X1312Y953D01*
X1310Y953D01*
X1310Y955D01*
X1306Y955D01*
X1306Y957D01*
X1304Y957D01*
X1304Y959D01*
X1284Y959D01*
G37*
D02*
G36*
X1384Y959D02*
X1384Y957D01*
X1382Y957D01*
X1382Y955D01*
X1380Y955D01*
X1380Y953D01*
X1378Y953D01*
X1378Y951D01*
X1374Y951D01*
X1374Y949D01*
X1372Y949D01*
X1372Y947D01*
X1368Y947D01*
X1368Y945D01*
X1364Y945D01*
X1364Y943D01*
X1358Y943D01*
X1358Y941D01*
X1432Y941D01*
X1432Y943D01*
X1426Y943D01*
X1426Y945D01*
X1422Y945D01*
X1422Y947D01*
X1418Y947D01*
X1418Y949D01*
X1414Y949D01*
X1414Y951D01*
X1412Y951D01*
X1412Y953D01*
X1410Y953D01*
X1410Y955D01*
X1406Y955D01*
X1406Y957D01*
X1404Y957D01*
X1404Y959D01*
X1384Y959D01*
G37*
D02*
G36*
X1484Y959D02*
X1484Y957D01*
X1482Y957D01*
X1482Y955D01*
X1480Y955D01*
X1480Y953D01*
X1478Y953D01*
X1478Y951D01*
X1474Y951D01*
X1474Y949D01*
X1472Y949D01*
X1472Y947D01*
X1468Y947D01*
X1468Y945D01*
X1464Y945D01*
X1464Y943D01*
X1458Y943D01*
X1458Y941D01*
X1532Y941D01*
X1532Y943D01*
X1526Y943D01*
X1526Y945D01*
X1522Y945D01*
X1522Y947D01*
X1518Y947D01*
X1518Y949D01*
X1514Y949D01*
X1514Y951D01*
X1512Y951D01*
X1512Y953D01*
X1510Y953D01*
X1510Y955D01*
X1506Y955D01*
X1506Y957D01*
X1504Y957D01*
X1504Y959D01*
X1484Y959D01*
G37*
D02*
G36*
X1584Y959D02*
X1584Y957D01*
X1582Y957D01*
X1582Y955D01*
X1580Y955D01*
X1580Y953D01*
X1578Y953D01*
X1578Y951D01*
X1574Y951D01*
X1574Y949D01*
X1572Y949D01*
X1572Y947D01*
X1568Y947D01*
X1568Y945D01*
X1564Y945D01*
X1564Y943D01*
X1558Y943D01*
X1558Y941D01*
X1632Y941D01*
X1632Y943D01*
X1626Y943D01*
X1626Y945D01*
X1622Y945D01*
X1622Y947D01*
X1618Y947D01*
X1618Y949D01*
X1614Y949D01*
X1614Y951D01*
X1612Y951D01*
X1612Y953D01*
X1610Y953D01*
X1610Y955D01*
X1606Y955D01*
X1606Y957D01*
X1604Y957D01*
X1604Y959D01*
X1584Y959D01*
G37*
D02*
G36*
X1684Y959D02*
X1684Y957D01*
X1682Y957D01*
X1682Y955D01*
X1680Y955D01*
X1680Y953D01*
X1678Y953D01*
X1678Y951D01*
X1674Y951D01*
X1674Y949D01*
X1672Y949D01*
X1672Y947D01*
X1668Y947D01*
X1668Y945D01*
X1664Y945D01*
X1664Y943D01*
X1658Y943D01*
X1658Y941D01*
X1708Y941D01*
X1708Y955D01*
X1706Y955D01*
X1706Y957D01*
X1704Y957D01*
X1704Y959D01*
X1684Y959D01*
G37*
D02*
G36*
X982Y941D02*
X982Y939D01*
X1708Y939D01*
X1708Y941D01*
X982Y941D01*
G37*
D02*
G36*
X982Y941D02*
X982Y939D01*
X1708Y939D01*
X1708Y941D01*
X982Y941D01*
G37*
D02*
G36*
X982Y941D02*
X982Y939D01*
X1708Y939D01*
X1708Y941D01*
X982Y941D01*
G37*
D02*
G36*
X982Y941D02*
X982Y939D01*
X1708Y939D01*
X1708Y941D01*
X982Y941D01*
G37*
D02*
G36*
X982Y941D02*
X982Y939D01*
X1708Y939D01*
X1708Y941D01*
X982Y941D01*
G37*
D02*
G36*
X982Y941D02*
X982Y939D01*
X1708Y939D01*
X1708Y941D01*
X982Y941D01*
G37*
D02*
G36*
X982Y941D02*
X982Y939D01*
X1708Y939D01*
X1708Y941D01*
X982Y941D01*
G37*
D02*
G36*
X982Y941D02*
X982Y939D01*
X1708Y939D01*
X1708Y941D01*
X982Y941D01*
G37*
D02*
G36*
X982Y939D02*
X982Y915D01*
X1454Y915D01*
X1454Y913D01*
X1460Y913D01*
X1460Y911D01*
X1466Y911D01*
X1466Y909D01*
X1470Y909D01*
X1470Y907D01*
X1474Y907D01*
X1474Y905D01*
X1476Y905D01*
X1476Y903D01*
X1478Y903D01*
X1478Y901D01*
X1482Y901D01*
X1482Y899D01*
X1484Y899D01*
X1484Y897D01*
X1486Y897D01*
X1486Y895D01*
X1488Y895D01*
X1488Y893D01*
X1490Y893D01*
X1490Y891D01*
X1492Y891D01*
X1492Y889D01*
X1494Y889D01*
X1494Y885D01*
X1496Y885D01*
X1496Y883D01*
X1498Y883D01*
X1498Y879D01*
X1500Y879D01*
X1500Y875D01*
X1502Y875D01*
X1502Y871D01*
X1504Y871D01*
X1504Y867D01*
X1506Y867D01*
X1506Y855D01*
X1508Y855D01*
X1508Y849D01*
X1506Y849D01*
X1506Y839D01*
X1504Y839D01*
X1504Y833D01*
X1502Y833D01*
X1502Y829D01*
X1500Y829D01*
X1500Y825D01*
X1498Y825D01*
X1498Y823D01*
X1496Y823D01*
X1496Y819D01*
X1494Y819D01*
X1494Y817D01*
X1492Y817D01*
X1492Y815D01*
X1490Y815D01*
X1490Y813D01*
X1488Y813D01*
X1488Y811D01*
X1486Y811D01*
X1486Y809D01*
X1484Y809D01*
X1484Y807D01*
X1482Y807D01*
X1482Y805D01*
X1480Y805D01*
X1480Y803D01*
X1478Y803D01*
X1478Y801D01*
X1474Y801D01*
X1474Y799D01*
X1472Y799D01*
X1472Y797D01*
X1468Y797D01*
X1468Y795D01*
X1464Y795D01*
X1464Y793D01*
X1458Y793D01*
X1458Y791D01*
X1582Y791D01*
X1582Y793D01*
X1584Y793D01*
X1584Y795D01*
X1586Y795D01*
X1586Y797D01*
X1588Y797D01*
X1588Y799D01*
X1590Y799D01*
X1590Y801D01*
X1592Y801D01*
X1592Y803D01*
X1594Y803D01*
X1594Y805D01*
X1596Y805D01*
X1596Y807D01*
X1598Y807D01*
X1598Y809D01*
X1600Y809D01*
X1600Y811D01*
X1602Y811D01*
X1602Y813D01*
X1604Y813D01*
X1604Y815D01*
X1606Y815D01*
X1606Y817D01*
X1608Y817D01*
X1608Y819D01*
X1610Y819D01*
X1610Y821D01*
X1612Y821D01*
X1612Y823D01*
X1614Y823D01*
X1614Y825D01*
X1616Y825D01*
X1616Y827D01*
X1618Y827D01*
X1618Y829D01*
X1620Y829D01*
X1620Y831D01*
X1622Y831D01*
X1622Y833D01*
X1624Y833D01*
X1624Y835D01*
X1626Y835D01*
X1626Y837D01*
X1628Y837D01*
X1628Y839D01*
X1630Y839D01*
X1630Y841D01*
X1632Y841D01*
X1632Y843D01*
X1634Y843D01*
X1634Y845D01*
X1636Y845D01*
X1636Y847D01*
X1638Y847D01*
X1638Y849D01*
X1640Y849D01*
X1640Y851D01*
X1642Y851D01*
X1642Y853D01*
X1644Y853D01*
X1644Y855D01*
X1646Y855D01*
X1646Y857D01*
X1648Y857D01*
X1648Y859D01*
X1650Y859D01*
X1650Y861D01*
X1652Y861D01*
X1652Y863D01*
X1654Y863D01*
X1654Y865D01*
X1656Y865D01*
X1656Y867D01*
X1658Y867D01*
X1658Y869D01*
X1660Y869D01*
X1660Y871D01*
X1662Y871D01*
X1662Y873D01*
X1664Y873D01*
X1664Y875D01*
X1666Y875D01*
X1666Y877D01*
X1668Y877D01*
X1668Y879D01*
X1670Y879D01*
X1670Y881D01*
X1672Y881D01*
X1672Y883D01*
X1674Y883D01*
X1674Y885D01*
X1676Y885D01*
X1676Y887D01*
X1678Y887D01*
X1678Y889D01*
X1680Y889D01*
X1680Y891D01*
X1682Y891D01*
X1682Y893D01*
X1684Y893D01*
X1684Y895D01*
X1686Y895D01*
X1686Y897D01*
X1688Y897D01*
X1688Y899D01*
X1690Y899D01*
X1690Y901D01*
X1692Y901D01*
X1692Y903D01*
X1694Y903D01*
X1694Y905D01*
X1696Y905D01*
X1696Y907D01*
X1698Y907D01*
X1698Y909D01*
X1700Y909D01*
X1700Y911D01*
X1702Y911D01*
X1702Y913D01*
X1704Y913D01*
X1704Y915D01*
X1706Y915D01*
X1706Y917D01*
X1708Y917D01*
X1708Y939D01*
X982Y939D01*
G37*
D02*
G36*
X982Y915D02*
X982Y893D01*
X984Y893D01*
X984Y891D01*
X986Y891D01*
X986Y889D01*
X988Y889D01*
X988Y887D01*
X990Y887D01*
X990Y885D01*
X992Y885D01*
X992Y881D01*
X994Y881D01*
X994Y879D01*
X996Y879D01*
X996Y877D01*
X998Y877D01*
X998Y875D01*
X1000Y875D01*
X1000Y873D01*
X1002Y873D01*
X1002Y871D01*
X1004Y871D01*
X1004Y869D01*
X1006Y869D01*
X1006Y867D01*
X1008Y867D01*
X1008Y865D01*
X1010Y865D01*
X1010Y863D01*
X1012Y863D01*
X1012Y861D01*
X1014Y861D01*
X1014Y859D01*
X1016Y859D01*
X1016Y857D01*
X1018Y857D01*
X1018Y855D01*
X1020Y855D01*
X1020Y853D01*
X1022Y853D01*
X1022Y851D01*
X1024Y851D01*
X1024Y849D01*
X1026Y849D01*
X1026Y847D01*
X1028Y847D01*
X1028Y845D01*
X1030Y845D01*
X1030Y843D01*
X1032Y843D01*
X1032Y841D01*
X1034Y841D01*
X1034Y839D01*
X1036Y839D01*
X1036Y837D01*
X1038Y837D01*
X1038Y835D01*
X1040Y835D01*
X1040Y833D01*
X1042Y833D01*
X1042Y831D01*
X1044Y831D01*
X1044Y829D01*
X1046Y829D01*
X1046Y827D01*
X1048Y827D01*
X1048Y825D01*
X1050Y825D01*
X1050Y823D01*
X1052Y823D01*
X1052Y821D01*
X1054Y821D01*
X1054Y819D01*
X1056Y819D01*
X1056Y817D01*
X1058Y817D01*
X1058Y815D01*
X1276Y815D01*
X1276Y813D01*
X1282Y813D01*
X1282Y811D01*
X1286Y811D01*
X1286Y809D01*
X1290Y809D01*
X1290Y807D01*
X1292Y807D01*
X1292Y805D01*
X1294Y805D01*
X1294Y803D01*
X1298Y803D01*
X1298Y801D01*
X1300Y801D01*
X1300Y799D01*
X1302Y799D01*
X1302Y797D01*
X1304Y797D01*
X1304Y795D01*
X1306Y795D01*
X1306Y793D01*
X1308Y793D01*
X1308Y791D01*
X1432Y791D01*
X1432Y793D01*
X1426Y793D01*
X1426Y795D01*
X1422Y795D01*
X1422Y797D01*
X1418Y797D01*
X1418Y799D01*
X1414Y799D01*
X1414Y801D01*
X1412Y801D01*
X1412Y803D01*
X1410Y803D01*
X1410Y805D01*
X1406Y805D01*
X1406Y807D01*
X1404Y807D01*
X1404Y809D01*
X1402Y809D01*
X1402Y811D01*
X1400Y811D01*
X1400Y813D01*
X1398Y813D01*
X1398Y815D01*
X1396Y815D01*
X1396Y819D01*
X1394Y819D01*
X1394Y821D01*
X1392Y821D01*
X1392Y825D01*
X1390Y825D01*
X1390Y827D01*
X1388Y827D01*
X1388Y831D01*
X1386Y831D01*
X1386Y837D01*
X1384Y837D01*
X1384Y845D01*
X1382Y845D01*
X1382Y861D01*
X1384Y861D01*
X1384Y869D01*
X1386Y869D01*
X1386Y873D01*
X1388Y873D01*
X1388Y877D01*
X1390Y877D01*
X1390Y881D01*
X1392Y881D01*
X1392Y883D01*
X1394Y883D01*
X1394Y887D01*
X1396Y887D01*
X1396Y889D01*
X1398Y889D01*
X1398Y891D01*
X1400Y891D01*
X1400Y893D01*
X1402Y893D01*
X1402Y895D01*
X1404Y895D01*
X1404Y897D01*
X1406Y897D01*
X1406Y899D01*
X1408Y899D01*
X1408Y901D01*
X1410Y901D01*
X1410Y903D01*
X1414Y903D01*
X1414Y905D01*
X1416Y905D01*
X1416Y907D01*
X1420Y907D01*
X1420Y909D01*
X1424Y909D01*
X1424Y911D01*
X1428Y911D01*
X1428Y913D01*
X1436Y913D01*
X1436Y915D01*
X982Y915D01*
G37*
D02*
G36*
X1310Y791D02*
X1310Y789D01*
X1580Y789D01*
X1580Y791D01*
X1310Y791D01*
G37*
D02*
G36*
X1310Y791D02*
X1310Y789D01*
X1580Y789D01*
X1580Y791D01*
X1310Y791D01*
G37*
D02*
G36*
X1312Y789D02*
X1312Y787D01*
X1314Y787D01*
X1314Y785D01*
X1316Y785D01*
X1316Y783D01*
X1318Y783D01*
X1318Y781D01*
X1320Y781D01*
X1320Y779D01*
X1322Y779D01*
X1322Y777D01*
X1324Y777D01*
X1324Y775D01*
X1326Y775D01*
X1326Y773D01*
X1328Y773D01*
X1328Y771D01*
X1330Y771D01*
X1330Y769D01*
X1332Y769D01*
X1332Y767D01*
X1334Y767D01*
X1334Y765D01*
X1454Y765D01*
X1454Y763D01*
X1460Y763D01*
X1460Y761D01*
X1466Y761D01*
X1466Y759D01*
X1470Y759D01*
X1470Y757D01*
X1474Y757D01*
X1474Y755D01*
X1476Y755D01*
X1476Y753D01*
X1478Y753D01*
X1478Y751D01*
X1482Y751D01*
X1482Y749D01*
X1484Y749D01*
X1484Y747D01*
X1506Y747D01*
X1506Y749D01*
X1508Y749D01*
X1508Y751D01*
X1510Y751D01*
X1510Y753D01*
X1514Y753D01*
X1514Y755D01*
X1516Y755D01*
X1516Y757D01*
X1520Y757D01*
X1520Y759D01*
X1524Y759D01*
X1524Y761D01*
X1528Y761D01*
X1528Y763D01*
X1536Y763D01*
X1536Y765D01*
X1556Y765D01*
X1556Y767D01*
X1558Y767D01*
X1558Y769D01*
X1560Y769D01*
X1560Y771D01*
X1562Y771D01*
X1562Y773D01*
X1564Y773D01*
X1564Y775D01*
X1566Y775D01*
X1566Y777D01*
X1568Y777D01*
X1568Y779D01*
X1570Y779D01*
X1570Y781D01*
X1572Y781D01*
X1572Y783D01*
X1574Y783D01*
X1574Y785D01*
X1576Y785D01*
X1576Y787D01*
X1578Y787D01*
X1578Y789D01*
X1312Y789D01*
G37*
D02*
G36*
X1354Y765D02*
X1354Y763D01*
X1360Y763D01*
X1360Y761D01*
X1366Y761D01*
X1366Y759D01*
X1370Y759D01*
X1370Y757D01*
X1374Y757D01*
X1374Y755D01*
X1376Y755D01*
X1376Y753D01*
X1378Y753D01*
X1378Y751D01*
X1382Y751D01*
X1382Y749D01*
X1384Y749D01*
X1384Y747D01*
X1406Y747D01*
X1406Y749D01*
X1408Y749D01*
X1408Y751D01*
X1410Y751D01*
X1410Y753D01*
X1414Y753D01*
X1414Y755D01*
X1416Y755D01*
X1416Y757D01*
X1420Y757D01*
X1420Y759D01*
X1424Y759D01*
X1424Y761D01*
X1428Y761D01*
X1428Y763D01*
X1436Y763D01*
X1436Y765D01*
X1354Y765D01*
G37*
D02*
G36*
X856Y439D02*
X856Y287D01*
X930Y287D01*
X930Y285D01*
X936Y285D01*
X936Y283D01*
X942Y283D01*
X942Y281D01*
X946Y281D01*
X946Y279D01*
X948Y279D01*
X948Y277D01*
X952Y277D01*
X952Y275D01*
X954Y275D01*
X954Y273D01*
X956Y273D01*
X956Y271D01*
X958Y271D01*
X958Y269D01*
X960Y269D01*
X960Y267D01*
X962Y267D01*
X962Y265D01*
X964Y265D01*
X964Y263D01*
X1114Y263D01*
X1114Y265D01*
X1104Y265D01*
X1104Y267D01*
X1100Y267D01*
X1100Y269D01*
X1096Y269D01*
X1096Y271D01*
X1092Y271D01*
X1092Y273D01*
X1088Y273D01*
X1088Y275D01*
X1086Y275D01*
X1086Y277D01*
X1082Y277D01*
X1082Y279D01*
X1080Y279D01*
X1080Y281D01*
X1078Y281D01*
X1078Y283D01*
X1076Y283D01*
X1076Y285D01*
X1074Y285D01*
X1074Y287D01*
X1072Y287D01*
X1072Y289D01*
X1070Y289D01*
X1070Y293D01*
X1068Y293D01*
X1068Y295D01*
X1066Y295D01*
X1066Y299D01*
X1064Y299D01*
X1064Y301D01*
X1062Y301D01*
X1062Y305D01*
X1060Y305D01*
X1060Y311D01*
X1058Y311D01*
X1058Y317D01*
X1056Y317D01*
X1056Y339D01*
X1058Y339D01*
X1058Y345D01*
X1060Y345D01*
X1060Y349D01*
X1062Y349D01*
X1062Y353D01*
X1064Y353D01*
X1064Y357D01*
X1066Y357D01*
X1066Y359D01*
X1068Y359D01*
X1068Y363D01*
X1070Y363D01*
X1070Y365D01*
X1072Y365D01*
X1072Y367D01*
X1074Y367D01*
X1074Y369D01*
X1076Y369D01*
X1076Y371D01*
X1078Y371D01*
X1078Y373D01*
X1080Y373D01*
X1080Y375D01*
X1082Y375D01*
X1082Y437D01*
X1080Y437D01*
X1080Y439D01*
X856Y439D01*
G37*
D02*
G36*
X856Y287D02*
X856Y271D01*
X858Y271D01*
X858Y269D01*
X860Y269D01*
X860Y267D01*
X880Y267D01*
X880Y269D01*
X882Y269D01*
X882Y271D01*
X884Y271D01*
X884Y273D01*
X886Y273D01*
X886Y275D01*
X888Y275D01*
X888Y277D01*
X892Y277D01*
X892Y279D01*
X894Y279D01*
X894Y281D01*
X898Y281D01*
X898Y283D01*
X902Y283D01*
X902Y285D01*
X908Y285D01*
X908Y287D01*
X856Y287D01*
G37*
D02*
G36*
X1158Y281D02*
X1158Y279D01*
X1156Y279D01*
X1156Y277D01*
X1154Y277D01*
X1154Y275D01*
X1150Y275D01*
X1150Y273D01*
X1148Y273D01*
X1148Y271D01*
X1144Y271D01*
X1144Y269D01*
X1140Y269D01*
X1140Y267D01*
X1134Y267D01*
X1134Y265D01*
X1126Y265D01*
X1126Y263D01*
X1214Y263D01*
X1214Y265D01*
X1204Y265D01*
X1204Y267D01*
X1200Y267D01*
X1200Y269D01*
X1196Y269D01*
X1196Y271D01*
X1192Y271D01*
X1192Y273D01*
X1188Y273D01*
X1188Y275D01*
X1186Y275D01*
X1186Y277D01*
X1182Y277D01*
X1182Y279D01*
X1180Y279D01*
X1180Y281D01*
X1158Y281D01*
G37*
D02*
G36*
X1256Y279D02*
X1256Y277D01*
X1254Y277D01*
X1254Y275D01*
X1250Y275D01*
X1250Y273D01*
X1248Y273D01*
X1248Y271D01*
X1244Y271D01*
X1244Y269D01*
X1240Y269D01*
X1240Y267D01*
X1234Y267D01*
X1234Y265D01*
X1226Y265D01*
X1226Y263D01*
X1276Y263D01*
X1276Y279D01*
X1256Y279D01*
G37*
D02*
G36*
X966Y263D02*
X966Y261D01*
X1274Y261D01*
X1274Y263D01*
X966Y263D01*
G37*
D02*
G36*
X966Y263D02*
X966Y261D01*
X1274Y261D01*
X1274Y263D01*
X966Y263D01*
G37*
D02*
G36*
X966Y263D02*
X966Y261D01*
X1274Y261D01*
X1274Y263D01*
X966Y263D01*
G37*
D02*
G36*
X968Y261D02*
X968Y257D01*
X970Y257D01*
X970Y255D01*
X972Y255D01*
X972Y251D01*
X974Y251D01*
X974Y247D01*
X976Y247D01*
X976Y243D01*
X978Y243D01*
X978Y235D01*
X980Y235D01*
X980Y219D01*
X978Y219D01*
X978Y213D01*
X976Y213D01*
X976Y193D01*
X1160Y193D01*
X1160Y91D01*
X1256Y91D01*
X1256Y117D01*
X1254Y117D01*
X1254Y139D01*
X1256Y139D01*
X1256Y145D01*
X1258Y145D01*
X1258Y151D01*
X1260Y151D01*
X1260Y155D01*
X1262Y155D01*
X1262Y157D01*
X1264Y157D01*
X1264Y161D01*
X1266Y161D01*
X1266Y163D01*
X1268Y163D01*
X1268Y165D01*
X1270Y165D01*
X1270Y169D01*
X1272Y169D01*
X1272Y171D01*
X1274Y171D01*
X1274Y193D01*
X1272Y193D01*
X1272Y197D01*
X1270Y197D01*
X1270Y199D01*
X1268Y199D01*
X1268Y203D01*
X1266Y203D01*
X1266Y207D01*
X1264Y207D01*
X1264Y211D01*
X1262Y211D01*
X1262Y217D01*
X1260Y217D01*
X1260Y237D01*
X1262Y237D01*
X1262Y245D01*
X1264Y245D01*
X1264Y249D01*
X1266Y249D01*
X1266Y253D01*
X1268Y253D01*
X1268Y255D01*
X1270Y255D01*
X1270Y259D01*
X1272Y259D01*
X1272Y261D01*
X968Y261D01*
G37*
D02*
G36*
X1006Y193D02*
X1006Y191D01*
X1028Y191D01*
X1028Y193D01*
X1006Y193D01*
G37*
D02*
G36*
X1780Y891D02*
X1780Y889D01*
X1778Y889D01*
X1778Y885D01*
X1776Y885D01*
X1776Y881D01*
X1774Y881D01*
X1774Y879D01*
X1772Y879D01*
X1772Y877D01*
X1770Y877D01*
X1770Y875D01*
X1768Y875D01*
X1768Y873D01*
X1766Y873D01*
X1766Y871D01*
X1764Y871D01*
X1764Y869D01*
X1762Y869D01*
X1762Y867D01*
X1760Y867D01*
X1760Y865D01*
X1758Y865D01*
X1758Y863D01*
X1756Y863D01*
X1756Y861D01*
X1754Y861D01*
X1754Y859D01*
X1752Y859D01*
X1752Y857D01*
X1750Y857D01*
X1750Y855D01*
X1748Y855D01*
X1748Y853D01*
X1746Y853D01*
X1746Y851D01*
X1744Y851D01*
X1744Y849D01*
X1742Y849D01*
X1742Y847D01*
X1740Y847D01*
X1740Y845D01*
X1738Y845D01*
X1738Y843D01*
X1736Y843D01*
X1736Y841D01*
X1734Y841D01*
X1734Y839D01*
X1732Y839D01*
X1732Y837D01*
X1730Y837D01*
X1730Y835D01*
X1728Y835D01*
X1728Y833D01*
X1726Y833D01*
X1726Y831D01*
X1724Y831D01*
X1724Y829D01*
X1722Y829D01*
X1722Y827D01*
X1720Y827D01*
X1720Y825D01*
X1718Y825D01*
X1718Y823D01*
X1716Y823D01*
X1716Y821D01*
X1714Y821D01*
X1714Y819D01*
X1712Y819D01*
X1712Y817D01*
X1710Y817D01*
X1710Y815D01*
X2066Y815D01*
X2066Y817D01*
X2056Y817D01*
X2056Y819D01*
X2052Y819D01*
X2052Y821D01*
X2050Y821D01*
X2050Y823D01*
X2046Y823D01*
X2046Y825D01*
X2044Y825D01*
X2044Y827D01*
X2042Y827D01*
X2042Y829D01*
X2040Y829D01*
X2040Y831D01*
X2038Y831D01*
X2038Y833D01*
X2036Y833D01*
X2036Y835D01*
X2034Y835D01*
X2034Y837D01*
X2032Y837D01*
X2032Y839D01*
X2030Y839D01*
X2030Y841D01*
X1884Y841D01*
X1884Y843D01*
X1880Y843D01*
X1880Y845D01*
X1876Y845D01*
X1876Y847D01*
X1872Y847D01*
X1872Y849D01*
X1870Y849D01*
X1870Y851D01*
X1868Y851D01*
X1868Y853D01*
X1866Y853D01*
X1866Y855D01*
X1864Y855D01*
X1864Y857D01*
X1862Y857D01*
X1862Y859D01*
X1860Y859D01*
X1860Y861D01*
X1858Y861D01*
X1858Y863D01*
X1856Y863D01*
X1856Y865D01*
X1854Y865D01*
X1854Y867D01*
X1852Y867D01*
X1852Y869D01*
X1850Y869D01*
X1850Y871D01*
X1848Y871D01*
X1848Y873D01*
X1846Y873D01*
X1846Y875D01*
X1844Y875D01*
X1844Y877D01*
X1842Y877D01*
X1842Y879D01*
X1840Y879D01*
X1840Y881D01*
X1838Y881D01*
X1838Y883D01*
X1836Y883D01*
X1836Y885D01*
X1834Y885D01*
X1834Y887D01*
X1832Y887D01*
X1832Y889D01*
X1830Y889D01*
X1830Y891D01*
X1780Y891D01*
G37*
D02*
G36*
X2160Y841D02*
X2160Y839D01*
X2158Y839D01*
X2158Y837D01*
X2156Y837D01*
X2156Y835D01*
X2154Y835D01*
X2154Y833D01*
X2152Y833D01*
X2152Y831D01*
X2150Y831D01*
X2150Y829D01*
X2148Y829D01*
X2148Y827D01*
X2146Y827D01*
X2146Y825D01*
X2144Y825D01*
X2144Y823D01*
X2142Y823D01*
X2142Y821D01*
X2138Y821D01*
X2138Y819D01*
X2134Y819D01*
X2134Y817D01*
X2128Y817D01*
X2128Y815D01*
X2354Y815D01*
X2354Y817D01*
X2352Y817D01*
X2352Y819D01*
X2350Y819D01*
X2350Y821D01*
X2348Y821D01*
X2348Y823D01*
X2346Y823D01*
X2346Y825D01*
X2344Y825D01*
X2344Y827D01*
X2342Y827D01*
X2342Y829D01*
X2340Y829D01*
X2340Y831D01*
X2338Y831D01*
X2338Y833D01*
X2336Y833D01*
X2336Y835D01*
X2334Y835D01*
X2334Y837D01*
X2332Y837D01*
X2332Y839D01*
X2330Y839D01*
X2330Y841D01*
X2160Y841D01*
G37*
D02*
G36*
X1708Y815D02*
X1708Y813D01*
X2356Y813D01*
X2356Y815D01*
X1708Y815D01*
G37*
D02*
G36*
X1708Y815D02*
X1708Y813D01*
X2356Y813D01*
X2356Y815D01*
X1708Y815D01*
G37*
D02*
G36*
X1706Y813D02*
X1706Y811D01*
X1704Y811D01*
X1704Y809D01*
X1702Y809D01*
X1702Y807D01*
X1700Y807D01*
X1700Y805D01*
X1698Y805D01*
X1698Y803D01*
X1696Y803D01*
X1696Y801D01*
X1694Y801D01*
X1694Y799D01*
X1692Y799D01*
X1692Y797D01*
X1690Y797D01*
X1690Y795D01*
X1688Y795D01*
X1688Y793D01*
X1686Y793D01*
X1686Y791D01*
X1684Y791D01*
X1684Y789D01*
X1682Y789D01*
X1682Y787D01*
X1680Y787D01*
X1680Y785D01*
X1678Y785D01*
X1678Y783D01*
X1676Y783D01*
X1676Y781D01*
X1674Y781D01*
X1674Y779D01*
X1672Y779D01*
X1672Y777D01*
X1670Y777D01*
X1670Y765D01*
X2354Y765D01*
X2354Y763D01*
X2360Y763D01*
X2360Y761D01*
X2366Y761D01*
X2366Y759D01*
X2370Y759D01*
X2370Y757D01*
X2374Y757D01*
X2374Y755D01*
X2376Y755D01*
X2376Y753D01*
X2378Y753D01*
X2378Y751D01*
X2382Y751D01*
X2382Y749D01*
X2384Y749D01*
X2384Y747D01*
X2386Y747D01*
X2386Y745D01*
X2388Y745D01*
X2388Y743D01*
X2390Y743D01*
X2390Y741D01*
X2392Y741D01*
X2392Y739D01*
X2394Y739D01*
X2394Y735D01*
X2396Y735D01*
X2396Y733D01*
X2398Y733D01*
X2398Y729D01*
X2400Y729D01*
X2400Y725D01*
X2402Y725D01*
X2402Y721D01*
X2404Y721D01*
X2404Y717D01*
X2406Y717D01*
X2406Y707D01*
X2408Y707D01*
X2408Y699D01*
X2406Y699D01*
X2406Y689D01*
X2404Y689D01*
X2404Y683D01*
X2402Y683D01*
X2402Y679D01*
X2400Y679D01*
X2400Y675D01*
X2398Y675D01*
X2398Y673D01*
X2396Y673D01*
X2396Y669D01*
X2394Y669D01*
X2394Y667D01*
X2392Y667D01*
X2392Y665D01*
X2390Y665D01*
X2390Y663D01*
X2388Y663D01*
X2388Y661D01*
X2386Y661D01*
X2386Y659D01*
X2384Y659D01*
X2384Y657D01*
X2382Y657D01*
X2382Y625D01*
X2384Y625D01*
X2384Y623D01*
X2388Y623D01*
X2388Y621D01*
X2390Y621D01*
X2390Y617D01*
X2392Y617D01*
X2392Y615D01*
X2394Y615D01*
X2394Y613D01*
X2396Y613D01*
X2396Y611D01*
X2398Y611D01*
X2398Y607D01*
X2400Y607D01*
X2400Y605D01*
X2402Y605D01*
X2402Y601D01*
X2404Y601D01*
X2404Y595D01*
X2406Y595D01*
X2406Y589D01*
X2408Y589D01*
X2408Y565D01*
X2406Y565D01*
X2406Y559D01*
X2404Y559D01*
X2404Y555D01*
X2402Y555D01*
X2402Y551D01*
X2400Y551D01*
X2400Y547D01*
X2398Y547D01*
X2398Y545D01*
X2396Y545D01*
X2396Y541D01*
X2394Y541D01*
X2394Y539D01*
X2392Y539D01*
X2392Y537D01*
X2390Y537D01*
X2390Y535D01*
X2388Y535D01*
X2388Y533D01*
X2386Y533D01*
X2386Y531D01*
X2384Y531D01*
X2384Y529D01*
X2382Y529D01*
X2382Y527D01*
X2378Y527D01*
X2378Y525D01*
X2376Y525D01*
X2376Y523D01*
X2372Y523D01*
X2372Y521D01*
X2370Y521D01*
X2370Y519D01*
X2364Y519D01*
X2364Y517D01*
X2360Y517D01*
X2360Y515D01*
X2352Y515D01*
X2352Y513D01*
X2432Y513D01*
X2432Y521D01*
X2430Y521D01*
X2430Y533D01*
X2432Y533D01*
X2432Y543D01*
X2434Y543D01*
X2434Y547D01*
X2436Y547D01*
X2436Y551D01*
X2438Y551D01*
X2438Y555D01*
X2440Y555D01*
X2440Y559D01*
X2442Y559D01*
X2442Y561D01*
X2444Y561D01*
X2444Y565D01*
X2446Y565D01*
X2446Y567D01*
X2448Y567D01*
X2448Y589D01*
X2446Y589D01*
X2446Y591D01*
X2444Y591D01*
X2444Y593D01*
X2442Y593D01*
X2442Y597D01*
X2440Y597D01*
X2440Y599D01*
X2438Y599D01*
X2438Y603D01*
X2436Y603D01*
X2436Y607D01*
X2434Y607D01*
X2434Y613D01*
X2432Y613D01*
X2432Y621D01*
X2430Y621D01*
X2430Y633D01*
X2432Y633D01*
X2432Y643D01*
X2434Y643D01*
X2434Y647D01*
X2436Y647D01*
X2436Y651D01*
X2438Y651D01*
X2438Y655D01*
X2440Y655D01*
X2440Y659D01*
X2442Y659D01*
X2442Y661D01*
X2444Y661D01*
X2444Y665D01*
X2446Y665D01*
X2446Y667D01*
X2448Y667D01*
X2448Y689D01*
X2446Y689D01*
X2446Y691D01*
X2444Y691D01*
X2444Y693D01*
X2442Y693D01*
X2442Y697D01*
X2440Y697D01*
X2440Y699D01*
X2438Y699D01*
X2438Y703D01*
X2436Y703D01*
X2436Y707D01*
X2434Y707D01*
X2434Y713D01*
X2432Y713D01*
X2432Y721D01*
X2430Y721D01*
X2430Y741D01*
X2428Y741D01*
X2428Y743D01*
X2426Y743D01*
X2426Y745D01*
X2424Y745D01*
X2424Y747D01*
X2422Y747D01*
X2422Y749D01*
X2420Y749D01*
X2420Y751D01*
X2418Y751D01*
X2418Y753D01*
X2416Y753D01*
X2416Y755D01*
X2414Y755D01*
X2414Y757D01*
X2412Y757D01*
X2412Y759D01*
X2410Y759D01*
X2410Y761D01*
X2408Y761D01*
X2408Y763D01*
X2406Y763D01*
X2406Y765D01*
X2404Y765D01*
X2404Y767D01*
X2402Y767D01*
X2402Y769D01*
X2400Y769D01*
X2400Y771D01*
X2398Y771D01*
X2398Y773D01*
X2396Y773D01*
X2396Y775D01*
X2394Y775D01*
X2394Y777D01*
X2392Y777D01*
X2392Y779D01*
X2390Y779D01*
X2390Y781D01*
X2388Y781D01*
X2388Y783D01*
X2386Y783D01*
X2386Y785D01*
X2384Y785D01*
X2384Y787D01*
X2382Y787D01*
X2382Y789D01*
X2380Y789D01*
X2380Y791D01*
X2378Y791D01*
X2378Y793D01*
X2376Y793D01*
X2376Y795D01*
X2374Y795D01*
X2374Y797D01*
X2372Y797D01*
X2372Y799D01*
X2370Y799D01*
X2370Y801D01*
X2368Y801D01*
X2368Y803D01*
X2366Y803D01*
X2366Y805D01*
X2364Y805D01*
X2364Y807D01*
X2362Y807D01*
X2362Y809D01*
X2360Y809D01*
X2360Y811D01*
X2358Y811D01*
X2358Y813D01*
X1706Y813D01*
G37*
D02*
G36*
X1670Y765D02*
X1670Y757D01*
X1674Y757D01*
X1674Y755D01*
X1676Y755D01*
X1676Y753D01*
X1678Y753D01*
X1678Y751D01*
X1682Y751D01*
X1682Y749D01*
X1684Y749D01*
X1684Y747D01*
X1706Y747D01*
X1706Y749D01*
X1708Y749D01*
X1708Y751D01*
X1710Y751D01*
X1710Y753D01*
X1714Y753D01*
X1714Y755D01*
X1716Y755D01*
X1716Y757D01*
X1720Y757D01*
X1720Y759D01*
X1724Y759D01*
X1724Y761D01*
X1728Y761D01*
X1728Y763D01*
X1736Y763D01*
X1736Y765D01*
X1670Y765D01*
G37*
D02*
G36*
X1754Y765D02*
X1754Y763D01*
X1760Y763D01*
X1760Y761D01*
X1766Y761D01*
X1766Y759D01*
X1770Y759D01*
X1770Y757D01*
X1774Y757D01*
X1774Y755D01*
X1776Y755D01*
X1776Y753D01*
X1778Y753D01*
X1778Y751D01*
X1782Y751D01*
X1782Y749D01*
X1784Y749D01*
X1784Y747D01*
X1806Y747D01*
X1806Y749D01*
X1808Y749D01*
X1808Y751D01*
X1810Y751D01*
X1810Y753D01*
X1814Y753D01*
X1814Y755D01*
X1816Y755D01*
X1816Y757D01*
X1820Y757D01*
X1820Y759D01*
X1824Y759D01*
X1824Y761D01*
X1828Y761D01*
X1828Y763D01*
X1836Y763D01*
X1836Y765D01*
X1754Y765D01*
G37*
D02*
G36*
X1854Y765D02*
X1854Y763D01*
X1860Y763D01*
X1860Y761D01*
X1866Y761D01*
X1866Y759D01*
X1870Y759D01*
X1870Y757D01*
X1874Y757D01*
X1874Y755D01*
X1876Y755D01*
X1876Y753D01*
X1878Y753D01*
X1878Y751D01*
X1882Y751D01*
X1882Y749D01*
X1884Y749D01*
X1884Y747D01*
X1906Y747D01*
X1906Y749D01*
X1908Y749D01*
X1908Y751D01*
X1910Y751D01*
X1910Y753D01*
X1914Y753D01*
X1914Y755D01*
X1916Y755D01*
X1916Y757D01*
X1920Y757D01*
X1920Y759D01*
X1924Y759D01*
X1924Y761D01*
X1928Y761D01*
X1928Y763D01*
X1936Y763D01*
X1936Y765D01*
X1854Y765D01*
G37*
D02*
G36*
X1954Y765D02*
X1954Y763D01*
X1960Y763D01*
X1960Y761D01*
X1966Y761D01*
X1966Y759D01*
X1970Y759D01*
X1970Y757D01*
X1974Y757D01*
X1974Y755D01*
X1976Y755D01*
X1976Y753D01*
X1978Y753D01*
X1978Y751D01*
X1982Y751D01*
X1982Y749D01*
X1984Y749D01*
X1984Y747D01*
X2006Y747D01*
X2006Y749D01*
X2008Y749D01*
X2008Y751D01*
X2010Y751D01*
X2010Y753D01*
X2014Y753D01*
X2014Y755D01*
X2016Y755D01*
X2016Y757D01*
X2020Y757D01*
X2020Y759D01*
X2024Y759D01*
X2024Y761D01*
X2028Y761D01*
X2028Y763D01*
X2036Y763D01*
X2036Y765D01*
X1954Y765D01*
G37*
D02*
G36*
X2054Y765D02*
X2054Y763D01*
X2060Y763D01*
X2060Y761D01*
X2066Y761D01*
X2066Y759D01*
X2070Y759D01*
X2070Y757D01*
X2074Y757D01*
X2074Y755D01*
X2076Y755D01*
X2076Y753D01*
X2078Y753D01*
X2078Y751D01*
X2082Y751D01*
X2082Y749D01*
X2084Y749D01*
X2084Y747D01*
X2106Y747D01*
X2106Y749D01*
X2108Y749D01*
X2108Y751D01*
X2110Y751D01*
X2110Y753D01*
X2114Y753D01*
X2114Y755D01*
X2116Y755D01*
X2116Y757D01*
X2120Y757D01*
X2120Y759D01*
X2124Y759D01*
X2124Y761D01*
X2128Y761D01*
X2128Y763D01*
X2136Y763D01*
X2136Y765D01*
X2054Y765D01*
G37*
D02*
G36*
X2154Y765D02*
X2154Y763D01*
X2160Y763D01*
X2160Y761D01*
X2166Y761D01*
X2166Y759D01*
X2170Y759D01*
X2170Y757D01*
X2174Y757D01*
X2174Y755D01*
X2176Y755D01*
X2176Y753D01*
X2178Y753D01*
X2178Y751D01*
X2182Y751D01*
X2182Y749D01*
X2184Y749D01*
X2184Y747D01*
X2206Y747D01*
X2206Y749D01*
X2208Y749D01*
X2208Y751D01*
X2210Y751D01*
X2210Y753D01*
X2214Y753D01*
X2214Y755D01*
X2216Y755D01*
X2216Y757D01*
X2220Y757D01*
X2220Y759D01*
X2224Y759D01*
X2224Y761D01*
X2228Y761D01*
X2228Y763D01*
X2236Y763D01*
X2236Y765D01*
X2154Y765D01*
G37*
D02*
G36*
X2254Y765D02*
X2254Y763D01*
X2260Y763D01*
X2260Y761D01*
X2266Y761D01*
X2266Y759D01*
X2270Y759D01*
X2270Y757D01*
X2274Y757D01*
X2274Y755D01*
X2276Y755D01*
X2276Y753D01*
X2278Y753D01*
X2278Y751D01*
X2282Y751D01*
X2282Y749D01*
X2284Y749D01*
X2284Y747D01*
X2306Y747D01*
X2306Y749D01*
X2308Y749D01*
X2308Y751D01*
X2310Y751D01*
X2310Y753D01*
X2314Y753D01*
X2314Y755D01*
X2316Y755D01*
X2316Y757D01*
X2320Y757D01*
X2320Y759D01*
X2324Y759D01*
X2324Y761D01*
X2328Y761D01*
X2328Y763D01*
X2336Y763D01*
X2336Y765D01*
X2254Y765D01*
G37*
D02*
G36*
X984Y659D02*
X984Y649D01*
X982Y649D01*
X982Y643D01*
X980Y643D01*
X980Y641D01*
X1032Y641D01*
X1032Y643D01*
X1026Y643D01*
X1026Y645D01*
X1022Y645D01*
X1022Y647D01*
X1018Y647D01*
X1018Y649D01*
X1014Y649D01*
X1014Y651D01*
X1012Y651D01*
X1012Y653D01*
X1010Y653D01*
X1010Y655D01*
X1006Y655D01*
X1006Y657D01*
X1004Y657D01*
X1004Y659D01*
X984Y659D01*
G37*
D02*
G36*
X1084Y659D02*
X1084Y657D01*
X1082Y657D01*
X1082Y655D01*
X1080Y655D01*
X1080Y653D01*
X1078Y653D01*
X1078Y651D01*
X1074Y651D01*
X1074Y649D01*
X1072Y649D01*
X1072Y647D01*
X1068Y647D01*
X1068Y645D01*
X1064Y645D01*
X1064Y643D01*
X1058Y643D01*
X1058Y641D01*
X1132Y641D01*
X1132Y643D01*
X1126Y643D01*
X1126Y645D01*
X1122Y645D01*
X1122Y647D01*
X1118Y647D01*
X1118Y649D01*
X1114Y649D01*
X1114Y651D01*
X1112Y651D01*
X1112Y653D01*
X1110Y653D01*
X1110Y655D01*
X1106Y655D01*
X1106Y657D01*
X1104Y657D01*
X1104Y659D01*
X1084Y659D01*
G37*
D02*
G36*
X1184Y659D02*
X1184Y657D01*
X1182Y657D01*
X1182Y655D01*
X1180Y655D01*
X1180Y653D01*
X1178Y653D01*
X1178Y651D01*
X1174Y651D01*
X1174Y649D01*
X1172Y649D01*
X1172Y647D01*
X1168Y647D01*
X1168Y645D01*
X1164Y645D01*
X1164Y643D01*
X1158Y643D01*
X1158Y641D01*
X1232Y641D01*
X1232Y643D01*
X1226Y643D01*
X1226Y645D01*
X1222Y645D01*
X1222Y647D01*
X1218Y647D01*
X1218Y649D01*
X1214Y649D01*
X1214Y651D01*
X1212Y651D01*
X1212Y653D01*
X1210Y653D01*
X1210Y655D01*
X1206Y655D01*
X1206Y657D01*
X1204Y657D01*
X1204Y659D01*
X1184Y659D01*
G37*
D02*
G36*
X1284Y659D02*
X1284Y657D01*
X1282Y657D01*
X1282Y655D01*
X1280Y655D01*
X1280Y653D01*
X1278Y653D01*
X1278Y651D01*
X1274Y651D01*
X1274Y649D01*
X1272Y649D01*
X1272Y647D01*
X1268Y647D01*
X1268Y645D01*
X1264Y645D01*
X1264Y643D01*
X1258Y643D01*
X1258Y641D01*
X1332Y641D01*
X1332Y643D01*
X1326Y643D01*
X1326Y645D01*
X1322Y645D01*
X1322Y647D01*
X1318Y647D01*
X1318Y649D01*
X1314Y649D01*
X1314Y651D01*
X1312Y651D01*
X1312Y653D01*
X1310Y653D01*
X1310Y655D01*
X1306Y655D01*
X1306Y657D01*
X1304Y657D01*
X1304Y659D01*
X1284Y659D01*
G37*
D02*
G36*
X1384Y659D02*
X1384Y657D01*
X1382Y657D01*
X1382Y655D01*
X1380Y655D01*
X1380Y653D01*
X1378Y653D01*
X1378Y651D01*
X1374Y651D01*
X1374Y649D01*
X1372Y649D01*
X1372Y647D01*
X1368Y647D01*
X1368Y645D01*
X1364Y645D01*
X1364Y643D01*
X1358Y643D01*
X1358Y641D01*
X1432Y641D01*
X1432Y643D01*
X1426Y643D01*
X1426Y645D01*
X1422Y645D01*
X1422Y647D01*
X1418Y647D01*
X1418Y649D01*
X1414Y649D01*
X1414Y651D01*
X1412Y651D01*
X1412Y653D01*
X1410Y653D01*
X1410Y655D01*
X1406Y655D01*
X1406Y657D01*
X1404Y657D01*
X1404Y659D01*
X1384Y659D01*
G37*
D02*
G36*
X1482Y657D02*
X1482Y655D01*
X1480Y655D01*
X1480Y653D01*
X1478Y653D01*
X1478Y651D01*
X1474Y651D01*
X1474Y649D01*
X1472Y649D01*
X1472Y647D01*
X1468Y647D01*
X1468Y645D01*
X1464Y645D01*
X1464Y643D01*
X1458Y643D01*
X1458Y641D01*
X1502Y641D01*
X1502Y657D01*
X1482Y657D01*
G37*
D02*
G36*
X978Y641D02*
X978Y639D01*
X1502Y639D01*
X1502Y641D01*
X978Y641D01*
G37*
D02*
G36*
X978Y641D02*
X978Y639D01*
X1502Y639D01*
X1502Y641D01*
X978Y641D01*
G37*
D02*
G36*
X978Y641D02*
X978Y639D01*
X1502Y639D01*
X1502Y641D01*
X978Y641D01*
G37*
D02*
G36*
X978Y641D02*
X978Y639D01*
X1502Y639D01*
X1502Y641D01*
X978Y641D01*
G37*
D02*
G36*
X978Y641D02*
X978Y639D01*
X1502Y639D01*
X1502Y641D01*
X978Y641D01*
G37*
D02*
G36*
X978Y641D02*
X978Y639D01*
X1502Y639D01*
X1502Y641D01*
X978Y641D01*
G37*
D02*
G36*
X978Y639D02*
X978Y637D01*
X976Y637D01*
X976Y635D01*
X974Y635D01*
X974Y633D01*
X972Y633D01*
X972Y631D01*
X970Y631D01*
X970Y627D01*
X968Y627D01*
X968Y625D01*
X966Y625D01*
X966Y623D01*
X964Y623D01*
X964Y621D01*
X962Y621D01*
X962Y619D01*
X960Y619D01*
X960Y617D01*
X1026Y617D01*
X1026Y615D01*
X1034Y615D01*
X1034Y613D01*
X1040Y613D01*
X1040Y611D01*
X1044Y611D01*
X1044Y609D01*
X1048Y609D01*
X1048Y607D01*
X1050Y607D01*
X1050Y605D01*
X1054Y605D01*
X1054Y603D01*
X1056Y603D01*
X1056Y601D01*
X1058Y601D01*
X1058Y599D01*
X1060Y599D01*
X1060Y597D01*
X1064Y597D01*
X1064Y593D01*
X1066Y593D01*
X1066Y591D01*
X1068Y591D01*
X1068Y589D01*
X1070Y589D01*
X1070Y587D01*
X1072Y587D01*
X1072Y583D01*
X1074Y583D01*
X1074Y581D01*
X1076Y581D01*
X1076Y577D01*
X1078Y577D01*
X1078Y573D01*
X1080Y573D01*
X1080Y567D01*
X1082Y567D01*
X1082Y559D01*
X1084Y559D01*
X1084Y545D01*
X1082Y545D01*
X1082Y543D01*
X1534Y543D01*
X1534Y545D01*
X1528Y545D01*
X1528Y547D01*
X1524Y547D01*
X1524Y549D01*
X1520Y549D01*
X1520Y551D01*
X1516Y551D01*
X1516Y553D01*
X1514Y553D01*
X1514Y555D01*
X1510Y555D01*
X1510Y557D01*
X1508Y557D01*
X1508Y559D01*
X1506Y559D01*
X1506Y561D01*
X1504Y561D01*
X1504Y563D01*
X1502Y563D01*
X1502Y565D01*
X1500Y565D01*
X1500Y567D01*
X1498Y567D01*
X1498Y569D01*
X1496Y569D01*
X1496Y573D01*
X1494Y573D01*
X1494Y575D01*
X1492Y575D01*
X1492Y579D01*
X1490Y579D01*
X1490Y583D01*
X1488Y583D01*
X1488Y589D01*
X1486Y589D01*
X1486Y597D01*
X1484Y597D01*
X1484Y607D01*
X1486Y607D01*
X1486Y617D01*
X1488Y617D01*
X1488Y621D01*
X1490Y621D01*
X1490Y625D01*
X1492Y625D01*
X1492Y629D01*
X1494Y629D01*
X1494Y633D01*
X1496Y633D01*
X1496Y635D01*
X1498Y635D01*
X1498Y637D01*
X1500Y637D01*
X1500Y639D01*
X978Y639D01*
G37*
D02*
G36*
X960Y617D02*
X960Y599D01*
X980Y599D01*
X980Y601D01*
X982Y601D01*
X982Y603D01*
X986Y603D01*
X986Y605D01*
X988Y605D01*
X988Y607D01*
X992Y607D01*
X992Y609D01*
X996Y609D01*
X996Y611D01*
X1000Y611D01*
X1000Y613D01*
X1004Y613D01*
X1004Y615D01*
X1014Y615D01*
X1014Y617D01*
X960Y617D01*
G37*
D02*
G36*
X1584Y561D02*
X1584Y559D01*
X1582Y559D01*
X1582Y557D01*
X1578Y557D01*
X1578Y555D01*
X1576Y555D01*
X1576Y553D01*
X1574Y553D01*
X1574Y551D01*
X1570Y551D01*
X1570Y549D01*
X1566Y549D01*
X1566Y547D01*
X1562Y547D01*
X1562Y545D01*
X1556Y545D01*
X1556Y543D01*
X1634Y543D01*
X1634Y545D01*
X1628Y545D01*
X1628Y547D01*
X1624Y547D01*
X1624Y549D01*
X1620Y549D01*
X1620Y551D01*
X1616Y551D01*
X1616Y553D01*
X1614Y553D01*
X1614Y555D01*
X1610Y555D01*
X1610Y557D01*
X1608Y557D01*
X1608Y559D01*
X1606Y559D01*
X1606Y561D01*
X1584Y561D01*
G37*
D02*
G36*
X1666Y549D02*
X1666Y547D01*
X1662Y547D01*
X1662Y545D01*
X1656Y545D01*
X1656Y543D01*
X1692Y543D01*
X1692Y547D01*
X1690Y547D01*
X1690Y549D01*
X1666Y549D01*
G37*
D02*
G36*
X1082Y543D02*
X1082Y541D01*
X1694Y541D01*
X1694Y543D01*
X1082Y543D01*
G37*
D02*
G36*
X1082Y543D02*
X1082Y541D01*
X1694Y541D01*
X1694Y543D01*
X1082Y543D01*
G37*
D02*
G36*
X1082Y543D02*
X1082Y541D01*
X1694Y541D01*
X1694Y543D01*
X1082Y543D01*
G37*
D02*
G36*
X1082Y541D02*
X1082Y537D01*
X1080Y537D01*
X1080Y513D01*
X1738Y513D01*
X1738Y515D01*
X1730Y515D01*
X1730Y517D01*
X1724Y517D01*
X1724Y519D01*
X1720Y519D01*
X1720Y521D01*
X1716Y521D01*
X1716Y523D01*
X1714Y523D01*
X1714Y525D01*
X1710Y525D01*
X1710Y527D01*
X1708Y527D01*
X1708Y529D01*
X1706Y529D01*
X1706Y531D01*
X1704Y531D01*
X1704Y533D01*
X1702Y533D01*
X1702Y535D01*
X1700Y535D01*
X1700Y537D01*
X1698Y537D01*
X1698Y539D01*
X1696Y539D01*
X1696Y541D01*
X1082Y541D01*
G37*
D02*
G36*
X1784Y531D02*
X1784Y529D01*
X1782Y529D01*
X1782Y527D01*
X1778Y527D01*
X1778Y525D01*
X1776Y525D01*
X1776Y523D01*
X1772Y523D01*
X1772Y521D01*
X1770Y521D01*
X1770Y519D01*
X1764Y519D01*
X1764Y517D01*
X1760Y517D01*
X1760Y515D01*
X1752Y515D01*
X1752Y513D01*
X1838Y513D01*
X1838Y515D01*
X1830Y515D01*
X1830Y517D01*
X1824Y517D01*
X1824Y519D01*
X1820Y519D01*
X1820Y521D01*
X1816Y521D01*
X1816Y523D01*
X1814Y523D01*
X1814Y525D01*
X1810Y525D01*
X1810Y527D01*
X1808Y527D01*
X1808Y529D01*
X1806Y529D01*
X1806Y531D01*
X1784Y531D01*
G37*
D02*
G36*
X1884Y531D02*
X1884Y529D01*
X1882Y529D01*
X1882Y527D01*
X1878Y527D01*
X1878Y525D01*
X1876Y525D01*
X1876Y523D01*
X1872Y523D01*
X1872Y521D01*
X1870Y521D01*
X1870Y519D01*
X1864Y519D01*
X1864Y517D01*
X1860Y517D01*
X1860Y515D01*
X1852Y515D01*
X1852Y513D01*
X1938Y513D01*
X1938Y515D01*
X1930Y515D01*
X1930Y517D01*
X1924Y517D01*
X1924Y519D01*
X1920Y519D01*
X1920Y521D01*
X1916Y521D01*
X1916Y523D01*
X1914Y523D01*
X1914Y525D01*
X1910Y525D01*
X1910Y527D01*
X1908Y527D01*
X1908Y529D01*
X1906Y529D01*
X1906Y531D01*
X1884Y531D01*
G37*
D02*
G36*
X1984Y531D02*
X1984Y529D01*
X1982Y529D01*
X1982Y527D01*
X1978Y527D01*
X1978Y525D01*
X1976Y525D01*
X1976Y523D01*
X1972Y523D01*
X1972Y521D01*
X1970Y521D01*
X1970Y519D01*
X1964Y519D01*
X1964Y517D01*
X1960Y517D01*
X1960Y515D01*
X1952Y515D01*
X1952Y513D01*
X2038Y513D01*
X2038Y515D01*
X2030Y515D01*
X2030Y517D01*
X2024Y517D01*
X2024Y519D01*
X2020Y519D01*
X2020Y521D01*
X2016Y521D01*
X2016Y523D01*
X2014Y523D01*
X2014Y525D01*
X2010Y525D01*
X2010Y527D01*
X2008Y527D01*
X2008Y529D01*
X2006Y529D01*
X2006Y531D01*
X1984Y531D01*
G37*
D02*
G36*
X2084Y531D02*
X2084Y529D01*
X2082Y529D01*
X2082Y527D01*
X2078Y527D01*
X2078Y525D01*
X2076Y525D01*
X2076Y523D01*
X2072Y523D01*
X2072Y521D01*
X2070Y521D01*
X2070Y519D01*
X2064Y519D01*
X2064Y517D01*
X2060Y517D01*
X2060Y515D01*
X2052Y515D01*
X2052Y513D01*
X2138Y513D01*
X2138Y515D01*
X2130Y515D01*
X2130Y517D01*
X2124Y517D01*
X2124Y519D01*
X2120Y519D01*
X2120Y521D01*
X2116Y521D01*
X2116Y523D01*
X2114Y523D01*
X2114Y525D01*
X2110Y525D01*
X2110Y527D01*
X2108Y527D01*
X2108Y529D01*
X2106Y529D01*
X2106Y531D01*
X2084Y531D01*
G37*
D02*
G36*
X2184Y531D02*
X2184Y529D01*
X2182Y529D01*
X2182Y527D01*
X2178Y527D01*
X2178Y525D01*
X2176Y525D01*
X2176Y523D01*
X2172Y523D01*
X2172Y521D01*
X2170Y521D01*
X2170Y519D01*
X2164Y519D01*
X2164Y517D01*
X2160Y517D01*
X2160Y515D01*
X2152Y515D01*
X2152Y513D01*
X2238Y513D01*
X2238Y515D01*
X2230Y515D01*
X2230Y517D01*
X2224Y517D01*
X2224Y519D01*
X2220Y519D01*
X2220Y521D01*
X2216Y521D01*
X2216Y523D01*
X2214Y523D01*
X2214Y525D01*
X2210Y525D01*
X2210Y527D01*
X2208Y527D01*
X2208Y529D01*
X2206Y529D01*
X2206Y531D01*
X2184Y531D01*
G37*
D02*
G36*
X2284Y531D02*
X2284Y529D01*
X2282Y529D01*
X2282Y527D01*
X2278Y527D01*
X2278Y525D01*
X2276Y525D01*
X2276Y523D01*
X2272Y523D01*
X2272Y521D01*
X2270Y521D01*
X2270Y519D01*
X2264Y519D01*
X2264Y517D01*
X2260Y517D01*
X2260Y515D01*
X2252Y515D01*
X2252Y513D01*
X2338Y513D01*
X2338Y515D01*
X2330Y515D01*
X2330Y517D01*
X2324Y517D01*
X2324Y519D01*
X2320Y519D01*
X2320Y521D01*
X2316Y521D01*
X2316Y523D01*
X2314Y523D01*
X2314Y525D01*
X2310Y525D01*
X2310Y527D01*
X2308Y527D01*
X2308Y529D01*
X2306Y529D01*
X2306Y531D01*
X2284Y531D01*
G37*
D02*
G36*
X1106Y513D02*
X1106Y511D01*
X2434Y511D01*
X2434Y513D01*
X1106Y513D01*
G37*
D02*
G36*
X1106Y513D02*
X1106Y511D01*
X2434Y511D01*
X2434Y513D01*
X1106Y513D01*
G37*
D02*
G36*
X1106Y513D02*
X1106Y511D01*
X2434Y511D01*
X2434Y513D01*
X1106Y513D01*
G37*
D02*
G36*
X1106Y513D02*
X1106Y511D01*
X2434Y511D01*
X2434Y513D01*
X1106Y513D01*
G37*
D02*
G36*
X1106Y513D02*
X1106Y511D01*
X2434Y511D01*
X2434Y513D01*
X1106Y513D01*
G37*
D02*
G36*
X1106Y513D02*
X1106Y511D01*
X2434Y511D01*
X2434Y513D01*
X1106Y513D01*
G37*
D02*
G36*
X1106Y513D02*
X1106Y511D01*
X2434Y511D01*
X2434Y513D01*
X1106Y513D01*
G37*
D02*
G36*
X1106Y513D02*
X1106Y511D01*
X2434Y511D01*
X2434Y513D01*
X1106Y513D01*
G37*
D02*
G36*
X1110Y511D02*
X1110Y509D01*
X1114Y509D01*
X1114Y507D01*
X1118Y507D01*
X1118Y505D01*
X1120Y505D01*
X1120Y503D01*
X1122Y503D01*
X1122Y501D01*
X1124Y501D01*
X1124Y499D01*
X1126Y499D01*
X1126Y497D01*
X1128Y497D01*
X1128Y495D01*
X1130Y495D01*
X1130Y493D01*
X1132Y493D01*
X1132Y491D01*
X1134Y491D01*
X1134Y489D01*
X1136Y489D01*
X1136Y487D01*
X1138Y487D01*
X1138Y485D01*
X1140Y485D01*
X1140Y483D01*
X1142Y483D01*
X1142Y481D01*
X1144Y481D01*
X1144Y479D01*
X1146Y479D01*
X1146Y477D01*
X1148Y477D01*
X1148Y473D01*
X1150Y473D01*
X1150Y471D01*
X1152Y471D01*
X1152Y467D01*
X1154Y467D01*
X1154Y459D01*
X1156Y459D01*
X1156Y439D01*
X2058Y439D01*
X2058Y403D01*
X2368Y403D01*
X2368Y401D01*
X2370Y401D01*
X2370Y253D01*
X2518Y253D01*
X2518Y463D01*
X2488Y463D01*
X2488Y465D01*
X2480Y465D01*
X2480Y467D01*
X2474Y467D01*
X2474Y469D01*
X2470Y469D01*
X2470Y471D01*
X2466Y471D01*
X2466Y473D01*
X2464Y473D01*
X2464Y475D01*
X2460Y475D01*
X2460Y477D01*
X2458Y477D01*
X2458Y479D01*
X2456Y479D01*
X2456Y481D01*
X2454Y481D01*
X2454Y483D01*
X2452Y483D01*
X2452Y485D01*
X2450Y485D01*
X2450Y487D01*
X2448Y487D01*
X2448Y489D01*
X2446Y489D01*
X2446Y491D01*
X2444Y491D01*
X2444Y493D01*
X2442Y493D01*
X2442Y497D01*
X2440Y497D01*
X2440Y499D01*
X2438Y499D01*
X2438Y503D01*
X2436Y503D01*
X2436Y507D01*
X2434Y507D01*
X2434Y511D01*
X1110Y511D01*
G37*
D02*
G36*
X1156Y439D02*
X1156Y391D01*
X1332Y391D01*
X1332Y389D01*
X1338Y389D01*
X1338Y387D01*
X1342Y387D01*
X1342Y385D01*
X1346Y385D01*
X1346Y383D01*
X1350Y383D01*
X1350Y381D01*
X1352Y381D01*
X1352Y379D01*
X1356Y379D01*
X1356Y377D01*
X1358Y377D01*
X1358Y375D01*
X1360Y375D01*
X1360Y373D01*
X1362Y373D01*
X1362Y371D01*
X1364Y371D01*
X1364Y369D01*
X1366Y369D01*
X1366Y367D01*
X1368Y367D01*
X1368Y365D01*
X1370Y365D01*
X1370Y361D01*
X1372Y361D01*
X1372Y359D01*
X1374Y359D01*
X1374Y355D01*
X1376Y355D01*
X1376Y353D01*
X1378Y353D01*
X1378Y349D01*
X1380Y349D01*
X1380Y343D01*
X1382Y343D01*
X1382Y335D01*
X1384Y335D01*
X1384Y321D01*
X1382Y321D01*
X1382Y313D01*
X1380Y313D01*
X1380Y307D01*
X1378Y307D01*
X1378Y303D01*
X1376Y303D01*
X1376Y299D01*
X1374Y299D01*
X1374Y297D01*
X1372Y297D01*
X1372Y293D01*
X1370Y293D01*
X1370Y291D01*
X1368Y291D01*
X1368Y289D01*
X1366Y289D01*
X1366Y287D01*
X1430Y287D01*
X1430Y285D01*
X1436Y285D01*
X1436Y283D01*
X1442Y283D01*
X1442Y281D01*
X1446Y281D01*
X1446Y279D01*
X1448Y279D01*
X1448Y277D01*
X1452Y277D01*
X1452Y275D01*
X1454Y275D01*
X1454Y273D01*
X1456Y273D01*
X1456Y271D01*
X1458Y271D01*
X1458Y269D01*
X1460Y269D01*
X1460Y267D01*
X1462Y267D01*
X1462Y265D01*
X1464Y265D01*
X1464Y263D01*
X1466Y263D01*
X1466Y261D01*
X1468Y261D01*
X1468Y257D01*
X1470Y257D01*
X1470Y255D01*
X1472Y255D01*
X1472Y251D01*
X1474Y251D01*
X1474Y247D01*
X1476Y247D01*
X1476Y243D01*
X1478Y243D01*
X1478Y235D01*
X1480Y235D01*
X1480Y219D01*
X1478Y219D01*
X1478Y213D01*
X1476Y213D01*
X1476Y211D01*
X1690Y211D01*
X1690Y213D01*
X1682Y213D01*
X1682Y215D01*
X1676Y215D01*
X1676Y217D01*
X1672Y217D01*
X1672Y219D01*
X1668Y219D01*
X1668Y221D01*
X1664Y221D01*
X1664Y223D01*
X1662Y223D01*
X1662Y225D01*
X1660Y225D01*
X1660Y227D01*
X1656Y227D01*
X1656Y229D01*
X1654Y229D01*
X1654Y231D01*
X1652Y231D01*
X1652Y233D01*
X1650Y233D01*
X1650Y235D01*
X1648Y235D01*
X1648Y237D01*
X1646Y237D01*
X1646Y241D01*
X1644Y241D01*
X1644Y243D01*
X1642Y243D01*
X1642Y245D01*
X1640Y245D01*
X1640Y249D01*
X1638Y249D01*
X1638Y253D01*
X1636Y253D01*
X1636Y257D01*
X1634Y257D01*
X1634Y263D01*
X1632Y263D01*
X1632Y271D01*
X1630Y271D01*
X1630Y283D01*
X1632Y283D01*
X1632Y293D01*
X1634Y293D01*
X1634Y297D01*
X1636Y297D01*
X1636Y303D01*
X1638Y303D01*
X1638Y305D01*
X1640Y305D01*
X1640Y309D01*
X1642Y309D01*
X1642Y313D01*
X1644Y313D01*
X1644Y315D01*
X1646Y315D01*
X1646Y317D01*
X1648Y317D01*
X1648Y319D01*
X1650Y319D01*
X1650Y339D01*
X1648Y339D01*
X1648Y341D01*
X1646Y341D01*
X1646Y343D01*
X1644Y343D01*
X1644Y347D01*
X1642Y347D01*
X1642Y349D01*
X1640Y349D01*
X1640Y353D01*
X1638Y353D01*
X1638Y357D01*
X1636Y357D01*
X1636Y361D01*
X1634Y361D01*
X1634Y369D01*
X1632Y369D01*
X1632Y385D01*
X1634Y385D01*
X1634Y393D01*
X1636Y393D01*
X1636Y399D01*
X1638Y399D01*
X1638Y403D01*
X1640Y403D01*
X1640Y405D01*
X1642Y405D01*
X1642Y409D01*
X1644Y409D01*
X1644Y411D01*
X1646Y411D01*
X1646Y415D01*
X1648Y415D01*
X1648Y417D01*
X1650Y417D01*
X1650Y419D01*
X1652Y419D01*
X1652Y421D01*
X1654Y421D01*
X1654Y423D01*
X1656Y423D01*
X1656Y425D01*
X1660Y425D01*
X1660Y427D01*
X1662Y427D01*
X1662Y429D01*
X1664Y429D01*
X1664Y431D01*
X1668Y431D01*
X1668Y433D01*
X1672Y433D01*
X1672Y435D01*
X1676Y435D01*
X1676Y437D01*
X1682Y437D01*
X1682Y439D01*
X1156Y439D01*
G37*
D02*
G36*
X1708Y439D02*
X1708Y437D01*
X1714Y437D01*
X1714Y435D01*
X1718Y435D01*
X1718Y433D01*
X1722Y433D01*
X1722Y431D01*
X1724Y431D01*
X1724Y429D01*
X1728Y429D01*
X1728Y427D01*
X1730Y427D01*
X1730Y425D01*
X1732Y425D01*
X1732Y423D01*
X1734Y423D01*
X1734Y421D01*
X1736Y421D01*
X1736Y419D01*
X1738Y419D01*
X1738Y417D01*
X1740Y417D01*
X1740Y415D01*
X1742Y415D01*
X1742Y413D01*
X1744Y413D01*
X1744Y411D01*
X1746Y411D01*
X1746Y407D01*
X1748Y407D01*
X1748Y405D01*
X1750Y405D01*
X1750Y401D01*
X1752Y401D01*
X1752Y397D01*
X1754Y397D01*
X1754Y391D01*
X1756Y391D01*
X1756Y381D01*
X1758Y381D01*
X1758Y375D01*
X1756Y375D01*
X1756Y363D01*
X1754Y363D01*
X1754Y359D01*
X1752Y359D01*
X1752Y355D01*
X1750Y355D01*
X1750Y351D01*
X1748Y351D01*
X1748Y347D01*
X1746Y347D01*
X1746Y345D01*
X1744Y345D01*
X1744Y341D01*
X1742Y341D01*
X1742Y321D01*
X1744Y321D01*
X1744Y319D01*
X1746Y319D01*
X1746Y317D01*
X1748Y317D01*
X1748Y313D01*
X1750Y313D01*
X1750Y311D01*
X1752Y311D01*
X1752Y307D01*
X1754Y307D01*
X1754Y305D01*
X1756Y305D01*
X1756Y301D01*
X1758Y301D01*
X1758Y297D01*
X1760Y297D01*
X1760Y289D01*
X1762Y289D01*
X1762Y265D01*
X1760Y265D01*
X1760Y259D01*
X1758Y259D01*
X1758Y255D01*
X1756Y255D01*
X1756Y251D01*
X1754Y251D01*
X1754Y247D01*
X1752Y247D01*
X1752Y245D01*
X1750Y245D01*
X1750Y241D01*
X1748Y241D01*
X1748Y239D01*
X1746Y239D01*
X1746Y237D01*
X1744Y237D01*
X1744Y235D01*
X1742Y235D01*
X1742Y233D01*
X1740Y233D01*
X1740Y231D01*
X1738Y231D01*
X1738Y229D01*
X1736Y229D01*
X1736Y227D01*
X1734Y227D01*
X1734Y225D01*
X1732Y225D01*
X1732Y223D01*
X1728Y223D01*
X1728Y221D01*
X1726Y221D01*
X1726Y219D01*
X1722Y219D01*
X1722Y217D01*
X1718Y217D01*
X1718Y215D01*
X1712Y215D01*
X1712Y213D01*
X1704Y213D01*
X1704Y211D01*
X1930Y211D01*
X1930Y271D01*
X1928Y271D01*
X1928Y283D01*
X1930Y283D01*
X1930Y343D01*
X1932Y343D01*
X1932Y439D01*
X1708Y439D01*
G37*
D02*
G36*
X2058Y403D02*
X2058Y343D01*
X2062Y343D01*
X2062Y325D01*
X2100Y325D01*
X2100Y327D01*
X2102Y327D01*
X2102Y329D01*
X2104Y329D01*
X2104Y331D01*
X2106Y331D01*
X2106Y333D01*
X2108Y333D01*
X2108Y335D01*
X2110Y335D01*
X2110Y337D01*
X2112Y337D01*
X2112Y339D01*
X2114Y339D01*
X2114Y341D01*
X2116Y341D01*
X2116Y343D01*
X2118Y343D01*
X2118Y345D01*
X2120Y345D01*
X2120Y347D01*
X2122Y347D01*
X2122Y349D01*
X2124Y349D01*
X2124Y351D01*
X2126Y351D01*
X2126Y353D01*
X2128Y353D01*
X2128Y355D01*
X2130Y355D01*
X2130Y357D01*
X2132Y357D01*
X2132Y359D01*
X2134Y359D01*
X2134Y361D01*
X2136Y361D01*
X2136Y363D01*
X2138Y363D01*
X2138Y365D01*
X2140Y365D01*
X2140Y367D01*
X2142Y367D01*
X2142Y369D01*
X2146Y369D01*
X2146Y371D01*
X2150Y371D01*
X2150Y373D01*
X2154Y373D01*
X2154Y375D01*
X2164Y375D01*
X2164Y377D01*
X2220Y377D01*
X2220Y401D01*
X2222Y401D01*
X2222Y403D01*
X2058Y403D01*
G37*
D02*
G36*
X1156Y391D02*
X1156Y377D01*
X1158Y377D01*
X1158Y375D01*
X1160Y375D01*
X1160Y373D01*
X1180Y373D01*
X1180Y375D01*
X1182Y375D01*
X1182Y377D01*
X1184Y377D01*
X1184Y379D01*
X1186Y379D01*
X1186Y381D01*
X1190Y381D01*
X1190Y383D01*
X1194Y383D01*
X1194Y385D01*
X1198Y385D01*
X1198Y387D01*
X1202Y387D01*
X1202Y389D01*
X1208Y389D01*
X1208Y391D01*
X1156Y391D01*
G37*
D02*
G36*
X1232Y391D02*
X1232Y389D01*
X1238Y389D01*
X1238Y387D01*
X1242Y387D01*
X1242Y385D01*
X1246Y385D01*
X1246Y383D01*
X1250Y383D01*
X1250Y381D01*
X1252Y381D01*
X1252Y379D01*
X1256Y379D01*
X1256Y377D01*
X1258Y377D01*
X1258Y375D01*
X1260Y375D01*
X1260Y373D01*
X1280Y373D01*
X1280Y375D01*
X1282Y375D01*
X1282Y377D01*
X1284Y377D01*
X1284Y379D01*
X1286Y379D01*
X1286Y381D01*
X1290Y381D01*
X1290Y383D01*
X1294Y383D01*
X1294Y385D01*
X1298Y385D01*
X1298Y387D01*
X1302Y387D01*
X1302Y389D01*
X1308Y389D01*
X1308Y391D01*
X1232Y391D01*
G37*
D02*
G36*
X1364Y287D02*
X1364Y271D01*
X1384Y271D01*
X1384Y273D01*
X1386Y273D01*
X1386Y275D01*
X1388Y275D01*
X1388Y277D01*
X1392Y277D01*
X1392Y279D01*
X1394Y279D01*
X1394Y281D01*
X1398Y281D01*
X1398Y283D01*
X1402Y283D01*
X1402Y285D01*
X1408Y285D01*
X1408Y287D01*
X1364Y287D01*
G37*
D02*
G36*
X2190Y279D02*
X2190Y277D01*
X2188Y277D01*
X2188Y275D01*
X2186Y275D01*
X2186Y273D01*
X2184Y273D01*
X2184Y271D01*
X2182Y271D01*
X2182Y269D01*
X2180Y269D01*
X2180Y267D01*
X2178Y267D01*
X2178Y265D01*
X2176Y265D01*
X2176Y263D01*
X2174Y263D01*
X2174Y261D01*
X2172Y261D01*
X2172Y259D01*
X2170Y259D01*
X2170Y257D01*
X2168Y257D01*
X2168Y255D01*
X2166Y255D01*
X2166Y253D01*
X2220Y253D01*
X2220Y279D01*
X2190Y279D01*
G37*
D02*
G36*
X2166Y253D02*
X2166Y251D01*
X2518Y251D01*
X2518Y253D01*
X2166Y253D01*
G37*
D02*
G36*
X2166Y253D02*
X2166Y251D01*
X2518Y251D01*
X2518Y253D01*
X2166Y253D01*
G37*
D02*
G36*
X2164Y251D02*
X2164Y249D01*
X2162Y249D01*
X2162Y247D01*
X2160Y247D01*
X2160Y245D01*
X2158Y245D01*
X2158Y243D01*
X2156Y243D01*
X2156Y241D01*
X2154Y241D01*
X2154Y239D01*
X2150Y239D01*
X2150Y237D01*
X2148Y237D01*
X2148Y235D01*
X2144Y235D01*
X2144Y233D01*
X2140Y233D01*
X2140Y231D01*
X2136Y231D01*
X2136Y229D01*
X2128Y229D01*
X2128Y227D01*
X2118Y227D01*
X2118Y203D01*
X2296Y203D01*
X2296Y201D01*
X2310Y201D01*
X2310Y199D01*
X2316Y199D01*
X2316Y197D01*
X2320Y197D01*
X2320Y195D01*
X2324Y195D01*
X2324Y193D01*
X2328Y193D01*
X2328Y191D01*
X2332Y191D01*
X2332Y189D01*
X2334Y189D01*
X2334Y187D01*
X2336Y187D01*
X2336Y185D01*
X2340Y185D01*
X2340Y183D01*
X2342Y183D01*
X2342Y181D01*
X2344Y181D01*
X2344Y179D01*
X2346Y179D01*
X2346Y177D01*
X2348Y177D01*
X2348Y175D01*
X2350Y175D01*
X2350Y173D01*
X2352Y173D01*
X2352Y169D01*
X2354Y169D01*
X2354Y167D01*
X2356Y167D01*
X2356Y165D01*
X2358Y165D01*
X2358Y161D01*
X2360Y161D01*
X2360Y157D01*
X2362Y157D01*
X2362Y153D01*
X2364Y153D01*
X2364Y149D01*
X2366Y149D01*
X2366Y143D01*
X2368Y143D01*
X2368Y131D01*
X2370Y131D01*
X2370Y123D01*
X2368Y123D01*
X2368Y113D01*
X2366Y113D01*
X2366Y107D01*
X2364Y107D01*
X2364Y101D01*
X2362Y101D01*
X2362Y97D01*
X2360Y97D01*
X2360Y93D01*
X2358Y93D01*
X2358Y91D01*
X2356Y91D01*
X2356Y87D01*
X2354Y87D01*
X2354Y85D01*
X2352Y85D01*
X2352Y83D01*
X2350Y83D01*
X2350Y81D01*
X2348Y81D01*
X2348Y79D01*
X2346Y79D01*
X2346Y77D01*
X2344Y77D01*
X2344Y75D01*
X2342Y75D01*
X2342Y73D01*
X2340Y73D01*
X2340Y71D01*
X2338Y71D01*
X2338Y69D01*
X2336Y69D01*
X2336Y67D01*
X2332Y67D01*
X2332Y65D01*
X2330Y65D01*
X2330Y63D01*
X2326Y63D01*
X2326Y61D01*
X2322Y61D01*
X2322Y41D01*
X2518Y41D01*
X2518Y251D01*
X2164Y251D01*
G37*
D02*
G36*
X1476Y211D02*
X1476Y209D01*
X1930Y209D01*
X1930Y211D01*
X1476Y211D01*
G37*
D02*
G36*
X1476Y211D02*
X1476Y209D01*
X1930Y209D01*
X1930Y211D01*
X1476Y211D01*
G37*
D02*
G36*
X1476Y209D02*
X1476Y193D01*
X1882Y193D01*
X1882Y191D01*
X1904Y191D01*
X1904Y193D01*
X1930Y193D01*
X1930Y209D01*
X1476Y209D01*
G37*
D02*
G36*
X2118Y203D02*
X2118Y65D01*
X2116Y65D01*
X2116Y41D01*
X2266Y41D01*
X2266Y61D01*
X2262Y61D01*
X2262Y63D01*
X2260Y63D01*
X2260Y65D01*
X2256Y65D01*
X2256Y67D01*
X2254Y67D01*
X2254Y69D01*
X2252Y69D01*
X2252Y71D01*
X2248Y71D01*
X2248Y73D01*
X2246Y73D01*
X2246Y75D01*
X2244Y75D01*
X2244Y77D01*
X2242Y77D01*
X2242Y79D01*
X2240Y79D01*
X2240Y81D01*
X2238Y81D01*
X2238Y85D01*
X2236Y85D01*
X2236Y87D01*
X2234Y87D01*
X2234Y89D01*
X2232Y89D01*
X2232Y93D01*
X2230Y93D01*
X2230Y95D01*
X2228Y95D01*
X2228Y99D01*
X2226Y99D01*
X2226Y105D01*
X2224Y105D01*
X2224Y109D01*
X2222Y109D01*
X2222Y117D01*
X2220Y117D01*
X2220Y137D01*
X2222Y137D01*
X2222Y145D01*
X2224Y145D01*
X2224Y151D01*
X2226Y151D01*
X2226Y155D01*
X2228Y155D01*
X2228Y159D01*
X2230Y159D01*
X2230Y163D01*
X2232Y163D01*
X2232Y165D01*
X2234Y165D01*
X2234Y169D01*
X2236Y169D01*
X2236Y171D01*
X2238Y171D01*
X2238Y173D01*
X2240Y173D01*
X2240Y175D01*
X2242Y175D01*
X2242Y177D01*
X2244Y177D01*
X2244Y179D01*
X2246Y179D01*
X2246Y181D01*
X2248Y181D01*
X2248Y183D01*
X2250Y183D01*
X2250Y185D01*
X2252Y185D01*
X2252Y187D01*
X2256Y187D01*
X2256Y189D01*
X2258Y189D01*
X2258Y191D01*
X2262Y191D01*
X2262Y193D01*
X2264Y193D01*
X2264Y195D01*
X2268Y195D01*
X2268Y197D01*
X2274Y197D01*
X2274Y199D01*
X2280Y199D01*
X2280Y201D01*
X2292Y201D01*
X2292Y203D01*
X2118Y203D01*
G37*
D02*
G36*
X1586Y193D02*
X1586Y91D01*
X1706Y91D01*
X1706Y117D01*
X1704Y117D01*
X1704Y139D01*
X1706Y139D01*
X1706Y145D01*
X1708Y145D01*
X1708Y151D01*
X1710Y151D01*
X1710Y155D01*
X1712Y155D01*
X1712Y157D01*
X1714Y157D01*
X1714Y161D01*
X1716Y161D01*
X1716Y163D01*
X1718Y163D01*
X1718Y165D01*
X1720Y165D01*
X1720Y169D01*
X1722Y169D01*
X1722Y171D01*
X1724Y171D01*
X1724Y173D01*
X1726Y173D01*
X1726Y175D01*
X1728Y175D01*
X1728Y177D01*
X1732Y177D01*
X1732Y179D01*
X1734Y179D01*
X1734Y181D01*
X1736Y181D01*
X1736Y183D01*
X1740Y183D01*
X1740Y185D01*
X1742Y185D01*
X1742Y187D01*
X1746Y187D01*
X1746Y189D01*
X1752Y189D01*
X1752Y191D01*
X1758Y191D01*
X1758Y193D01*
X1586Y193D01*
G37*
D02*
G36*
X1782Y193D02*
X1782Y191D01*
X1788Y191D01*
X1788Y189D01*
X1792Y189D01*
X1792Y187D01*
X1796Y187D01*
X1796Y185D01*
X1800Y185D01*
X1800Y183D01*
X1802Y183D01*
X1802Y181D01*
X1806Y181D01*
X1806Y179D01*
X1808Y179D01*
X1808Y177D01*
X1832Y177D01*
X1832Y179D01*
X1834Y179D01*
X1834Y181D01*
X1836Y181D01*
X1836Y183D01*
X1840Y183D01*
X1840Y185D01*
X1842Y185D01*
X1842Y187D01*
X1846Y187D01*
X1846Y189D01*
X1852Y189D01*
X1852Y191D01*
X1858Y191D01*
X1858Y193D01*
X1782Y193D01*
G37*
D02*
G36*
X460Y195D02*
X460Y193D01*
X456Y193D01*
X456Y191D01*
X450Y191D01*
X450Y169D01*
X452Y169D01*
X452Y165D01*
X454Y165D01*
X454Y141D01*
X452Y141D01*
X452Y135D01*
X450Y135D01*
X450Y131D01*
X448Y131D01*
X448Y127D01*
X446Y127D01*
X446Y123D01*
X444Y123D01*
X444Y121D01*
X442Y121D01*
X442Y119D01*
X440Y119D01*
X440Y115D01*
X438Y115D01*
X438Y113D01*
X436Y113D01*
X436Y91D01*
X438Y91D01*
X438Y89D01*
X440Y89D01*
X440Y87D01*
X442Y87D01*
X442Y83D01*
X444Y83D01*
X444Y81D01*
X446Y81D01*
X446Y77D01*
X448Y77D01*
X448Y75D01*
X450Y75D01*
X450Y69D01*
X452Y69D01*
X452Y63D01*
X454Y63D01*
X454Y41D01*
X486Y41D01*
X486Y61D01*
X484Y61D01*
X484Y69D01*
X482Y69D01*
X482Y85D01*
X484Y85D01*
X484Y93D01*
X486Y93D01*
X486Y115D01*
X482Y115D01*
X482Y195D01*
X460Y195D01*
G37*
D02*
G36*
X575Y1345D02*
X612Y1345D01*
X612Y1297D01*
X575Y1297D01*
X575Y1345D01*
G37*
D02*
G36*
X575Y1263D02*
X612Y1263D01*
X612Y1215D01*
X575Y1215D01*
X575Y1263D01*
G37*
D02*
G36*
X528Y1298D02*
X576Y1298D01*
X576Y1261D01*
X528Y1261D01*
X528Y1298D01*
G37*
D02*
G36*
X610Y1298D02*
X658Y1298D01*
X658Y1261D01*
X610Y1261D01*
X610Y1298D01*
G37*
D02*
G36*
X925Y1543D02*
X962Y1543D01*
X962Y1521D01*
X925Y1521D01*
X925Y1543D01*
G37*
D02*
G36*
X878Y1522D02*
X926Y1522D01*
X926Y1485D01*
X878Y1485D01*
X878Y1522D01*
G37*
D02*
G36*
X1425Y837D02*
X1462Y837D01*
X1462Y791D01*
X1425Y791D01*
X1425Y837D01*
G37*
D02*
G36*
X1378Y872D02*
X1426Y872D01*
X1426Y835D01*
X1378Y835D01*
X1378Y872D01*
G37*
D02*
G36*
X1460Y872D02*
X1508Y872D01*
X1508Y835D01*
X1460Y835D01*
X1460Y872D01*
G37*
D02*
G36*
X68Y255D02*
X167Y255D01*
X167Y189D01*
X68Y189D01*
X68Y255D01*
G37*
D02*
G36*
X68Y71D02*
X167Y71D01*
X167Y31D01*
X68Y31D01*
X68Y71D01*
G37*
D02*
G36*
X18Y179D02*
X58Y179D01*
X58Y80D01*
X18Y80D01*
X18Y179D01*
G37*
D02*
G36*
X525Y245D02*
X562Y245D01*
X562Y197D01*
X525Y197D01*
X525Y245D01*
G37*
D02*
G36*
X560Y198D02*
X608Y198D01*
X608Y161D01*
X560Y161D01*
X560Y198D01*
G37*
D02*
G36*
X1198Y395D02*
X1237Y395D01*
X1237Y349D01*
X1198Y349D01*
X1198Y395D01*
G37*
D02*
G36*
X1198Y311D02*
X1237Y311D01*
X1237Y263D01*
X1198Y263D01*
X1198Y311D01*
G37*
D02*
G36*
X900Y291D02*
X935Y291D01*
X935Y245D01*
X900Y245D01*
X900Y291D01*
G37*
D02*
G36*
X932Y247D02*
X980Y247D01*
X980Y212D01*
X932Y212D01*
X932Y247D01*
G37*
D02*
G36*
X331Y769D02*
X360Y769D01*
X360Y731D01*
X331Y731D01*
X331Y769D01*
G37*
D02*
G36*
X1848Y1545D02*
X1887Y1545D01*
X1887Y1523D01*
X1848Y1523D01*
X1848Y1545D01*
G37*
D02*
G36*
X1949Y1567D02*
X1986Y1567D01*
X1986Y1547D01*
X1949Y1547D01*
X1949Y1567D01*
G37*
D02*
G36*
X1949Y1513D02*
X1986Y1513D01*
X1986Y1465D01*
X1949Y1465D01*
X1949Y1513D01*
G37*
D02*
G36*
X1984Y1548D02*
X2032Y1548D01*
X2032Y1511D01*
X1984Y1511D01*
X1984Y1548D01*
G37*
D02*
G36*
X2472Y511D02*
X2511Y511D01*
X2511Y463D01*
X2472Y463D01*
X2472Y511D01*
G37*
D02*
G36*
X2510Y549D02*
X2532Y549D01*
X2532Y510D01*
X2510Y510D01*
X2510Y549D01*
G37*
D02*
G36*
X1036Y573D02*
X1084Y573D01*
X1084Y534D01*
X1036Y534D01*
X1036Y573D01*
G37*
D02*
G36*
X229Y1539D02*
X258Y1539D01*
X258Y1527D01*
X229Y1527D01*
X229Y1539D01*
G37*
D02*
G36*
X229Y1481D02*
X258Y1481D01*
X258Y1441D01*
X229Y1441D01*
X229Y1481D01*
G37*
D02*
G36*
X178Y1518D02*
X220Y1518D01*
X220Y1489D01*
X178Y1489D01*
X178Y1518D01*
G37*
D02*
G36*
X229Y769D02*
X258Y769D01*
X258Y727D01*
X229Y727D01*
X229Y769D01*
G37*
D02*
G36*
X1623Y987D02*
X1660Y987D01*
X1660Y941D01*
X1623Y941D01*
X1623Y987D01*
G37*
D02*
G36*
X2205Y1567D02*
X2242Y1567D01*
X2242Y1547D01*
X2205Y1547D01*
X2205Y1567D01*
G37*
D02*
G36*
X2160Y1548D02*
X2206Y1548D01*
X2206Y1511D01*
X2160Y1511D01*
X2160Y1548D01*
G37*
D02*
G36*
X1673Y443D02*
X1710Y443D01*
X1710Y397D01*
X1673Y397D01*
X1673Y443D01*
G37*
D02*
G36*
X1628Y398D02*
X1674Y398D01*
X1674Y361D01*
X1628Y361D01*
X1628Y398D01*
G37*
D02*
G36*
X1708Y398D02*
X1758Y398D01*
X1758Y361D01*
X1708Y361D01*
X1708Y398D01*
G37*
D02*
G36*
X276Y217D02*
X311Y217D01*
X311Y171D01*
X276Y171D01*
X276Y217D01*
G37*
D02*
G36*
X1400Y291D02*
X1435Y291D01*
X1435Y245D01*
X1400Y245D01*
X1400Y291D01*
G37*
D02*
G36*
X1432Y247D02*
X1480Y247D01*
X1480Y212D01*
X1432Y212D01*
X1432Y247D01*
G37*
D02*
G36*
X1747Y197D02*
X1788Y197D01*
X1788Y151D01*
X1747Y151D01*
X1747Y197D01*
G37*
D02*
G36*
X1700Y150D02*
X1746Y150D01*
X1746Y109D01*
X1700Y109D01*
X1700Y150D01*
G37*
D02*
G36*
X210Y510D02*
X258Y510D01*
X258Y441D01*
X210Y441D01*
X210Y510D01*
G37*
D02*
G36*
X330Y320D02*
X378Y320D01*
X378Y251D01*
X330Y251D01*
X330Y320D01*
G37*
D02*
G36*
X408Y173D02*
X454Y173D01*
X454Y138D01*
X408Y138D01*
X408Y173D01*
G37*
D02*
G36*
X2368Y1553D02*
X2467Y1553D01*
X2467Y1513D01*
X2368Y1513D01*
X2368Y1553D01*
G37*
D02*
G36*
X2476Y1503D02*
X2518Y1503D01*
X2518Y1404D01*
X2476Y1404D01*
X2476Y1503D01*
G37*
D02*
G54D27*
X1967Y350D02*
X1967Y405D01*
X2022Y405D01*
X2022Y350D01*
X1967Y350D01*
D02*
X688Y85D02*
X750Y85D01*
X750Y23D01*
X688Y23D01*
X688Y85D01*
D02*
G04 End of Copper1*
M02*