M48
INCH
T10C0.035000
T11C0.038000
T12C0.100000
T13C0.030000
T14C0.042000
T15C0.031497
T16C0.015748
T17C0.118110
T18C0.059055
T19C0.035433
%
T10
X013446Y014522
X014446Y008522
X008946Y010272
X008196Y011022
X008196Y007522
X020946Y009272
X023946Y012272
X024946Y012272
X005446Y000772
X005446Y001772
X016196Y013022
X016196Y014022
X016196Y015022
X008946Y011772
X017196Y013272
X018196Y013272
X007446Y010272
X006696Y009522
X012446Y012522
X011446Y012522
X012446Y013522
X011446Y013522
X012446Y014522
X011446Y014522
X016946Y003772
X019946Y003772
X010446Y007022
X010446Y010022
X011446Y007022
X011446Y010022
X012446Y007022
X012446Y010022
X013446Y007022
X013446Y010022
X014446Y007022
X014446Y010022
X015446Y007022
X015446Y010022
X016446Y007022
X016446Y010022
X017446Y007022
X017446Y010022
X018446Y007022
X018446Y010022
X019446Y007022
X019446Y010022
X020446Y007022
X020446Y010022
X021446Y007022
X021446Y010022
X022446Y007022
X022446Y010022
X023446Y007022
X023446Y010022
X019696Y015272
X022255Y015272
X019696Y013501
X022255Y013501
X007438Y015032
X006438Y015032
X005438Y015032
X004438Y015032
X003438Y015032
X002438Y015032
X007438Y007032
X006438Y007032
X005438Y007032
X004438Y007032
X003438Y007032
X002438Y007032
T11
X010696Y011272
X011696Y011272
X012696Y011272
X007196Y005522
X008196Y005522
X009196Y005522
X010196Y005522
X011196Y003272
X012196Y003272
X013196Y003272
X023446Y005772
X022446Y005772
X021446Y005772
X020446Y005772
X019446Y005772
X018446Y005772
X017446Y005772
X018696Y015022
X017696Y015022
X019696Y011522
X020696Y011522
X021696Y011522
X022696Y011522
X024946Y010272
X024946Y009272
X024946Y008272
X024946Y007272
X024946Y006272
X024946Y005272
T12
X004296Y002822
X003096Y004722
X005496Y004722
T13
X023944Y011272
X024946Y011272
X002946Y000520
X002946Y001522
X003946Y000520
X003946Y001522
X016448Y006022
X015446Y006022
X018198Y011522
X017196Y011522
X009198Y002272
X008196Y002272
X014198Y002272
X013196Y002272
T14
X007186Y003531
X007186Y000551
X016966Y002772
X019946Y002772
X017696Y001272
X018696Y001272
X019696Y001272
X013196Y001272
X014196Y001272
X015196Y001272
X008946Y001272
X009946Y001272
X010946Y001272
T15
X014696Y013272
X014696Y012288
X014696Y014272
X014696Y015257
T16
X018946Y011272
T17
X001196Y001272
X024196Y014522
T18
X022946Y001272
X022946Y003272
T19
X005946Y012772
X009446Y015022
T00
M30
